<?xml version="1.0" encoding="UTF-8" standalone="no"?>
<svg
   xmlns:dc="http://purl.org/dc/elements/1.1/"
   xmlns:cc="http://creativecommons.org/ns#"
   xmlns:rdf="http://www.w3.org/1999/02/22-rdf-syntax-ns#"
   xmlns:svg="http://www.w3.org/2000/svg"
   xmlns="http://www.w3.org/2000/svg"
   xmlns:sodipodi="http://sodipodi.sourceforge.net/DTD/sodipodi-0.dtd"
   xmlns:inkscape="http://www.inkscape.org/namespaces/inkscape"
   width="850"
   height="700"
   version="1.1"
   id="svg911"
   sodipodi:docname="MapaBrasil.svg"
   inkscape:version="1.0 (4035a4fb49, 2020-05-01)">
  <metadata
     id="metadata917">
    <rdf:RDF>
      <cc:Work
         rdf:about="">
        <dc:format>image/svg+xml</dc:format>
        <dc:type
           rdf:resource="http://purl.org/dc/dcmitype/StillImage" />
        <dc:title>mapa do brasil HCV Cores quentes</dc:title>
      </cc:Work>
    </rdf:RDF>
  </metadata>
  <defs
     id="defs915" />
  <sodipodi:namedview
     inkscape:document-rotation="0"
     pagecolor="#ffffff"
     bordercolor="#666666"
     borderopacity="1"
     objecttolerance="10"
     gridtolerance="10"
     guidetolerance="10"
     inkscape:pageopacity="0"
     inkscape:pageshadow="2"
     inkscape:window-width="1366"
     inkscape:window-height="705"
     id="namedview913"
     showgrid="false"
     height="700px"
     inkscape:zoom="0.55048947"
     inkscape:cx="362.37918"
     inkscape:cy="421.66478"
     inkscape:window-x="-8"
     inkscape:window-y="-8"
     inkscape:window-maximized="1"
     inkscape:current-layer="svg911" />
  <title
     id="title876">mapa do brasil HCV Cores quentes</title>
  <path
     id="43"
     style="fill:#000000;stroke:none"
     d="m 401.15625,575.60742 c -0.073,1.80604 -0.0161,3.64875 -0.16953,5.43208 -0.48931,0.71371 -0.72108,1.6826 -1.61345,1.99691 -2.70153,1.63985 -5.4748,3.20092 -8.13149,4.89003 -2.78828,3.81554 -5.57655,7.63107 -8.36483,11.44661 -0.41037,2.50899 -0.74677,5.0408 -1.20309,7.53562 -0.48146,1.3212 -1.6688,2.17108 -2.52312,3.24332 -3.82368,4.241 -7.64737,8.48201 -11.47105,12.72301 3.52911,0.5249 7.0711,0.99802 10.59221,1.55515 1.41142,0.50762 2.59231,1.49832 3.90503,2.21276 1.91769,1.19309 3.89152,2.32078 5.77417,3.5547 0.95954,0.87216 1.20341,2.17166 1.71147,3.31341 0.362,0.80063 0.59036,1.71613 1.03515,2.4456 2.91781,1.70131 5.83563,3.40262 8.75345,5.10393 3.28719,0.0909 6.58546,0.084 9.86573,0.23606 1.5562,0.40237 2.99381,1.19056 4.5019,1.74945 0.86577,0.4184 1.86296,0.64676 2.6479,1.18203 0.51222,0.57153 1.23545,1.06817 1.12569,1.93415 0.21287,2.18793 0.31937,4.4078 0.59804,6.57596 1.20931,2.21877 2.41862,4.43755 3.62793,6.65633 1.0787,0.2764 2.24738,0.34902 3.26908,0.75448 0.56083,0.45321 1.34283,0.74309 1.41647,1.55607 0.61783,4.28841 1.23567,8.57682 1.85351,12.86523 -0.27696,0.77566 -0.27534,1.77248 -1.15515,2.13222 -0.92354,0.59004 -1.84709,1.18008 -2.77063,1.77013 -0.22917,0.97005 -0.45833,1.9401 -0.6875,2.91015 1.58789,-0.21745 3.17578,-0.43489 4.76367,-0.65234 1.33209,-1.72694 2.61176,-3.50648 3.9764,-5.20074 1.09206,-0.9545 2.58152,-1.19188 3.87519,-1.78257 0.7272,-0.27965 1.45441,-0.5593 2.18162,-0.83896 0.78672,-3.26147 1.47831,-6.55151 2.32474,-9.79505 1.13783,-2.27657 2.31061,-4.55405 3.52329,-6.78734 0.86288,-1.0915 2.23582,-1.54269 3.36191,-2.30376 4.90203,-2.88821 9.80405,-5.77642 14.70607,-8.66463 1.6418,-3.3017 3.08577,-6.70751 5.0021,-9.86498 1.27982,-2.1918 2.47343,-4.44467 3.80674,-6.59856 1.06332,-1.13675 2.43388,-1.94845 3.62532,-2.94965 0.72481,-0.60301 1.5582,-1.12194 2.21661,-1.77636 2.16133,-5.03577 4.32266,-10.07155 6.484,-15.10732 -0.70313,-5.19336 -1.40625,-10.38672 -2.10938,-15.58008 -11.65885,-6.5905 -23.31771,-13.18099 -34.97656,-19.77149 -10.34932,-0.23072 -20.7029,-0.51565 -31.04955,-0.7125 -4.76668,0.87031 -9.53337,1.74063 -14.30006,2.61094 z">
    <title
       id="title1023">Rio Grande do Sul</title>
  </path>
  <path
     id="42"
     style="fill:#000000;stroke:none"
     d="m 492.81641,551.14844 c -5.83657,0.24792 -11.68024,0.39593 -17.51953,0.60547 -1.48699,1.49144 -2.88182,3.08889 -4.4264,4.51409 -1.77527,1.03967 -3.69925,1.83168 -5.53301,2.77393 -0.96642,0.59426 -2.12751,0.85024 -3.23875,0.56131 -2.54797,-0.4012 -5.11716,-0.713 -7.65191,-1.16987 -1.74366,-0.7196 -3.35627,-1.74617 -5.04769,-2.58814 -1.27598,-0.63993 -2.52001,-1.41157 -3.81552,-1.97098 -7.08255,0.0855 -14.16511,0.17107 -21.24766,0.25661 0.009,1.53911 0.16682,3.09454 0.0836,4.62355 -0.26828,1.38654 -1.25435,2.48109 -1.87234,3.72537 -0.88545,1.34038 -1.39638,3.10721 -2.96969,3.81227 -0.77715,0.45083 -1.5543,0.90166 -2.33145,1.35248 9.60808,-0.0977 19.21615,-0.19531 28.82422,-0.29297 1.46965,0.26442 2.64203,1.27365 3.96242,1.91202 11.5288,6.44014 23.05761,12.88027 34.58641,19.3204 0.47292,0.7488 1.17931,1.40684 1.13184,2.35794 0.62793,4.44189 1.25586,8.88377 1.88379,13.32566 0.6676,-0.29499 1.4845,-0.43037 2.06165,-0.82205 0.91578,-2.02115 1.7376,-4.09544 2.71211,-6.08337 0.87191,-1.18062 2.11026,-2.04067 3.13514,-3.08746 1.30185,-1.21136 2.6037,-2.42272 3.90555,-3.63408 0.26693,-12.07096 0.53385,-24.14192 0.80078,-36.21289 0.31166,-1.45973 1.35479,-2.60066 2.03345,-3.90044 0.0827,-0.36227 1.13292,-1.39871 0.49206,-1.25685 -3.3197,0.626 -6.6394,1.252 -9.9591,1.878 z">
    <title
       id="title1025">Santa Catarina</title>
  </path>
  <path
     id="41"
     style="fill:#000000;stroke:none"
     d="m 414.42383,510.5625 c 0.11721,10.01595 0.18886,20.03632 0.33454,30.04951 0.23403,0.43564 -0.086,1.56785 0.6549,1.36625 2.43308,-0.0807 4.88526,-0.27369 7.30648,-0.28475 0.54915,0.34102 1.50321,0.28341 1.62334,1.04678 0.37351,0.68043 0.42071,1.41612 0.33695,2.17399 -0.0516,1.68222 -0.1031,3.36444 -0.15465,5.04666 7.31182,-0.0222 14.63209,-0.11252 21.93863,-0.0922 1.39689,0.26885 2.51204,1.23839 3.77178,1.84836 1.36046,0.71507 2.66079,1.59566 4.05846,2.20831 3.00543,0.56133 6.01086,1.12266 9.01629,1.68399 2.17883,-1.19626 4.41864,-2.31642 6.55946,-3.56009 1.25336,-1.41037 2.43866,-2.91097 3.73441,-4.26512 0.74304,-0.3356 1.45514,-0.80929 2.30727,-0.65797 5.39897,-0.0542 10.80471,-0.0505 16.19944,-0.14079 5.04564,-1.15985 10.09128,-2.3197 15.13692,-3.47955 1.58323,-0.95374 3.16973,-1.90218 4.73047,-2.89258 -0.92267,-0.61775 -1.79733,-1.35698 -2.7495,-1.9001 -2.99561,-0.40439 -5.99122,-0.80879 -8.98683,-1.21318 -0.67215,-0.58059 -1.64681,-0.91178 -1.88206,-1.85257 -5.10898,-10.84081 -10.21795,-21.68162 -15.32693,-32.52243 -10.62304,-4.84049 -21.24609,-9.68099 -31.86914,-14.52148 -3.76041,-0.2142 -7.52083,-0.42839 -11.28125,-0.64258 -8.48633,7.53385 -16.97265,15.06771 -25.45898,22.60156 z">
    <title
       id="title1027">Paraná</title>
  </path>
  <path
     id="35"
     style="fill:#000000;stroke:none"
     d="m 471.76367,447.57617 c -0.29142,0.51269 -0.30973,1.28119 -0.78085,1.62558 -0.75866,0.49001 -1.63001,0.56975 -2.5086,0.6231 -0.56028,0.146 -1.30189,-0.0528 -1.74595,0.31418 -2.79224,3.30131 -5.58447,6.60263 -8.37671,9.90394 -0.41406,5.1595 -0.82812,10.31901 -1.24218,15.47851 -0.45887,0.73587 -0.74944,1.62748 -1.6031,1.99797 -3.13816,2.15628 -6.27632,4.31255 -9.41448,6.46883 2.18143,0.16046 4.38552,0.17257 6.55262,0.42682 1.59352,0.52924 3.06504,1.40037 4.60988,2.06604 9.44127,4.42946 18.88255,8.85893 28.32382,13.28839 0.61886,0.5578 1.17397,1.15989 1.42736,1.9716 4.98255,10.80699 9.9651,21.61399 14.94764,32.42098 3.10016,0.30767 6.21367,0.55345 9.30552,0.89968 1.38933,0.42436 2.48838,1.45082 3.74356,2.15344 0.55169,0.67217 0.98708,0.11577 1.43078,-0.35284 2.47742,-2.33694 4.95484,-4.67389 7.43225,-7.01083 0.6849,-2.5039 1.3698,-5.00781 2.05469,-7.51172 0.62324,-0.63819 1.0998,-1.48906 2.04395,-1.66198 3.0258,-1.14343 6.01351,-2.40295 9.06347,-3.47278 4.7492,-0.75213 9.51879,-1.43543 14.25526,-2.23048 0.82638,-0.37174 1.65275,-0.74348 2.47912,-1.11522 0.39235,-1.24271 0.68282,-2.54075 1.13753,-3.7496 0.52349,-0.51397 0.85574,-1.35042 1.69932,-1.3246 2.0885,-0.0675 4.19475,0.0449 6.2901,0.0468 2.19011,-3.05469 4.38021,-6.10937 6.57031,-9.16406 0.14844,-0.84896 0.29688,-1.69792 0.44532,-2.54688 -2.00326,-1.36198 -4.00651,-2.72395 -6.00977,-4.08593 -5.23682,2.28631 -10.49407,4.5274 -15.64448,7.00503 -1.18271,0.55663 -2.41668,1.3009 -3.77497,0.96732 -1.93681,-0.25718 -3.91044,-0.40723 -5.82429,-0.73118 -0.54276,-0.42921 -1.44956,-0.56908 -1.51739,-1.37577 -0.35047,-1.11834 -0.14182,-2.33492 -0.25576,-3.49482 -0.20205,-6.51025 -0.4041,-13.02049 -0.60616,-19.53074 -3.21614,-7.41016 -6.43229,-14.82031 -9.64843,-22.23047 -8.44206,-0.0605 -16.88412,-0.12109 -25.32617,-0.18164 -1.42216,-0.27919 -2.46477,-1.35118 -3.67488,-2.0733 -4.28351,-2.88442 -8.56701,-5.76884 -12.85052,-8.65326 -4.44531,-0.3737 -8.89062,-0.7474 -13.33593,-1.1211 0.10937,1.98698 0.21875,3.97396 0.32812,5.96094 z">
    <title
       id="title1005">São Paulo</title>
  </path>
  <path
     id="33"
     style="fill:#000000;stroke:none"
     d="m 610.51758,476.20898 c -2.04983,2.45063 -4.05324,4.95273 -6.15611,7.35203 -1.28779,0.96561 -2.80717,1.59008 -4.18922,2.41684 -1.63562,0.81819 -3.13671,1.97547 -4.96497,2.33024 -2.94775,0.79809 -5.87105,1.70426 -8.83423,2.4341 -5.63999,0.4054 -11.28837,0.70236 -16.92188,1.1914 1.18616,0.97199 2.46116,1.87069 3.59277,2.88768 0.32265,0.70873 0.94298,1.38296 0.6223,2.20603 -0.32269,1.42639 -0.30263,2.9563 -0.91461,4.2977 -1.49338,2.38581 -2.98676,4.77161 -4.48015,7.15742 1.11849,-0.071 2.23698,-0.14193 3.35547,-0.21289 0.44187,-1.06695 0.6979,-2.25043 1.2589,-3.24267 0.52706,-0.48305 0.91924,-1.21682 1.72743,-1.17725 11.44857,-0.0833 22.89714,-0.16667 34.3457,-0.25 0.59825,-0.60578 1.56322,-0.94997 1.72212,-1.86914 0.61046,-1.55314 1.113,-3.17993 1.78999,-4.68768 0.66551,-0.52337 1.18301,-1.3279 2.10081,-1.37198 3.81653,-0.93585 7.63306,-1.87169 11.44958,-2.80753 0.71875,-0.96094 1.4375,-1.92187 2.15625,-2.88281 -0.14778,-2.60156 -0.29557,-5.20313 -0.44335,-7.80469 -4.22592,-4.18034 -8.45183,-8.36068 -12.67774,-12.54101 -1.51302,2.1914 -3.02604,4.38281 -4.53906,6.57421 z">
    <title
       id="title1015">Rio de Janeiro</title>
  </path>
  <path
     id="32"
     style="fill:#000000;stroke:none"
     d="m 633.5293,438.67578 c -0.39362,1.70461 -1.19878,3.29087 -1.76339,4.94631 -0.80549,2.19584 -1.64801,4.37629 -2.71787,6.45942 -1.04596,2.2046 -2.09192,4.4092 -3.13788,6.6138 -0.76862,0.46148 -1.39284,1.29614 -2.36882,1.22175 -2.28722,0.26723 -4.57443,0.53446 -6.86165,0.80169 0.0755,2.22917 0.15104,4.45833 0.22656,6.6875 4.14648,4.10156 8.29297,8.20312 12.43945,12.30469 1.00203,-1.11434 2.56294,-1.33933 3.87548,-1.94408 1.37305,-0.39639 2.80712,0.0536 4.20655,0.0808 0.46117,-1.29477 1.25006,-2.50666 1.24346,-3.9197 0.21307,-1.64673 0.28516,-3.32884 0.58742,-4.9532 0.4538,-1.33642 1.58033,-2.28513 2.36139,-3.43295 2.2574,-2.92837 4.68045,-5.72394 7.01477,-8.59064 0.67966,-3.42978 1.42238,-6.85443 2.06263,-10.28743 -0.0815,-2.74262 -0.25074,-5.48913 -0.27769,-8.22934 0.40163,-1.93607 1.10615,-3.80826 1.62703,-5.71918 0.18592,-0.80824 0.69744,-1.60588 0.31431,-2.43266 -0.22907,-1.00369 -0.45815,-2.00739 -0.68722,-3.01108 -2.50448,-0.60077 -5.06662,-0.99856 -7.47481,-1.94246 -1.99798,-0.65528 -3.98163,-1.39735 -5.98847,-1.99894 -1.37097,0 -2.74193,0 -4.11289,0 -0.18946,5.7819 -0.37891,11.5638 -0.56836,17.3457 z">
    <title
       id="title1013">Espirito Santo</title>
  </path>
  <path
     id="29"
     style="fill:#000000;stroke:none"
     d="m 651.46484,273.89453 c -0.58393,0.06 -1.22636,0.50998 -1.77175,0.31292 -0.71739,-0.37424 -1.34962,-0.8411 -1.7497,-1.56047 -2.47462,-3.34457 -4.94924,-6.68913 -7.42386,-10.0337 -0.80556,-0.0798 -1.67681,-0.38066 -2.44101,-0.32122 -2.76293,2.49157 -5.47417,5.06632 -8.26936,7.50596 -0.72115,0.31661 -1.44736,0.60655 -2.25056,0.49029 -11.64453,0.0367 -23.28907,0.0734 -34.9336,0.11013 1.81966,2.33073 3.63932,4.66146 5.45898,6.99218 0.0724,0.71813 0.65487,1.49868 0.11135,2.14144 -0.55358,1.04087 -1.57907,1.74168 -2.33489,2.63681 -1.92921,1.95405 -3.78032,3.99555 -5.75842,5.89485 -3.08759,1.83077 -6.27525,3.50935 -9.40146,5.28138 -1.93372,1.04436 -3.83426,2.19804 -5.78851,3.17476 -0.6865,-0.0363 -1.52378,0.40785 -2.01358,-0.25517 -0.97605,-0.69619 -1.33312,-1.92485 -2.01319,-2.87564 -1.86085,-3.10625 -3.7217,-6.21249 -5.58255,-9.31874 -2.32487,0.007 -4.64974,0.013 -6.97461,0.0195 -3.79882,4.59375 -7.59765,9.1875 -11.39648,13.78125 2.05198,0.033 4.12831,-0.0448 6.16512,0.0573 0.57819,0.36822 1.53473,0.38687 1.61917,1.21125 0.52132,1.05082 0.17124,2.24955 0.24639,3.3761 -0.3045,21.00778 -0.609,42.01555 -0.91349,63.02332 3.60351,-0.20833 7.20703,-0.41666 10.81055,-0.625 6.64127,-4.72005 13.28255,-9.4401 19.92382,-14.16015 0.84882,0.24122 1.77302,0.35099 2.57513,0.67368 0.80419,0.55069 0.67073,1.58989 0.91489,2.43234 0.38874,1.96401 0.77749,3.92802 1.16623,5.89202 6.30105,0.27476 12.61446,0.47938 18.90779,0.79792 1.39304,0.34294 2.45207,1.39213 3.67948,2.08528 3.68185,2.38724 7.3637,4.77448 11.04555,7.16173 3.52445,-0.0955 7.06351,-0.2875 10.57884,-0.32267 0.75403,0.22642 1.49439,0.4768 2.02982,1.0863 5.48048,4.66478 11.00891,9.28532 16.45942,13.97776 0.90147,1.15544 1.18549,2.64798 1.79616,3.96219 0.28253,0.91021 0.8635,1.77114 0.94121,2.71519 -0.0522,0.70292 0.0904,1.49507 -0.55645,1.9696 -4.15787,3.86273 -8.31574,7.72546 -12.47361,11.58819 0.69661,2.13021 1.39323,4.26041 2.08984,6.39062 3.41081,3.22526 6.82161,6.45052 10.23242,9.67578 1.47707,0.0738 2.9654,0.30488 4.43544,0.28068 1.26306,-0.28171 2.52611,-0.56342 3.78917,-0.84513 0.18466,-3.87895 0.26926,-7.77157 0.5164,-11.64198 0.44025,-1.55084 1.27479,-2.96892 1.87609,-4.46553 0.44207,-0.89822 0.83445,-1.8106 0.86272,-2.82686 0.42797,-2.87396 0.72786,-5.77361 1.23687,-8.63136 0.62101,-1.79216 1.12541,-3.63856 1.81821,-5.39733 0.72513,-1.21631 1.93646,-2.04533 2.8784,-3.08893 0.47193,-0.53813 1.14415,-0.99093 1.49827,-1.57925 0.17141,-12.10469 0.34281,-24.20938 0.51421,-36.31407 -0.72265,-2.06446 -1.44531,-4.12891 -2.16797,-6.19336 0.50721,-0.82806 0.91928,-1.74569 1.48421,-2.51938 0.78926,-0.33349 1.73759,-0.21533 2.58925,-0.37162 1.19334,-0.14715 2.41869,-0.19052 3.59252,-0.40091 2.12008,-1.18091 4.30413,-2.28401 6.38421,-3.51356 1.35075,-1.55793 2.57016,-3.24054 4.00711,-4.71689 0.88194,-0.77575 1.76388,-1.5515 2.64583,-2.32725 0.22425,-2.12143 0.32951,-4.28306 0.6274,-6.37961 0.47944,-0.67359 0.75153,-1.55873 1.5956,-1.86029 1.23426,-0.741 2.46852,-1.48199 3.70278,-2.22299 0.25326,-0.95378 0.50651,-1.90755 0.75977,-2.86133 -1.78375,-0.62431 -3.6361,-1.09585 -5.37612,-1.81752 -1.22034,-0.77495 -2.16754,-1.9198 -3.27466,-2.84808 -1.64419,-1.54575 -3.37701,-3.0279 -4.96586,-4.61335 -0.35532,-0.75736 -0.75162,-1.50595 -0.61185,-2.36947 -0.0189,-3.24024 -0.0378,-6.48048 -0.0567,-9.72072 0.38267,-0.61027 0.39411,-1.5939 1.22494,-1.75343 1.0318,-0.49255 2.23553,-0.34219 3.3439,-0.5484 1.71403,-0.18585 3.42807,-0.3717 5.1421,-0.55754 0.0475,-0.87566 0.095,-1.75131 0.14258,-2.62696 -2.34957,-0.19543 -4.73073,-0.2827 -7.06057,-0.54572 -0.55926,-0.40408 -1.48492,-0.4958 -1.56615,-1.30743 -0.41266,-1.06675 -0.16919,-2.25587 -0.28937,-3.37717 -0.11586,-3.77023 -0.23172,-7.54046 -0.34759,-11.31069 -5.24609,-3.40235 -10.49218,-6.80469 -15.73828,-10.20703 -5.97265,4.84505 -11.94531,9.6901 -17.91797,14.53515 z">
    <title
       id="title1007">Bahia</title>
  </path>
  <path
     id="31"
     style="fill:#000000;stroke:none"
     d="m 567.08789,368.11133 c -1.29744,0.60588 -2.75916,0.38428 -4.14595,0.54011 -3.48976,0.19496 -6.97952,0.38992 -10.46928,0.58489 -0.51462,-0.29076 -1.28001,-0.31091 -1.62936,-0.77999 -0.72877,-1.15267 -0.57857,-2.56093 -0.81342,-3.85722 -0.12584,-1.04996 -0.25169,-2.09993 -0.37754,-3.1499 -2.01106,0.0234 -4.02213,0.0469 -6.0332,0.0703 -0.007,2.87956 -0.0143,5.75912 -0.0215,8.63867 -0.3222,0.49212 -0.38252,1.26716 -0.87715,1.57299 -0.71435,0.33183 -1.45458,0.5139 -2.24428,0.40982 -1.08713,-0.0112 -2.17426,-0.0224 -3.26139,-0.0336 -0.21273,5.43156 -0.35801,10.8743 -0.61282,16.29888 -0.32599,1.38108 -1.33277,2.45719 -1.98842,3.69059 -2.46821,4.0276 -4.93641,8.0552 -7.40462,12.0828 -0.39648,5.32422 -0.79296,10.64844 -1.18945,15.97265 -0.43035,0.57729 -0.52124,1.55552 -1.36148,1.6487 -1.06861,0.41135 -2.25828,0.15919 -3.38097,0.27411 -10.29679,0.26206 -20.59357,0.52412 -30.89036,0.78618 -5.32031,4.8431 -10.64063,9.6862 -15.96094,14.52929 3.89097,0.34173 7.79623,0.61675 11.6783,1.00004 1.36216,0.39023 2.39142,1.44137 3.59289,2.15062 4.19867,2.8378 8.39733,5.6756 12.596,8.51341 8.67969,0.0703 17.35937,0.14062 26.03906,0.21093 0.69212,0.3904 1.66386,0.5037 1.898,1.38659 3.41493,7.89844 6.87744,15.78134 10.26267,23.68948 0.31476,1.55042 0.15519,3.16103 0.26983,4.73685 0.17486,5.69582 0.34972,11.39165 0.52458,17.08748 1.44447,0.13096 2.91276,0.40686 4.3424,0.44758 4.11649,-1.95778 8.23784,-3.90485 12.43977,-5.67422 1.69761,-0.73956 3.39522,-1.47912 5.09283,-2.21868 -0.0707,0.31206 -0.83492,1.7526 -0.26718,1.02573 0.65964,-0.29415 0.0157,-1.29393 0.87255,-1.23654 0.49763,-0.20187 0.86862,-0.80116 1.58826,-0.62332 6.96679,-0.64706 13.95217,-1.05031 20.93137,-1.53501 3.10564,-0.88336 6.23484,-1.70925 9.32576,-2.62852 2.14952,-1.21837 4.36231,-2.36028 6.47258,-3.62608 1.9446,-2.38923 3.99625,-4.697 5.87205,-7.13859 1.75245,-2.52323 3.5049,-5.04647 5.25734,-7.5697 -0.0749,-2.94336 -0.14974,-5.88672 -0.22461,-8.83008 0.30579,-0.5066 0.35108,-1.26693 0.82848,-1.60638 1.15453,-0.68879 2.54375,-0.53219 3.82617,-0.7603 1.8228,-0.2085 3.6456,-0.417 5.4684,-0.6255 1.37624,-2.98193 2.87762,-5.91029 4.17258,-8.92701 0.86533,-2.3177 1.81862,-4.61769 2.62934,-6.94638 0.19428,-6.2857 0.38856,-12.57139 0.58285,-18.85708 0.33537,-0.4853 0.42043,-1.25151 0.92075,-1.5517 0.78,-0.39635 1.62198,-0.43514 2.47925,-0.3858 1.85737,0.0495 3.73136,-0.1023 5.57761,0.082 2.78299,0.88857 5.53888,1.88462 8.31145,2.81452 -2.22356,-2.1974 -4.49715,-4.35468 -6.68946,-6.57715 -0.8139,-1.20968 -1.01012,-2.7069 -1.53627,-4.05054 -0.50224,-1.62749 -1.11842,-3.24321 -1.5504,-4.87795 0.12079,-0.78113 -0.0197,-1.70839 0.74996,-2.19255 4.09401,-3.79852 8.18802,-7.59704 12.28203,-11.39556 -0.56376,-1.32427 -1.02129,-2.72499 -1.65047,-4.0022 -5.36326,-4.5507 -10.72651,-9.1014 -16.08977,-13.65209 -3.48276,0.0983 -6.975,0.27669 -10.45187,0.32497 -1.40933,-0.23695 -2.45211,-1.29125 -3.661,-1.97517 -3.77032,-2.43822 -7.54064,-4.87643 -11.31095,-7.31465 -6.60808,-0.26302 -13.21615,-0.52604 -19.82422,-0.78906 -0.60116,-0.40621 -1.54683,-0.4781 -1.73205,-1.28795 -0.47346,-1.39675 -0.60325,-2.90553 -0.94117,-4.34647 -0.14929,-0.75988 -0.29858,-1.51976 -0.44788,-2.27964 -5.94856,4.24414 -11.89713,8.48828 -17.8457,12.73242 z">
    <title
       id="title1003">Minas Gerais</title>
  </path>
  <path
     id="28"
     style="fill:#000000;stroke:none"
     d="m 687.87305,293.49609 c 0.26237,2.78125 0.52474,5.5625 0.78711,8.34375 2.4233,1.93693 4.80654,3.94174 7.25476,5.83646 1.50167,0.60985 3.00333,1.21971 4.505,1.82956 2.52357,-2.20236 5.09014,-4.36483 7.5869,-6.59205 2.06088,-2.77986 4.12176,-5.55973 6.18263,-8.33959 -3.15834,-0.46003 -6.30284,-1.0534 -9.47003,-1.42823 -2.89637,-0.12112 -5.79511,-0.35841 -8.69001,-0.40731 -2.71879,0.25247 -5.43758,0.50494 -8.15636,0.75741 z">
    <title
       id="title1045">Sergipe</title>
  </path>
  <path
     id="27"
     style="fill:#000000;stroke:none"
     d="m 697.56641,265.80078 c -2.32761,1.36017 -4.55632,2.90583 -7.05053,3.95562 -0.55755,0.26057 -1.29321,0.40842 -1.03103,1.18774 0.002,3.58177 0.005,7.16354 0.007,10.74531 2.44829,0.16518 4.92663,0.22144 7.35618,0.45457 0.55952,0.39778 1.50977,0.46787 1.55956,1.29315 0.46039,1.12757 0.0654,2.36654 0.10398,3.54905 -0.03,0.62373 -0.06,1.24747 -0.09,1.8712 2.55924,0.13607 5.11848,0.27214 7.67773,0.4082 0.0795,0.008 1.11312,0.13334 1.54088,0.19248 3.45223,0.42274 6.90765,0.93309 10.35789,1.30123 1.79481,-0.36574 3.58962,-0.73148 5.38443,-1.09722 0.25243,-1.91247 0.39642,-3.86206 0.71572,-5.75164 0.4329,-0.61828 0.64978,-1.50233 1.50182,-1.63808 2.08829,-0.57257 4.17659,-1.14514 6.26488,-1.7177 1.55093,-3.24142 3.17246,-6.46007 4.67927,-9.71571 0.0293,-0.51602 0.54666,-1.58612 -0.36205,-1.03732 -3.40181,1.02132 -6.77841,2.14196 -10.19612,3.10068 -4.27841,0.43579 -8.55756,0.93404 -12.8355,1.33091 -1.44231,-0.13859 -2.72416,-0.91654 -4.09274,-1.34891 -1.25204,-0.4806 -2.6087,-0.83886 -3.5307,-1.88381 -1.96495,-1.687 -3.91041,-3.39519 -5.69193,-5.27828 -0.55554,-0.17357 -1.26527,0.0677 -1.87858,0.0496 -0.13016,0.01 -0.26031,0.0193 -0.39047,0.029 z">
    <title
       id="title1047">Alagoas</title>
  </path>
  <path
     id="26"
     style="fill:#000000;stroke:none"
     d="m 652.91406,237.85547 c -0.067,3.41015 -0.13411,6.82031 -0.20117,10.23047 -0.37451,0.75341 -0.6065,1.61541 -1.38016,2.06474 -2.78474,2.39053 -5.56948,4.78106 -8.35421,7.17159 0.28152,0.91575 0.36649,1.9243 0.76784,2.78349 2.28832,3.07477 4.57665,6.14954 6.86497,9.22432 5.86653,-4.73307 11.73307,-9.46615 17.59961,-14.19922 0.75501,-0.11808 1.53983,-0.65675 2.25013,-0.144 3.44306,2.31188 6.81017,4.76201 10.22402,7.12707 2.20783,1.54861 4.41567,3.09722 6.6235,4.64584 3.09762,-1.56544 6.1682,-3.21641 9.28265,-4.7286 0.80174,-0.18812 1.59725,-0.17224 2.38587,0.0693 1.39238,0.37432 2.93953,0.34523 4.17505,1.15011 2.04765,1.7164 4.04281,3.528 6.12306,5.18525 1.78102,0.52135 3.55256,1.15777 5.33949,1.60732 3.93627,-0.55772 7.88977,-1.03544 11.8153,-1.64303 4.01441,-1.21005 8.05688,-2.35703 12.05378,-3.6065 1.24043,-0.75737 2.48086,-1.51474 3.72129,-2.27211 1.05021,-2.80246 2.1921,-5.58726 3.18504,-8.40077 0.0522,-3.61901 0.1045,-7.23802 0.15676,-10.85704 -1.66287,1.36026 -3.28191,2.79451 -4.972,4.10879 -1.13204,0.63002 -2.44034,0.4426 -3.68324,0.55847 -3.63901,0.18513 -7.27802,0.37027 -10.91703,0.5554 -3.51758,2.59505 -7.03516,5.1901 -10.55273,7.78515 -0.935,-0.23978 -1.92901,-0.36003 -2.82844,-0.67185 -0.56036,-0.62228 -0.69535,-1.55505 -1.08381,-2.3028 -1.94201,-4.72004 -3.88402,-9.44008 -5.82604,-14.16011 -3.49869,2.76367 -6.99739,5.52734 -10.49609,8.29101 -0.71648,0.0735 -1.49912,0.66912 -2.13574,0.11209 -1.02462,-0.51042 -1.64463,-1.55534 -2.48859,-2.30443 -1.57639,-1.62989 -3.15279,-3.25979 -4.72919,-4.88969 -2.33593,2.79688 -4.67187,5.59375 -7.00781,8.39063 -0.56012,0.16723 -1.10945,0.74521 -1.67668,0.64153 -0.7184,-0.29356 -1.48527,-0.51709 -1.93119,-1.20435 -3.3397,-3.53961 -6.67939,-7.07921 -10.01908,-10.61882 -4.09505,0.10026 -8.19011,0.20052 -12.28516,0.30078 z">
    <title
       id="title1049">Pernambuco</title>
  </path>
  <path
     id="25"
     style="fill:#000000;stroke:none"
     d="m 681.0332,222.67969 c 2.12696,4.66797 4.25391,9.33594 6.38086,14.0039 2.24154,2.31706 4.48308,4.63412 6.72461,6.95118 3.71875,-2.93816 7.4375,-5.87631 11.15625,-8.81446 0.92625,0.2064 1.90862,0.29176 2.80022,0.57289 0.62553,0.53078 0.69991,1.47106 1.08872,2.17773 1.97908,4.80969 3.95816,9.61938 5.93723,14.42907 3.02816,-2.20966 6.01976,-4.48792 9.07072,-6.65479 1.27671,-0.60049 2.72158,-0.35987 4.08776,-0.51281 3.45043,-0.1759 6.90086,-0.35181 10.35129,-0.52771 2.33398,-1.94792 4.66797,-3.89584 7.00195,-5.84375 0.0488,-3.94597 0.0977,-7.89193 0.14649,-11.83789 -8.1224,-1.6543 -16.24479,-3.3086 -24.36719,-4.96289 -0.0617,2.19543 -0.0118,4.41685 -0.14243,6.59622 -0.37235,0.53099 -0.37718,1.47271 -1.13893,1.5685 -1.09401,0.54429 -2.32387,0.16996 -3.49255,0.20932 -2.12761,-0.10874 -4.28356,-0.1069 -6.39366,-0.284 -0.57377,-0.38471 -1.49627,-0.44785 -1.61507,-1.25211 -0.44176,-1.10333 -0.29058,-2.34869 -0.47385,-3.51394 -0.14888,-1.69589 -0.29776,-3.39178 -0.44664,-5.08767 -4.38802,1.30144 -8.77604,2.60287 -13.16406,3.9043 -0.8339,-0.13227 -1.72985,-0.0931 -2.39196,-0.69989 -2.58744,-1.61827 -5.17489,-3.23653 -7.76234,-4.8548 -1.11914,1.47787 -2.23828,2.95573 -3.35742,4.4336 z">
    <title
       id="title1043">Paraíba</title>
  </path>
  <path
     id="24"
     style="fill:#000000;stroke:none"
     d="m 686.53711,214.98047 c 2.7487,1.58398 5.4974,3.16797 8.24609,4.75195 4.64388,-1.34831 9.28776,-2.69661 13.93164,-4.04492 0.83425,0.57958 1.77747,1.05199 2.54493,1.69727 0.31575,2.82421 0.63151,5.64843 0.94726,8.47265 1.7474,0.0905 3.49479,0.18099 5.24219,0.27149 0.0801,-2.39844 0.16016,-4.79688 0.24023,-7.19532 0.81108,-0.61193 1.55245,-1.36552 2.40625,-1.89062 8.56641,1.78581 17.13282,3.57161 25.69922,5.35742 0.11914,-1.84049 0.23828,-3.68099 0.35742,-5.52148 -1.06461,-1.54955 -2.23616,-3.04015 -3.23418,-4.62642 -0.54884,-1.29369 -0.52911,-2.74783 -0.82873,-4.11186 -0.45494,-2.81185 -0.90988,-5.6237 -1.36482,-8.43555 -8.55925,-0.10873 -17.11849,-0.21745 -25.67773,-0.32617 -1.39964,-0.28188 -2.40724,-1.35033 -3.5798,-2.0878 -2.99619,-2.10485 -5.99238,-4.2097 -8.98856,-6.31455 -5.31381,8.0013 -10.62761,16.00261 -15.94141,24.00391 z">
    <title
       id="title1039">Rio Grande do Norte</title>
  </path>
  <path
     id="23"
     style="fill:#000000;stroke:none"
     d="m 643.22852,160.24609 c -0.49586,0.0828 -1.3057,-0.10051 -1.60969,0.15156 3.79698,24.50482 7.59396,49.00964 11.39094,73.51446 4.25781,-0.13542 8.51562,-0.27083 12.77343,-0.40625 0.80054,0.29433 1.63905,0.52878 2.17094,1.24687 3.25878,3.12539 6.51755,6.25078 9.77633,9.37618 1.89193,-2.1823 3.78385,-4.36459 5.67578,-6.54688 -2.14583,-4.77734 -4.29167,-9.55469 -6.4375,-14.33203 0.15077,-0.88734 -0.0791,-1.90972 0.61674,-2.60368 7.33739,-10.82807 14.67478,-21.65614 22.01217,-32.48421 -8.54998,-8.99847 -18.25289,-17.20303 -29.64246,-22.35333 -1.3019,-0.58659 -2.64432,-1.14684 -3.88881,-1.61186 -6.14066,-2.32684 -12.65612,-3.65946 -19.21873,-3.91176 -0.73861,-0.0297 -1.77202,-0.0523 -2.62773,-0.0472 -0.33047,0.003 -0.66094,0.005 -0.99141,0.008 z">
    <title
       id="title1037">Ceará</title>
  </path>
  <path
     id="22"
     style="fill:#000000;stroke:none"
     d="m 611.83008,188.32812 c -0.23698,10.08073 -0.47396,20.16146 -0.71094,30.24219 -0.33118,0.48892 -0.41128,1.25293 -0.90793,1.56056 -0.79266,0.42958 -1.66643,0.44048 -2.54478,0.42771 -2.89138,0.0893 -5.79902,0.0928 -8.68023,0.23564 -10.1948,3.65038 -19.88224,9.28242 -27.141,17.42377 -1.36829,1.52513 -2.65954,3.15817 -3.79217,4.76404 -3.67735,5.22586 -6.41954,11.11871 -8.09737,17.27616 -0.092,6.71147 -0.18398,13.42293 -0.27597,20.13439 2.31372,-0.079 4.64635,-0.26993 6.94831,-0.27925 0.701,0.32577 1.62023,0.42139 1.89538,1.26092 1.98244,3.60767 3.96488,7.21534 5.94732,10.82302 4.42978,-2.49414 8.90007,-4.93355 13.30455,-7.46185 2.14718,-2.0622 4.29436,-4.1244 6.44155,-6.18659 -2.19532,-2.8405 -4.39063,-5.68099 -6.58594,-8.52149 0.19794,-0.77862 0.23757,-1.65117 0.53192,-2.37258 0.51474,-0.35522 0.90979,-1.03374 1.62075,-0.8589 12.67762,-0.18651 25.35525,-0.37302 38.03288,-0.55953 2.83789,-2.63216 5.67578,-5.26432 8.51367,-7.89649 0.77054,-0.19171 1.54301,-0.75655 2.33128,-0.32492 0.79644,0.41232 0.04,-0.83701 0.076,-1.23843 -0.23213,-0.68252 0.15058,-1.37719 0.21383,-2.06555 1.33187,-1.25964 2.91456,-2.23335 4.34774,-3.3775 1.93812,-1.4536 3.87625,-2.90719 5.81437,-4.36078 0.0416,-3.96158 0.17377,-7.92943 0.15866,-11.88707 -3.90185,-25.0383 -7.80369,-50.07659 -11.70553,-75.11489 -2.46289,-0.61588 -4.92579,-1.23177 -7.38868,-1.84765 -6.11588,10.06836 -12.23177,20.13672 -18.34765,30.20507 z">
    <title
       id="title1035">Piauí</title>
  </path>
  <path
     id="21"
     style="fill:#000000;stroke:none"
     d="m 542.84766,169.99805 c -0.70722,1.32582 -2.04357,2.12434 -3.07108,3.18172 -6.23737,5.70635 -12.47475,11.41271 -18.71213,17.11906 3.63802,2.39713 7.27604,4.79427 10.91407,7.1914 0.3664,0.79705 1.07501,1.50363 0.91234,2.44054 0.17245,11.53805 0.3449,23.0761 0.51734,34.61415 2.48698,1.98503 4.97396,3.97005 7.46094,5.95508 2.81421,0.11772 5.65588,0.12565 8.45296,0.31183 0.56883,0.3843 1.52002,0.43191 1.59,1.25549 0.48632,1.11508 0.12498,2.3624 0.1942,3.54255 -0.0722,2.01937 -0.0341,4.06523 -0.17513,6.06809 -0.37773,0.57565 -0.42213,1.51238 -1.23482,1.61684 -1.1031,0.48022 -2.35918,0.2293 -3.53312,0.37096 -1.31743,0.0567 -2.63486,0.11345 -3.95229,0.17018 0.23307,4.33528 0.46614,8.67057 0.69922,13.00586 2.60481,4.54817 5.20963,9.09635 7.81445,13.64453 1.52799,-0.0996 3.05599,-0.19922 4.58398,-0.29883 0.11301,-6.68242 0.15541,-13.37055 0.31252,-20.0494 0.84968,-3.41896 2.12876,-6.73288 3.58787,-9.93888 4.17554,-9.10142 10.82945,-17.00307 18.97086,-22.81411 5.96452,-4.30021 12.63228,-7.57702 19.55901,-10.00542 1.76324,-0.24537 3.56583,-0.12088 5.34499,-0.21664 1.23703,-0.029 2.47406,-0.0579 3.71108,-0.0869 0.22526,-9.62239 0.45052,-19.24479 0.67578,-28.86719 0.3153,-1.46268 1.36873,-2.59961 2.05634,-3.89798 5.43174,-8.94091 10.86348,-17.88181 16.29523,-26.82272 -8.29037,-2.55729 -16.58073,-5.11458 -24.8711,-7.67187 -0.8272,1.09804 -1.57754,2.28152 -2.45204,3.32699 -0.6821,0.33368 -1.307,0.99957 -2.12146,0.69535 -1.90772,-0.50543 -3.85116,-0.92943 -5.73677,-1.48525 -0.83025,-0.40871 -1.40431,-1.09554 -1.92486,-1.84044 -2.57267,-3.30904 -5.14533,-6.61808 -7.71799,-9.92712 -1.83315,-0.50613 -3.72083,-0.85206 -5.51937,-1.45983 -3.41386,-2.05932 -6.72127,-4.31246 -10.12358,-6.39751 -1.34391,-0.73134 -2.65441,-1.56365 -4.01879,-2.23312 -2.02617,-0.25175 -4.05233,-0.5035 -6.0785,-0.75525 -4.13672,13.41928 -8.27344,26.83855 -12.41015,40.25782 z">
    <title
       id="title1033">Maranhão</title>
  </path>
  <path
     id="17"
     style="fill:#000000;stroke:none"
     d="m 513.35742,197.38672 c 2.51237,0 5.02474,0 7.53711,0 0.5326,0.66798 1.21013,1.27225 1.65171,1.98024 0.15872,0.63852 0.0973,1.23428 -0.31924,1.76107 -2.00744,3.66284 -3.96064,7.35385 -5.7844,11.11204 -1.25717,2.58338 -2.62143,5.12047 -3.81136,7.73292 -3.53052,9.55536 -7.02724,19.12592 -10.57887,28.67179 -1.26411,1.97601 -2.75386,3.81014 -4.1062,5.73066 -5.0986,6.98358 -10.19719,13.96716 -15.29578,20.95073 -2.32682,9.65495 -4.65365,19.3099 -6.98047,28.96485 -0.0143,4.66015 -0.0286,9.32031 -0.043,13.98046 0.66902,0.29919 0.9561,-0.5287 1.41317,-0.85498 2.30368,-2.32438 4.60737,-4.64876 6.91105,-6.97314 0.76668,0.0949 1.61503,0.0121 2.33154,0.21612 0.41466,0.55192 1.27092,0.91415 1.10957,1.71351 0.18499,4.79429 0.36999,9.58858 0.55499,14.38287 2.79231,1.34505 5.58463,2.6901 8.37695,4.03516 1.51693,-2.13672 3.03385,-4.27344 4.55078,-6.41016 0.81036,-0.33772 1.54254,-1.0211 2.47365,-0.82486 1.51462,0.0556 3.04802,0.0178 4.551,0.13112 0.80909,0.24347 1.52322,0.64085 2.09246,1.273 1.98831,1.77827 3.97661,3.55654 5.96492,5.3348 5.41537,-0.0495 10.83073,-0.099 16.24609,-0.14844 6.17318,-3.33724 12.34636,-6.67447 18.51954,-10.01171 0.0319,-6.16537 0.0638,-12.33073 0.0957,-18.4961 -2.64779,0.0228 -5.29557,0.0456 -7.94336,0.0684 -0.48509,-0.61733 -1.15519,-1.16279 -1.5308,-1.82264 0.064,-0.65986 -0.26642,-1.45937 0.36254,-1.91924 3.84515,-4.60687 7.6903,-9.21375 11.53545,-13.82062 -1.37098,0.0708 -2.75816,0.25563 -4.11919,0.25633 -0.70727,-0.30724 -1.63185,-0.37496 -1.91662,-1.21298 -2.7492,-5.3051 -5.55193,-10.58927 -8.26771,-15.90744 -0.40357,-1.4319 -0.22778,-2.95501 -0.37383,-4.42745 -0.17721,-3.7342 -0.35442,-7.4684 -0.53164,-11.2026 0.29827,-0.5055 0.31602,-1.29269 0.79938,-1.61232 0.71261,-0.32104 1.43195,-0.60508 2.22785,-0.46841 2.01502,0.0302 4.03003,0.0603 6.04504,0.0905 0.0124,-1.68685 0.0247,-3.3737 0.0371,-5.06055 -2.13964,0.0112 -4.29412,0.11501 -6.42456,0.0688 -0.81378,-0.20584 -1.5363,-0.57534 -2.13083,-1.17432 -2.75498,-2.24412 -5.50995,-4.48824 -8.26492,-6.73236 -0.35824,-0.77206 -0.90114,-1.49832 -0.7618,-2.39378 -0.32289,-11.40455 -0.64578,-22.8091 -0.96867,-34.21364 -3.36394,-2.44336 -6.72787,-4.88672 -10.0918,-7.33008 -1.71419,1.52083 -3.42839,3.04167 -5.14258,4.5625 z">
    <title
       id="title1021">Tocantins</title>
  </path>
  <path
     id="53"
     style="fill:#000000;stroke:none"
     d="m 516.39648,380.76172 c 5.51368,-0.15039 11.02735,-0.30078 16.54102,-0.45117 0.0755,-2.88086 0.15104,-5.76172 0.22656,-8.64258 -5.46745,-0.91211 -10.93489,-1.82422 -16.40234,-2.73633 -0.12175,3.94336 -0.24349,7.88672 -0.36524,11.83008 z">
    <title
       id="title1051">Distrito Federal</title>
  </path>
  <path
     id="52"
     style="fill:#000000;stroke:none"
     d="m 478.41016,321.60352 c -0.8239,0.23088 -1.61925,0.7512 -2.49414,0.46484 0.14293,2.4185 0.39433,4.84047 0.46934,7.2568 -0.22452,1.4527 -0.93077,2.78851 -1.35715,4.19223 -0.58137,1.44801 -0.92757,3.00684 -1.68382,4.37323 -11.75477,15.71159 -23.50954,31.42318 -35.26431,47.13477 0.0527,8.91471 0.10547,17.82943 0.1582,26.74414 10.50456,8.12305 21.00912,16.2461 31.51367,24.36914 6.21485,-5.67448 12.42969,-11.34896 18.64453,-17.02344 0.76335,-0.35493 1.54048,-0.64341 2.39653,-0.55109 10.5052,-0.26422 21.01039,-0.52844 31.51558,-0.79266 0.38633,-4.90394 0.71137,-9.81984 1.13597,-14.71633 0.39496,-1.39709 1.39932,-2.51582 2.07552,-3.78444 2.41909,-3.9711 4.83817,-7.94219 7.25726,-11.91329 0.0397,-1.097 0.0794,-2.19401 0.11914,-3.29101 -6.11718,0.16145 -12.23437,0.32291 -18.35156,0.48437 -0.49932,-0.309 -1.28467,-0.34427 -1.59527,-0.83388 -0.30778,-0.7148 -0.57473,-1.43635 -0.42758,-2.22622 0.15215,-5.08869 0.3043,-10.17738 0.45645,-15.26607 0.33787,-0.4755 0.41245,-1.27171 0.92368,-1.53604 0.75843,-0.20662 1.51223,-0.51008 2.29409,-0.22774 6.49511,1.08532 12.99023,2.17065 19.48535,3.25597 0.89016,0.21441 1.89576,0.0611 2.83047,0.13358 0.5424,-0.0568 1.51254,0.32366 1.22735,-0.57928 0.0139,-2.67305 0.0279,-5.3461 0.0418,-8.01915 0.32286,-0.49337 0.38689,-1.26442 0.88041,-1.57469 0.7533,-0.38742 1.56118,-0.48552 2.39802,-0.43009 2.41631,-0.027 4.83261,-0.0541 7.24891,-0.0811 0.14974,-10.90821 0.29948,-21.81641 0.44922,-32.72461 -5.68172,3.06135 -11.33971,6.183 -17.03626,9.2067 -1.40147,0.42192 -2.89424,0.15238 -4.33859,0.24953 -4.66932,0.0432 -9.33864,0.0865 -14.00796,0.1297 -0.77289,-0.2674 -1.55515,-0.5193 -2.09414,-1.17321 -2.05261,-1.82963 -4.10521,-3.65926 -6.15781,-5.4889 -1.14844,-0.0234 -2.29688,-0.0469 -3.44532,-0.0703 -1.6712,2.31099 -3.26596,4.70553 -4.98484,6.9644 -0.63719,0.27251 -1.19348,0.99799 -1.93617,0.67975 -1.22384,-0.27446 -2.29147,-1.03497 -3.45001,-1.51262 -2.68232,-1.28864 -5.36463,-2.57727 -8.04694,-3.8659 -0.4886,-0.65886 -1.30363,-1.20414 -1.14755,-2.12825 -0.13702,-3.71767 -0.27403,-7.43533 -0.41105,-11.153 -1.76367,1.77474 -3.52734,3.54948 -5.29101,5.32422 z">
    <title
       id="title1017">Goiás</title>
  </path>
  <path
     id="50"
     style="fill:#000000;stroke:none"
     d="m 370.83789,403.69336 c -2.25978,3.21515 -4.57579,6.39983 -6.80042,9.63402 -1.52355,3.85637 -3.04711,7.71274 -4.57067,11.5691 0.16958,14.5245 0.37079,29.05049 0.52061,43.57405 -0.66897,3.35494 -1.53158,6.67721 -2.27549,10.01951 -0.14332,0.58636 -0.40138,1.18641 0.0651,1.69995 0.4734,0.94253 0.9468,1.88506 1.4202,2.82759 8.59244,-0.0189 17.18489,-0.0378 25.77734,-0.0566 0.48967,0.32112 1.27807,0.37285 1.57098,0.8714 0.28274,0.73959 0.54041,1.48226 0.35011,2.27993 0.21068,0.38446 1.17798,0.0778 1.68696,0.18973 0.99828,0.0691 2.04785,-0.084 3.01427,0.12311 0.6136,0.34278 1.45754,0.44981 1.62823,1.24591 0.42136,1.22701 0.60012,2.54087 0.92718,3.80164 1.64539,0.0498 3.31647,-0.0117 4.94593,0.10708 0.53133,0.37096 1.47238,0.37359 1.56961,1.1348 0.54777,1.093 0.1751,2.32413 0.21645,3.49313 -0.1841,5.07856 -0.3682,10.15713 -0.5523,15.23569 3.75456,-1.17643 7.50912,-2.35287 11.26367,-3.5293 9.19587,-7.94876 18.37168,-15.922 27.58008,-23.85547 4.72787,-3.26041 9.45573,-6.52083 14.1836,-9.78125 0.4069,-5.05208 0.8138,-10.10416 1.2207,-15.15625 0.24975,-0.85937 0.75678,-1.56218 1.37069,-2.19996 2.85104,-3.37215 5.70209,-6.74429 8.55314,-10.11644 0.71142,-0.36881 1.38921,-0.85056 2.22982,-0.78565 0.53844,-0.11679 1.49649,0.15214 1.21689,-0.71665 0.0223,-1.84299 0.0446,-3.68597 0.067,-5.52895 -10.76563,-8.32552 -21.53125,-16.65104 -32.29688,-24.97656 -3.72851,-0.0742 -7.45703,-0.14844 -11.18554,-0.22266 -0.48923,-0.32973 -1.25812,-0.40527 -1.56289,-0.90266 -0.40297,-0.78102 -0.45219,-1.62559 -0.40462,-2.48756 -0.0121,-2.58738 -0.0243,-5.17475 -0.0364,-7.76212 -1.7313,1.62264 -3.40725,3.33114 -5.17289,4.90051 -0.73378,0.32549 -1.46931,0.64194 -2.29,0.51791 -4.00542,-0.0186 -8.02352,0.0444 -12.02104,-0.025 -1.31908,-0.249 -2.25123,-1.27058 -3.34646,-1.96652 -2.98362,-2.12798 -5.96724,-4.25595 -8.95086,-6.38392 -5.49674,-0.12955 -10.99349,-0.25911 -16.49023,-0.38867 -1.14063,1.20573 -2.28125,2.41146 -3.42188,3.61719 z">
    <title
       id="title1009">Mato Grosso do Sul</title>
  </path>
  <path
     id="51"
     style="fill:#000000;stroke:none"
     d="m 343.42383,257.50195 c -0.57372,0.50589 -0.95003,1.36975 -1.82001,1.33837 -15.859,-0.0774 -31.72512,-0.23186 -47.58686,-0.3389 -0.89635,-0.29585 -0.72154,0.47364 -0.69609,1.09458 0.13393,10.34886 0.26786,20.69772 0.40179,31.04658 8.00065,-0.0195 16.0013,-0.0391 24.00195,-0.0586 0.4955,0.31902 1.26608,0.37719 1.58041,0.868 0.39426,0.747 0.49754,1.55213 0.45331,2.38674 0.0129,1.77959 0.1378,3.58078 0.0813,5.34698 -0.35276,0.58861 -0.34832,1.54127 -1.16718,1.65484 -1.08823,0.54607 -2.35392,0.25223 -3.52963,0.38427 -0.39183,0.13571 -1.83269,-0.24479 -1.24868,0.37112 1.02618,1.4231 2.05236,2.8462 3.07855,4.2693 2.46744,0.16081 4.93489,0.32162 7.40234,0.48243 0.50464,0.7212 1.15201,1.38766 1.56855,2.14264 0.18644,0.62816 -0.0697,1.1636 -0.40907,1.6816 -5.23871,9.74934 -10.47741,19.49868 -15.71612,29.24802 0.50781,1.61784 1.01562,3.23568 1.52344,4.85352 1.56404,0.56942 3.18782,1.04042 4.71515,1.67036 0.53673,0.56311 1.36043,0.99748 1.28438,1.88858 0.215,3.24988 0.43,6.49977 0.645,9.74965 -0.34522,0.63226 -0.29858,1.61308 -1.1169,1.82451 -1.03654,0.59903 -2.34646,0.43319 -3.43994,0.83184 -0.70241,0.59372 -1.40482,1.18744 -2.10722,1.78115 1.43524,2.39931 2.96125,4.75446 4.33953,7.18149 0.4957,1.53632 0.58251,3.18242 0.91069,4.76372 0.37297,2.21162 0.74594,4.42325 1.11892,6.63487 8.52799,-0.0306 17.05599,-0.0612 25.58398,-0.0918 0.60928,0.38422 1.59254,0.39836 1.75031,1.22936 0.49083,1.03307 0.33648,2.23697 0.53974,3.34618 0.19012,1.5645 0.28377,3.15802 0.53342,4.7046 0.59321,1.08207 1.10052,2.23389 1.74608,3.27346 2.14713,1.7854 4.35678,3.51516 6.46485,5.3353 0.86352,1.03756 0.92598,2.42541 1.31988,3.66833 0.94376,3.62285 1.88751,7.2457 2.83127,10.86855 0.41388,0.21927 1.04791,1.39503 1.19174,0.44092 0.45716,-1.20946 0.93621,-2.41693 1.78285,-3.41527 2.1445,-3.0048 4.22087,-6.06284 6.40831,-9.0341 1.3853,-1.43503 2.70614,-2.96299 4.13122,-4.34069 0.74977,-0.30705 1.47451,-0.747 2.31531,-0.57068 5.72737,0.15707 11.46848,0.23581 17.18726,0.44183 1.38342,0.31634 2.37111,1.40839 3.54122,2.14286 2.8941,2.06679 5.78821,4.13358 8.68232,6.20037 3.8405,0 7.68099,0 11.52149,0 1.86186,-1.74126 3.62877,-3.59424 5.55061,-5.26502 0.84641,-0.592 1.69282,-1.184 2.53923,-1.776 0.7809,0.23592 1.65614,0.32592 2.37818,0.65286 0.38438,0.51501 0.95729,0.96438 0.77124,1.678 0.0146,3.49453 0.0293,6.98906 0.0439,10.4836 2.55599,0.0586 5.11198,0.11718 7.66797,0.17578 -0.0501,-8.80534 -0.10026,-17.61068 -0.15039,-26.41602 0.19546,-0.85257 0.59622,-1.59821 1.17693,-2.25011 11.58555,-15.4941 23.17111,-30.98821 34.75666,-46.48231 0.76775,-2.24087 1.64437,-4.46684 2.34461,-6.71695 -0.22072,-2.89303 -0.36595,-5.80245 -0.63357,-8.6853 -0.20478,-1.11478 -0.0248,-2.29854 -0.079,-3.44031 0.0378,-4.34575 -0.0159,-8.69707 0.0791,-13.03934 2.17205,-9.21417 4.42681,-18.41353 6.63067,-27.62201 -38.42839,-5.18619 -76.85677,-10.37239 -115.28516,-15.55859 -0.67415,-0.60792 -1.67249,-0.96289 -1.8855,-1.93061 -3.36043,-7.83953 -6.72086,-15.67907 -10.08129,-23.51861 -2.54102,7.47135 -5.08204,14.94271 -7.62305,22.41406 z">
    <title
       id="title1019">Mato Grosso</title>
  </path>
  <path
     id="15"
     style="fill:#000000;stroke:none"
     d="m 400.56641,67.351562 c -1.74287,0.149573 -3.49965,-0.130135 -5.24829,-0.158891 -2.26034,-0.115656 -4.52067,-0.231312 -6.78101,-0.346968 -0.15899,2.921927 -0.20885,5.87268 -0.43605,8.776586 -0.38983,0.569238 -0.45794,1.497269 -1.26749,1.598403 -1.05852,0.442658 -2.25671,0.220525 -3.3779,0.3649 -7.3127,0.377069 -14.6254,0.754137 -21.93809,1.131205 -1.56866,1.367879 -3.08992,2.811153 -4.68802,4.132201 -0.72246,0.384427 -1.49218,0.565693 -2.31042,0.538456 -3.94909,0.247151 -7.89818,0.494302 -11.84726,0.741452 -1.51433,5.434896 -3.02865,10.869792 -4.54297,16.304684 3.60416,7.94922 7.20833,15.89844 10.8125,23.84766 11.93685,4.70378 23.87369,9.40755 35.81054,14.11133 0.33634,0.4789 1.05456,0.81774 1.13906,1.38901 -0.0223,0.80252 -0.0551,1.60215 -0.54793,2.27454 -13.24326,25.8654 -26.48653,51.73081 -39.7298,77.59621 2.34051,3.10585 4.76497,6.15563 7.05284,9.29663 3.84091,8.82905 7.59088,17.70374 11.39681,26.55035 0.28332,0.50408 0.3961,1.23251 0.78032,1.60386 38.22022,5.14399 76.44044,10.28798 114.66066,15.43198 6.35221,-8.42709 12.70442,-16.85417 19.05664,-25.28125 3.56482,-9.64504 7.10064,-19.30167 10.68359,-28.93946 2.79491,-5.52185 5.4217,-11.13056 8.39063,-16.5625 -3.15495,0 -6.3099,0 -9.46485,0 -0.45595,-0.59269 -1.10323,-1.12064 -1.43876,-1.75408 0.0886,-0.59093 -0.0141,-1.27572 0.18945,-1.81021 3.15016,-2.78586 6.30032,-5.57172 9.45048,-8.35758 0.42165,-0.82881 1.32352,-1.30094 1.94377,-1.98223 6.98684,-6.3985 13.97369,-12.797 20.96053,-19.19551 4.15365,-13.45182 8.30729,-26.90364 12.46094,-40.35546 -1.88021,-2.62891 -3.76042,-5.25782 -5.64063,-7.88672 -6.96093,0.0618 -13.92187,0.12369 -20.88281,0.18554 -1.01495,3.21701 -1.94955,6.47462 -3.01453,9.66635 -0.4271,0.70507 -0.99481,1.26383 -1.7201,1.65863 -1.41915,0.93051 -2.79522,1.96773 -4.24087,2.83262 -0.73976,0.0723 -1.52511,0.48338 -2.18466,-0.0404 -1.57877,-1.12044 -3.15755,-2.24088 -4.73632,-3.36133 -0.32434,-0.82953 -1.03461,-1.57954 -0.80243,-2.52373 0.157,-2.93365 0.23619,-5.88267 0.44156,-8.80676 0.34353,-1.37632 1.45739,-2.33942 2.21558,-3.49331 1.06471,-1.42592 2.12941,-2.85184 3.19411,-4.27776 -5.32812,-0.35156 -10.65625,-0.70312 -15.98437,-1.05469 -0.75034,-0.48234 -1.67988,-0.77806 -2.03817,-1.66871 -0.38441,-0.59676 -0.76882,-1.19352 -1.15324,-1.79027 -2.60974,-0.0515 -5.24453,0.008 -7.8387,-0.11252 -0.58993,-0.36638 -1.49317,-0.41364 -1.67447,-1.19622 -0.4786,-1.20008 -0.55617,-2.53649 -0.87617,-3.79049 -0.37738,-1.84909 -0.75476,-3.698171 -1.13214,-5.547256 -6.14714,5.797526 -12.29427,11.595056 -18.44141,17.392576 -0.16211,3.96094 -0.32422,7.92188 -0.48633,11.88281 -0.34042,0.48023 -0.43087,1.25017 -0.93588,1.53964 -0.77505,0.35723 -1.59114,0.42877 -2.43166,0.3303 -2.47398,-0.11712 -4.97905,-0.11805 -7.43369,-0.30741 -0.73786,-0.41378 -1.60485,-0.67868 -1.98825,-1.50106 -11.05259,-15.1813 -22.10519,-30.362592 -33.15778,-45.543888 -3.65104,-0.218098 -7.30208,-0.436197 -10.95313,-0.654296 -0.58302,-0.422011 -1.5649,-0.49758 -1.66632,-1.337897 -0.43101,-1.099779 -0.18446,-2.330085 -0.31322,-3.488091 -0.10968,-3.158916 -0.21937,-6.317831 -0.32905,-9.476747 -1.65495,0.475261 -3.3099,0.950521 -4.96484,1.425781 z">
    <title
       id="title1029">Pará</title>
  </path>
  <path
     id="16"
     style="fill:#000000;stroke:none"
     d="m 444.22461,68.355469 c -0.64141,0.428075 -1.1406,1.218967 -2.00195,1.085937 -10.87956,-1.184896 -21.75912,-2.369791 -32.63868,-3.554687 0.125,3.602864 0.25,7.205729 0.375,10.808593 3.36003,0.201172 6.72006,0.402344 10.08008,0.603516 0.74393,0.437903 1.63672,0.706318 2.02778,1.545945 11.04738,15.173487 22.09476,30.346977 33.14214,45.520457 1.89388,0.0671 3.78776,0.13412 5.68164,0.20118 0.14584,-3.57032 0.29167,-7.14063 0.4375,-10.71094 0.33578,-0.72847 0.57502,-1.52599 1.27977,-1.99053 6.92693,-6.53245 13.85386,-13.064907 20.78078,-19.597362 1.4077,-2.512535 2.89902,-4.994423 4.25466,-7.52604 0.31485,-1.688586 0.62971,-3.377171 0.94456,-5.065757 -1.67838,-2.551432 -3.35677,-5.102864 -5.03516,-7.654297 -3.20898,-0.266276 -6.41796,-0.532552 -9.62695,-0.798828 -0.6461,-0.434097 -1.57136,-0.605225 -1.76367,-1.466797 -3.21029,-11.789713 -6.42057,-23.579427 -9.63086,-35.36914 -0.66067,-0.147902 -1.28812,-0.233869 -1.42932,0.586986 -5.62577,11.127255 -11.25155,22.254509 -16.87732,33.381764 z">
    <title
       id="title1031">Amapá</title>
  </path>
  <path
     id="14"
     style="fill:#000000;stroke:none"
     d="m 300.41602,29.832031 c -0.72101,0.432751 -1.38053,1.03367 -2.27402,0.994646 -2.5877,0.364415 -5.1754,0.72883 -7.76309,1.093245 -1.03591,1.248514 -2.0012,2.583521 -3.08115,3.7781 -0.72182,0.364248 -1.40871,0.857077 -2.25885,0.748836 -3.14969,0.176568 -6.29938,0.353136 -9.44907,0.529704 -0.66666,1.648438 -1.33333,3.296875 -2,4.945313 -0.97331,0.275158 -1.92243,0.790558 -2.91113,0.91302 -1.23812,-0.757364 -2.42933,-1.637686 -3.64941,-2.442317 -3.09676,-0.02077 -6.21323,0.05983 -9.29774,-0.02394 -0.75952,-0.279745 -1.52405,-0.551842 -2.0231,-1.229495 -1.48156,-1.405565 -2.89992,-2.915304 -4.42067,-4.256243 -3.74016,-1.186325 -7.43277,-2.528416 -11.21162,-3.587983 2.31255,2.276646 4.70231,4.497935 6.96675,6.809069 0.4259,0.733084 0.68024,1.512805 0.66121,2.366839 0.60969,6.973265 1.21938,13.94653 1.82907,20.919795 3.46019,-0.02651 6.93691,-0.149442 10.38676,-0.115695 0.74932,0.241585 1.48449,0.506828 2.00764,1.126898 2.58728,2.282724 5.17457,4.565448 7.76185,6.848172 0.38132,0.763453 0.83185,1.509201 0.72651,2.39715 0.11265,2.217877 0.2253,4.435754 0.33795,6.653631 2.2513,2.703776 4.5026,5.407552 6.7539,8.111328 0.25681,0.817576 0.58883,1.628237 0.34219,2.49209 -0.19017,1.282574 -0.18691,2.611322 -0.4985,3.864907 -0.47029,1.278359 -1.47152,2.278333 -2.17774,3.432989 -1.50779,2.174172 -3.01558,4.348345 -4.52337,6.522515 2.70117,2.88672 5.40234,5.77344 8.10352,8.66016 0.33129,0.7356 0.66905,1.4698 0.57073,2.29826 0.0793,2.35696 0.15857,4.71392 0.23786,7.07088 2.43164,1.82356 4.86328,3.64713 7.29492,5.4707 0.93555,-0.21289 1.8711,-0.42578 2.80664,-0.63867 1.65104,-4.34115 3.30209,-8.68229 4.95313,-13.02344 0.60432,-0.50854 1.04321,-1.37844 1.94572,-1.2974 3.27786,-0.201 6.55572,-0.40199 9.83357,-0.60299 2.8073,-4.00716 5.61459,-8.01432 8.42188,-12.021485 0.83476,-0.326492 1.58953,-1.044678 2.53918,-0.808635 5.68746,0.29168 11.37492,0.583361 17.06238,0.875041 1.41276,-4.873698 2.82552,-9.747396 4.23828,-14.621093 -3.64518,-0.279297 -7.29036,-0.558594 -10.93554,-0.837891 -0.63408,-0.430042 -1.56192,-0.581594 -1.75555,-1.42919 -0.49528,-1.77162 -0.94458,-3.560235 -1.42219,-5.338388 -2.96289,-2.447917 -5.92578,-4.895834 -8.88867,-7.34375 -0.27936,-0.829321 -0.90707,-1.605064 -0.64649,-2.517433 1.1836,-13.050179 2.36719,-26.100357 3.55079,-39.150536 -0.79755,-0.324004 -1.7124,-0.449467 -2.43776,-0.895657 -0.48346,-0.512211 -1.24766,-0.870717 -1.19208,-1.678042 0.0154,-2.463161 0.19272,-4.937393 0.27046,-7.404817 -0.43629,-0.511361 -0.76278,-1.236553 -1.26797,-1.613738 -1.38984,-0.0064 -2.77968,-0.01272 -4.16953,-0.01907 -3.11588,4.658203 -6.23177,9.316406 -9.34765,13.974609 z">
    <title
       id="title1041">Roraima</title>
  </path>
  <path
     id="11"
     style="fill:#000000;stroke:none"
     d="m 221.36328,270.08789 c 1.6288,-0.0405 3.05843,0.87764 4.57687,1.33886 1.29058,0.50733 2.83209,0.8144 3.57084,2.11843 0.71018,1.05053 1.53226,2.0544 2.1741,3.13342 0.12612,0.82759 0.43828,1.66452 0.0357,2.46557 -0.71463,2.63813 -1.51541,5.26671 -2.17657,7.91078 0.1643,3.19587 0.32861,6.39175 0.49291,9.58763 2.24404,3.25047 4.44406,6.53873 6.71556,9.76563 2.28274,2.11512 4.5257,4.28532 6.83321,6.36616 5.09742,2.75561 10.16706,5.57075 15.28186,8.28913 7.16732,2.80888 14.31899,5.66351 21.49611,8.44377 8.84161,2.58351 17.68321,5.16703 26.52482,7.75054 4.79688,-9.10612 9.59375,-18.21224 14.39063,-27.31836 -1.7822,-0.14479 -3.59729,-0.17747 -5.35897,-0.39218 -0.71975,-0.4169 -1.5595,-0.69858 -1.93107,-1.50777 -1.84538,-2.55939 -3.69076,-5.11878 -5.53614,-7.67817 0.22472,-0.78797 0.30455,-1.66604 0.62032,-2.39737 0.48278,-0.34451 0.86906,-0.94613 1.53993,-0.78955 1.81898,-0.0575 3.63796,-0.11497 5.45694,-0.17246 -0.0195,-0.85481 -0.0391,-1.70963 -0.0586,-2.56445 -7.99154,0.20964 -15.98307,0.41927 -23.97461,0.62891 -0.50175,-0.30807 -1.27969,-0.34619 -1.5992,-0.83237 -0.35011,-0.70894 -0.55472,-1.44668 -0.46771,-2.24215 -0.14306,-11.09756 -0.28612,-22.19511 -0.42918,-33.29267 -1.77045,-0.21801 -3.57079,-0.33897 -5.32266,-0.61728 -0.72057,-0.34996 -1.434,-0.70876 -1.86745,-1.41433 -3.70812,-4.39115 -7.41623,-8.78231 -11.12435,-13.17347 -3.1888,-0.015 -6.3776,-0.0299 -9.5664,-0.0449 -13.4323,8.87956 -26.86459,17.75911 -40.29688,26.63867 z">
    <title
       id="title1107">Rondônia</title>
  </path>
  <path
     id="13"
     style="fill:#000000;stroke:none"
     d="m 261.15625,71.423828 c -0.35925,0.469835 -0.48686,1.221209 -0.99864,1.505665 -1.22638,0.560574 -2.5925,0.244564 -3.8955,0.324496 -2.06133,-0.0013 -4.12266,-0.0027 -6.18399,-0.004 -0.33851,1.915691 -0.55243,3.886156 -0.96837,5.767811 -0.59148,0.641559 -0.96014,1.580023 -1.8974,1.760823 -6.20082,2.515871 -12.38777,5.076775 -18.59726,7.564509 -1.57394,0.288235 -3.20019,0.142927 -4.79564,0.252886 -8.15271,0.243381 -16.30542,0.486762 -24.45812,0.730143 -0.75874,-0.446528 -1.74855,-0.62136 -2.15143,-1.486288 -1.90931,-2.697264 -3.88517,-5.359786 -5.75308,-8.078669 -0.58135,-1.26647 -0.35662,-2.696205 -0.52055,-4.047223 -0.11612,-1.965211 -0.23225,-3.930422 -0.34838,-5.895633 -1.76583,1.432669 -3.46222,2.972056 -5.27117,4.33845 -1.00704,0.56796 -2.2013,0.603685 -3.29914,0.913503 -0.74501,-0.223794 -1.67771,-0.114689 -2.11914,-0.876953 -0.64453,-1.009765 -1.28907,-2.019531 -1.9336,-3.029297 -0.48694,0.165071 -0.22147,1.127791 -0.41786,1.600884 -0.30831,0.484244 -0.57588,1.092148 -0.98415,1.474109 -1.34838,0.537458 -2.83282,0.263021 -4.25033,0.387932 -6.61914,0.176421 -13.23828,0.352842 -19.85742,0.529263 -0.56445,3.397786 -1.12891,6.795573 -1.69336,10.193359 2.20056,0.121493 4.42995,0.132686 6.61264,0.322537 0.56473,0.390292 1.51543,0.447912 1.57659,1.272233 0.47482,1.120545 0.0998,2.364294 0.15609,3.54551 -0.0639,1.069891 -0.0147,2.168249 -0.14752,3.220812 -0.38506,0.567958 -0.43405,1.518874 -1.25767,1.587087 -1.11804,0.487698 -2.36692,0.117836 -3.54966,0.181471 -3.10151,-0.08358 -6.20302,-0.167162 -9.30453,-0.250743 -0.11654,2.486979 -0.23308,4.973954 -0.34961,7.460934 2.23703,2.67042 4.55228,5.2947 6.74052,7.9939 0.36265,0.74572 0.53067,1.52922 0.46437,2.35818 0.13671,5.58419 0.19597,11.17567 0.38107,16.7553 0.95134,5.74454 1.96838,11.48622 2.87869,17.23254 -0.0582,1.46597 -0.80635,2.78994 -1.1903,4.18887 -2.82908,8.37452 -5.65816,16.74904 -8.48724,25.12356 -0.57325,0.50497 -0.94657,1.37785 -1.81985,1.33069 -5.00831,-0.11135 -10.02647,-0.36298 -15.03856,-0.52827 -0.68338,-0.14358 -1.23485,0.004 -1.55462,0.66187 -2.09149,2.57571 -4.18298,5.15141 -6.27447,7.72711 -0.82769,0.28664 -1.59878,0.9215 -2.51412,0.6689 -2.5962,-0.2132 -5.19241,-0.4264 -7.78862,-0.6396 -1.33724,2.09961 -2.67448,4.19922 -4.01172,6.29883 -0.79641,0.37684 -1.49779,1.09881 -2.4404,0.94469 -1.93653,0.0458 -3.873064,0.0916 -5.809597,0.13734 -0.316406,3.32422 -0.632812,6.64844 -0.949219,9.97266 -0.441316,0.57069 -0.554462,1.53947 -1.39199,1.62954 -1.122065,0.37706 -2.352867,0.16748 -3.521938,0.29094 -0.876417,-0.23639 -0.504963,0.78983 -0.624402,1.31936 -0.31363,6.07182 -0.565162,12.15412 -0.917564,18.21939 -0.141227,0.79115 -0.613879,1.44085 -0.997231,2.12866 38.834631,15.93619 77.669271,31.87239 116.503911,47.80859 2.8123,-1.58247 5.69987,-3.04012 8.46292,-4.70427 15.12889,-9.99701 30.25779,-19.99403 45.38669,-29.99104 1.33893,-0.56212 2.80371,-0.24683 4.21324,-0.31673 2.68579,0.0413 5.39669,-0.0293 8.06681,0.0817 0.74142,0.35709 1.5742,0.59477 2.00796,1.35402 3.76011,4.44861 7.52023,8.89723 11.28034,13.34584 1.69598,0.15937 3.40719,0.44315 5.09376,0.52575 1.0175,-0.4768 2.17809,-0.13938 3.26398,-0.227 15.40289,0.11526 30.80578,0.23052 46.20867,0.34578 2.8112,-8.26692 5.6224,-16.53385 8.43359,-24.80078 -2.28906,-2.99544 -4.57812,-5.99088 -6.86718,-8.98633 -0.12869,-0.80037 -0.61855,-1.65455 -0.0547,-2.394 13.20053,-25.78793 26.40105,-51.57587 39.60158,-77.36381 -11.50976,-4.53906 -23.01953,-9.07812 -34.5293,-13.61719 -0.57694,-0.5547 -1.24903,-1.04195 -1.45847,-1.85727 -3.4839,-7.71033 -6.96779,-15.42067 -10.45168,-23.13101 -5.77149,-0.28906 -11.54297,-0.57812 -17.31445,-0.86719 -2.778,3.9668 -5.55599,7.9336 -8.33399,11.9004 -0.77782,0.39954 -1.48917,1.02682 -2.41993,0.90244 -2.94401,0.17315 -5.88801,0.34629 -8.83202,0.51943 -1.63086,4.2806 -3.26172,8.5612 -4.89258,12.8418 -0.70625,0.52912 -1.24977,1.37923 -2.20592,1.41545 -1.35791,0.27938 -2.71515,0.67451 -4.07349,0.88191 -0.80508,-0.18362 -1.67397,-0.22751 -2.26769,-0.87388 -2.67766,-2.01616 -5.35532,-4.03232 -8.03298,-6.04848 -0.37526,-0.782 -0.97253,-1.50537 -0.82717,-2.42482 -0.0882,-2.45995 -0.17642,-4.91991 -0.26463,-7.37987 -2.89257,-3.0957 -5.78515,-6.19141 -8.67773,-9.28711 -0.14098,-0.71093 -0.7689,-1.42851 -0.32198,-2.13141 0.59795,-1.2526 1.55339,-2.319758 2.29555,-3.497558 1.63446,-2.367167 3.26892,-4.734334 4.90338,-7.101501 0.11459,-1.082031 0.22917,-2.164062 0.34375,-3.246093 -2.20278,-2.703109 -4.47872,-5.363318 -6.63586,-8.093198 -0.63517,-1.161344 -0.43266,-2.502512 -0.55903,-3.773082 -0.0828,-1.59275 -0.16564,-3.185501 -0.24847,-4.778252 -1.63997,-1.432942 -3.27994,-2.865885 -4.91992,-4.298828 -0.11718,1.395833 -0.23437,2.791667 -0.35156,4.1875 z">
    <title
       id="title1011">Amazonas</title>
  </path>
  <path
     id="12"
     style="fill:#000000;stroke:none"
     d="m 82.388672,245.54492 c 1.926697,1.41095 3.94786,2.73989 5.815575,4.20205 0.33868,0.75885 0.969372,1.44573 0.797596,2.33036 0.0098,2.06602 0.01961,4.13204 0.02941,6.19806 4.125,4.55143 8.25,9.10287 12.375,13.6543 2.80013,0.043 5.60026,0.0859 8.40039,0.1289 0.60133,0.39614 1.58523,0.42899 1.72469,1.26374 0.47359,1.04639 0.28388,2.25154 0.45917,3.36933 0.0943,1.19132 0.18863,2.38264 0.28294,3.57396 3.91992,-0.0976 7.83984,-0.19531 11.75976,-0.29296 1.21904,-1.51681 2.38143,-3.09452 3.6356,-4.57357 1.01246,-0.88175 2.39159,-0.98334 3.61633,-1.4134 1.91863,-0.56098 3.83726,-1.12197 5.75589,-1.68296 0.78328,0.53867 1.66277,0.98684 2.38649,1.58154 0.37331,0.72273 0.10123,1.61732 0.20124,2.41282 0.0932,7.19329 0.1863,14.38658 0.27945,21.57986 13.63151,-0.0742 27.26302,-0.14843 40.89453,-0.22265 -0.007,-1.5737 -0.1708,-3.16601 -0.0804,-4.72816 0.23456,-1.31706 1.21447,-2.30786 1.83622,-3.45544 0.82317,-0.088 1.67518,-0.35107 2.48107,-0.33428 0.54686,0.28774 1.18754,0.48534 1.32192,1.16937 0.13001,0.90619 0.92596,0.1894 1.47204,0.0816 0.86019,-0.0243 0.64105,-0.8154 0.66347,-1.43492 0.11029,-1.06969 -0.23423,-2.24373 0.37016,-3.20006 0.1477,-0.68051 0.65501,-0.98325 1.28829,-1.15365 1.33574,-0.27316 2.74596,-0.23153 4.11045,-0.38317 0.56888,-0.11415 1.49498,0.1833 1.41156,-0.68244 0.32841,-1.29082 0.49238,-2.64722 0.92185,-3.89773 0.56329,-1.24074 1.82051,-1.89008 2.77315,-2.79901 0.92868,-0.47698 0.28321,-0.71101 -0.40707,-0.93812 -37.49892,-15.65844 -74.98865,-31.34038 -112.4933,-46.98413 -1.12187,-0.37611 -2.200806,-0.96821 -3.419069,-0.85941 -0.71058,-0.1255 -0.220477,1.02598 -0.382283,1.48412 -0.09405,5.33536 -0.188104,10.67073 -0.282156,16.00609 z">
    <title
       id="title1105">Acre</title>
  </path>
</svg>
