<?xml version="1.0" encoding="UTF-8" standalone="no"?>
<svg
   xmlns:dc="http://purl.org/dc/elements/1.1/"
   xmlns:cc="http://creativecommons.org/ns#"
   xmlns:rdf="http://www.w3.org/1999/02/22-rdf-syntax-ns#"
   xmlns:svg="http://www.w3.org/2000/svg"
   xmlns="http://www.w3.org/2000/svg"
   xmlns:sodipodi="http://sodipodi.sourceforge.net/DTD/sodipodi-0.dtd"
   xmlns:inkscape="http://www.inkscape.org/namespaces/inkscape"
   version="1.1"
   width="850"
   height="850"
   id="svg2"
   sodipodi:docname="MesoES.svg"
   inkscape:version="1.0 (4035a4fb49, 2020-05-01)">
  <sodipodi:namedview
     inkscape:document-rotation="0"
     pagecolor="#ffffff"
     bordercolor="#666666"
     borderopacity="1"
     objecttolerance="10"
     gridtolerance="10"
     guidetolerance="10"
     inkscape:pageopacity="0"
     inkscape:pageshadow="2"
     inkscape:window-width="1366"
     inkscape:window-height="705"
     id="namedview914"
     showgrid="false"
     inkscape:zoom="0.54115914"
     inkscape:cx="492.88629"
     inkscape:cy="443.24735"
     inkscape:window-x="-8"
     inkscape:window-y="-8"
     inkscape:window-maximized="1"
     inkscape:current-layer="svg2" />
  <defs
     id="defs4" />
  <metadata
     id="metadata7">
    <rdf:RDF>
      <cc:Work
         rdf:about="">
        <dc:format>image/svg+xml</dc:format>
        <dc:type
           rdf:resource="http://purl.org/dc/dcmitype/StillImage" />
        <dc:title></dc:title>
      </cc:Work>
    </rdf:RDF>
  </metadata>
  <path
     d="m 338.45703,527.49609 c -19.58527,19.93017 -37.14049,51.30771 -66.21735,51.85553 -13.06676,27.00422 -30.60192,-44.17289 -48.62459,-18.64178 -17.33004,6.16443 -54.91826,23.05495 -55.39634,44.99717 -7.1792,11.22892 -4.17609,36.06402 -14.48047,50.04297 20.64443,2.46929 -18.66046,22.97839 4.79297,24.29883 -22.86037,17.43864 -41.06054,36.86718 -70.582867,26.01434 -28.119528,3.48659 -2.319166,50.18592 -0.03385,15.93056 22.237773,-7.2868 61.671033,-26.04013 81.610733,-3.2157 21.65144,16.6164 55.81264,31.2831 70.81958,3.6746 17.13193,16.15331 65.17923,0.87505 32.69064,-17.60163 -19.22315,-15.29339 -10.87524,-38.26777 9.1003,-40.82528 24.17738,5.26863 5.1904,-23.4446 22.69557,-9.52322 46.80547,0.21885 -13.28909,49.34778 2.57401,64.14637 28.83888,7.25454 62.91984,2.9013 90.66104,-4.20942 -23.45825,-11.26895 26.09648,-40.65707 43.52929,-27.75805 6.43153,-20.90767 -26.62811,-15.70591 -20.9653,-40.88519 -31.46994,-12.68951 23.67455,-74.82202 -23.81778,-51.11089 -31.09061,-4.92812 -0.29539,-80.63795 -41.44729,-54.06967 -13.77968,-4.7524 5.13645,-16.66172 -16.9083,-13.11954 z m -51.99805,154.88672 c -2.92256,6.20562 7.14889,0.49822 0,0 z m -8.01953,4.08399 0.60157,0.14453 z m -159.66992,30.75195 c -6.15369,4.79678 7.20277,1.82965 0,0 z m 8.70313,1.25781 c -1.09657,7.32664 6.81583,-1.84121 0,0 z m 4.86718,-0.4375 c -1.84281,3.9499 2.53433,-0.57539 0,0 z m -14.75214,0.30669 -0.0137,0.0391 z m 19.97656,0.2773 c 5.51285,9.0903 6.28596,-0.52428 0,0 z m -35.31836,2.2793 c 0.36089,6.5491 6.07179,-0.53921 0,0 z m 18.65625,2 c -1.31507,2.63033 3.84492,0.065 0,0 z m 122.01954,3.78711 c -4.5242,3.25438 3.8971,2.995 0,0 z m -113.62696,0.0371 c -2.90331,4.30957 4.77953,0.83699 0,0 z m -2.20312,1.25 c -2.04878,4.38009 3.67991,-0.0638 0,0 z m 2.38867,1.23047 c -2.6222,3.73548 3.09333,1.56184 0,0 z m -28.2793,0.22656 c -0.42239,1.56952 1.44008,-0.45872 0,0 z m 19.47461,2.95313 c -1.50182,2.31592 2.0174,0.23695 0,0 z m -0.54687,0.0117 c -2.09098,0.7215 1.59352,1.92295 0,0 z m 0.38671,4.3164 c -3.33418,2.65451 2.93121,3.71457 0,0 z m 1.47852,0.0957 c -2.46909,4.26348 4.39002,-0.3287 0,0 z M 87,736.83008 c -1.560733,1.14623 1.818119,1.29192 0,0 z m 194.18164,1.01367 c 0.0172,8.16246 5.44634,0.61967 0,0 z m 0.42578,0.19922 -0.0469,0.0234 z m -20.16797,0.71295 c -4.74154,3.2483 4.22021,2.15181 0,0 z m 4.54883,0.22461 c -1.0585,1.63717 1.73131,0.38479 0,0 z m 15.67188,0.51367 -0.0633,0.0485 z m -22.58594,0.48242 c -4.44527,4.8624 6.55473,3.01773 0,0 z m -176.234376,0.28906 c -3.159258,2.21297 4.172866,3.10789 0,0 z m -6.783203,0.3379 c -2.837015,1.801 1.559293,2.79757 0,0 z m 4.464843,1.98828 0.08335,0.21673 z m 135.591796,1.87109 c -4.87279,4.41595 4.20709,5.16563 0,0 z m 77.76367,1.55858 c -2.07598,3.70224 4.89268,0.6505 0,0 z m -176.39062,0.61524 c -12.53139,10.47396 21.95355,-1.58661 0,0 z m 165.61328,2.46094 c -1.20522,1.0349 1.27512,0.1484 0,0 z m 0.0996,0.63867 c 1.35758,0.16468 0.35278,-0.2299 0,0 z m -78.70508,0.76758 c -0.0603,4.86686 2.56878,-1.02759 0,0 z"
     inkscape:label=""
     style="fill:#ffffff;fill-rule:evenodd;stroke:none;stroke-width:8.74275;stroke-miterlimit:4;stroke-dasharray:none;paint-order:stroke fill markers;image-rendering:optimizeQuality;shape-rendering:geometricPrecision;text-rendering:geometricPrecision"
     id="85057">
    <title
       id="title840">Metropolitana do Rio de Jane </title>
  </path>
  <path
     d="m 319.18359,575.37695 c -14.80874,8.86067 -57.56609,-4.38211 -86.32919,0.88782 -16.04748,-0.94423 -6.97957,24.69063 -24.40518,27.28992 -18.99733,14.81588 22.74269,24.84667 4.7266,45.91992 3.60947,13.44842 -18.2529,23.25262 -0.95958,28.23307 -0.10164,13.09447 -24.72195,29.89362 -2.91738,39.53211 19.17189,-10.38578 15.71866,16.09875 30.01754,19.21142 -12.72786,10.93067 -0.5322,30.99289 -2.77149,42.35938 -9.01818,18.26485 12.82688,17.2865 23.1543,25.1914 11.72424,6.802 31.50024,2.22949 39.63672,13.36663 12.33866,-5.89665 28.8954,-1.67869 40.26927,5.4462 18.45333,-4.20875 18.76497,0.50451 26.33034,1.54456 8.99465,0.86889 14.34022,-8.13874 25.17041,-2.88204 17.96163,6.34009 25.94089,25.48325 31.07319,-2.13589 27.63017,-20.64699 27.48637,-54.54285 43.07528,-80.03353 -16.80613,7.13884 -64.94157,9.19246 -55.02141,-19.23373 -3.3375,-9.05233 9.57445,-24.97992 13.06565,-33.7303 14.22307,-17.32228 -19.10811,-11.83168 -6.41759,-33.6631 -4.41027,-22.74776 -3.13377,-14.76256 -19.04059,-9.36937 -8.17097,-9.01269 -20.13988,-21.79537 -31.99386,-8.33567 -17.74878,-9.10762 0.6412,17.74923 -19.27825,12.17653 -1.17594,5.54201 -25.40379,4.78033 -21.63209,-1.92327 12.23032,-15.47598 -1.63231,-24.30704 -5.29758,-36.19391 2.03072,-15.34878 14.16245,-19.31601 1.96413,-34.17097 l -2.41924,0.51276 z m 9.19141,20.21289 c 1.22259,-0.2699 -1.37962,-0.57477 0,0 z M 196.9707,707.30078 c -3.44496,3.01637 3.7508,1.62017 0,0 z"
     style="fill-rule:evenodd;stroke:none;stroke-width:0.0032651;image-rendering:optimizeQuality;shape-rendering:geometricPrecision;text-rendering:geometricPrecision"
     id="85054">
    <title
       id="title495">Sul Espírito-santense
</title>
  </path>
  <g
     style="display:inline"
     inkscape:label="Layer 1"
     id="layer1"
     inkscape:groupmode="layer" />
  <path
     d="m 455.6543,26.652344 c -16.10366,4.9262 -26.15218,5.428041 -3.62333,20.423772 24.26489,12.004023 13.53602,39.159308 -8.94108,24.029804 -16.24195,-13.250963 -28.44997,12.557571 -37.95122,6.933148 -16.58243,-5.065772 -15.04781,18.262587 -25.9569,26.223052 -14.8757,13.6431 4.85982,30.53508 -11.92788,37.29844 26.56858,-3.02577 50.95233,3.92482 35.04531,34.27981 -13.53518,21.49032 22.36631,17.12379 23.07979,35.07542 14.8958,29.8827 -8.88619,35.74215 -36.38682,30.52758 -5.9765,-4.02769 -37.34411,-21.04427 -36.82031,-0.69526 6.51899,5.7519 23.59538,0.29193 30.96446,17.26339 11.3808,11.33887 34.0843,13.54112 10.93331,27.20954 8.65003,16.44396 19.4508,9.12269 27.71752,26.44389 9.53363,12.28456 4.92606,22.15696 8.54095,36.00114 1.58541,9.80321 -1.78162,24.37004 -10.92578,36.36914 19.26471,17.64573 -18.98941,22.17093 -18.4082,21.29687 3.39399,21.62586 -16.86639,26.04276 -30.19531,38.02925 -9.68217,20.03057 -2.30414,21.98455 14.5244,25.79133 16.6929,-15.86188 22.19816,19.70293 26.40341,-10.82259 24.4495,-2.61317 -1.93675,-33.82912 21.34515,-34.59672 11.95619,-13.29623 29.9057,-10.15522 14.58264,2.36427 1.68538,-0.59383 24.80348,-14.94157 17.71093,6.60348 8.72321,3.12993 28.7966,-9.72241 40.76367,7.17255 11.2577,3.90162 16.91893,23.11841 24.53258,-2.52353 8.44119,-9.74398 40.06699,0.8916 25.44985,-21.16662 11.06456,-11.67141 -24.01538,-17.89412 -13.77313,-31.38334 -9.47498,-13.196 -31.02428,-29.43274 -5.33908,-36.23856 11.52784,-4.49131 12.4029,-17.92981 15.5083,-30.46989 1.10971,-11.45351 9.53105,-30.22753 26.08822,-20.33616 13.01184,-16.71775 36.07564,-57.22716 1.41736,-53.48296 -34.97898,8.51961 -28.64915,-18.8659 -9.10055,-37.07887 4.48143,-18.46399 11.72139,-40.8378 29.81877,-33.81899 18.92245,-9.19181 19.69633,-30.68015 -4.73004,-15.31936 -24.42332,3.13692 -20.66325,-35.57959 -44.65882,-29.25468 -18.52337,-9.86198 3.34874,18.4775 -19.50681,8.12888 -12.80951,-17.36265 -36.72211,-7.9831 -28.24261,-35.75292 19.00137,-7.098219 13.5772,-39.992755 2.88519,-39.479508 -7.96379,8.02087 -9.21771,-32.535562 -27.09652,-19.670272 -10.01074,-6.216686 -23.13349,-6.91524 -23.72742,-15.374526 z m 88.7207,320.796876 -0.042,-0.34639 z"
     style="fill-rule:evenodd;stroke:none;stroke-width:0.0032651;image-rendering:optimizeQuality;shape-rendering:geometricPrecision;text-rendering:geometricPrecision"
     id="85068">
    <title
       id="title499">Noroeste Espírito-santense
</title>
  </path>
  <path
     d="m 442.71094,420.92773 c -19.25656,3.52476 -12.50631,24.9009 -15.26367,30.42579 -10.87808,6.41125 -13.2779,18.38628 -18.17185,26.59152 -10.71577,-8.6111 -30.66154,-3.53145 -40.29787,-7.60401 2.49976,19.96857 -11.34057,41.66592 -32.40333,40.48563 -0.36104,17.02173 -8.68138,33.00743 -12.2832,48.0586 -17.52255,15.23072 10.76904,14.05006 5.25857,23.52976 26.43048,13.34122 -16.66623,10.92977 -3.59688,31.74434 16.93043,7.69194 0.4219,26.52669 10.69555,33.54566 -1.054,-13.6441 22.40353,-0.17925 15.0783,-10.78857 8.17774,-17.56627 18.33338,-1.6009 32.48045,-16.80274 2.16327,9.99988 22.61845,30.4464 20.02735,9.16797 15.60298,-6.71054 20.31352,26.53871 14.9543,35.39853 17.75864,5.53161 11.91201,24.61491 2.24078,32.75018 -4.73469,13.00887 -12.17519,27.42633 -3.84601,38.06864 21.09014,11.78337 44.36441,-1.67662 61.89181,-8.46777 6.47832,-0.50654 28.08959,-29.16027 16.60092,-7.61485 8.58532,6.1532 36.63721,-21.82785 22.86719,-27.24414 0.007,-2.85274 5.11203,-20.31695 11.40545,-7.67158 12.86714,-11.78952 24.70026,-8.49105 31.97354,-34.64647 8.19659,-18.26398 22.58709,-47.53594 17.16481,-53.19761 10.47743,-10.1776 28.23477,-15.37161 28.53476,-40.92053 6.97002,-22.32353 -12.768,-23.58336 -24.75434,-20.21225 -8.23341,-4.60269 -20.91601,3.60404 -30.06446,-5.46676 -16.18194,-16.73585 -26.41889,-30.65655 -26.31832,-57.98051 -2.13414,-23.12741 -22.57179,-26.19637 -42.56688,-38.18579 -11.84038,7.52266 -25.91982,7.63466 -26.30857,-7.10834 -6.9903,4.35442 -21.60413,9.53051 -15.2984,-5.8547 z M 311.86133,574.17969 c -6.05547,8.04516 12.71531,-6.28863 0,0 z m -1.61133,4.42773 -0.19644,-0.44996 z m 276.91211,21.8711 c -5.97274,7.94449 6.99533,9.52536 0,0 z m 1.05859,0.38476 c 2.25413,2.19665 -0.61968,3.18711 0,0 z m 0.63086,3.62891 -0.005,0.10083 z m 2.24024,3.57617 c -5.30371,7.03443 8.25156,2.04844 0,0 z m -7.57227,0.86133 c -1.76476,12.10697 8.04093,1.25002 0,0 z m 1.66406,1.64258 -1.30859,0.30273 z m -5.25783,4.99589 c -2.39104,6.63369 7.20723,-0.27577 0,0 z m -3.7793,9.72656 c -2.74752,7.79402 8.18922,-0.64866 0,0 z M 564.541,650.85918 c 1.33324,8.25526 5.65455,-3.54082 0,0 z m -7.89258,17.82226 c -2.01277,9.79052 12.66521,5.35224 2.75798,3.21947 -0.97371,-1.01203 0.64954,-5.06769 -2.75798,-3.21947 z m 2.47851,3.28125 0.1199,-0.21732 z m -4.26757,4.68945 c 5.22631,4.40067 0.37647,-8.04925 0,0 z m -22.57627,9.02754 c 1.13671,1.40536 1.78336,-2.14475 0,0 z m -2.65039,-0.34571 0.44658,-0.1768 z m 0.0527,1.63868 1.05468,-0.52539 z m -3.41407,1.69726 c 0.46841,1.63003 3.57155,-0.36905 0,0 z"
     style="fill-rule:evenodd;stroke:none;stroke-width:0.0032651;image-rendering:optimizeQuality;shape-rendering:geometricPrecision;text-rendering:geometricPrecision"
     id="85048">
    <title
       id="title493">Central Espírito-santense
</title>
  </path>
  <path
     d="m 520.86719,13.972656 c -11.95768,7.015754 -32.66866,19.564249 -19.55335,33.636255 5.18069,14.219021 22.35382,12.098402 18.5118,30.914581 6.57343,16.918814 -31.68991,35.626468 -1.17046,42.237198 12.18016,2.32975 30.02076,24.60668 8.9737,-0.0927 18.4051,3.58176 49.87585,1.40304 56.33984,30.63668 13.06138,4.57047 58.63637,-10.69926 31.41224,12.04419 -8.13785,24.25811 -17.19708,10.99301 -30.55616,16.26742 1.68931,24.11152 -35.51299,51.30439 -21.56046,60.69378 19.87167,-4.70967 53.51389,3.03841 35.5453,28.75433 -3.3591,24.54386 -24.21536,30.87172 -35.29413,36.94651 -9.40713,13.13523 -8.10932,30.67026 -17.22456,46.53791 -35.80621,-1.18736 4.09898,23.77441 0.82031,35.69531 5.4342,14.79316 21.23697,22.12062 18.01953,36.42188 -2.00468,21.84766 -48.93746,2.12626 -36.46456,37.18907 -0.70864,24.96445 11.71818,45.46315 24.29664,63.59608 13.9054,10.66746 20.07717,-1.86074 33.53259,3.54292 12.08666,2.54412 35.41867,5.891 30.8565,-18.38805 20.34091,-16.65625 23.17094,-50.16619 52.22277,-62.24656 36.60309,-5.90484 41.90352,-43.45622 54.09775,-73.78876 7.92429,-39.79489 -8.7283,-80.37089 -9.90249,-120.68113 -4.07166,-34.72932 4.0413,-69.31484 5.71059,-101.35741 7.84652,-20.94447 23.41062,-41.44648 -8.36874,-48.39307 C 671.87397,80.305376 634.16978,53.031685 594.17279,31.024011 576.65003,21.718665 560.11959,15.412468 541.26862,19.231376 536.90675,22.685105 526.33545,4.8721841 520.86719,13.972656 Z m 43.88086,284.439454 0.48489,0.20052 z"
     style="fill-rule:evenodd;stroke:none;stroke-width:0.0032651;image-rendering:optimizeQuality;shape-rendering:geometricPrecision;text-rendering:geometricPrecision"
     id="85061">
    <title
       id="title497">Litoral Norte Espírito-sante
</title>
  </path>
</svg>
