<?xml version="1.0" encoding="UTF-8" standalone="no"?>
<svg
   xmlns:dc="http://purl.org/dc/elements/1.1/"
   xmlns:cc="http://creativecommons.org/ns#"
   xmlns:rdf="http://www.w3.org/1999/02/22-rdf-syntax-ns#"
   xmlns:svg="http://www.w3.org/2000/svg"
   xmlns="http://www.w3.org/2000/svg"
   xmlns:sodipodi="http://sodipodi.sourceforge.net/DTD/sodipodi-0.dtd"
   xmlns:inkscape="http://www.inkscape.org/namespaces/inkscape"
   inkscape:version="1.0 (4035a4fb49, 2020-05-01)"
   sodipodi:docname="MesoSP.svg"
   id="svg2"
   height="600"
   width="850"
   version="1.1">
  <sodipodi:namedview
     inkscape:current-layer="svg2"
     inkscape:window-maximized="1"
     inkscape:window-y="-8"
     inkscape:window-x="-8"
     inkscape:cy="272.98749"
     inkscape:cx="539.53807"
     inkscape:zoom="0.54115914"
     showgrid="false"
     id="namedview914"
     inkscape:window-height="705"
     inkscape:window-width="1366"
     inkscape:pageshadow="2"
     inkscape:pageopacity="0"
     guidetolerance="10"
     gridtolerance="10"
     objecttolerance="10"
     borderopacity="1"
     bordercolor="#666666"
     pagecolor="#ffffff"
     inkscape:document-rotation="0" />
  <defs
     id="defs4" />
  <metadata
     id="metadata7">
    <rdf:RDF>
      <cc:Work
         rdf:about="">
        <dc:format>image/svg+xml</dc:format>
        <dc:type
           rdf:resource="http://purl.org/dc/dcmitype/StillImage" />
        <dc:title></dc:title>
      </cc:Work>
    </rdf:RDF>
  </metadata>
  <path
     d="m 647.52734,372.83398 c -9.75057,16.50248 -21.14085,4.25738 -32.96255,5.96428 -13.50878,-1.48133 -24.82309,4.30137 -37.21992,8.53848 7.90968,11.156 -2.73675,21.6351 -1.71409,32.0811 14.94735,12.82778 -7.11901,11.38369 -11.39904,22.35822 -0.71928,2.27494 13.86787,7.13086 19.61925,5.84085 7.03434,-9.83836 17.24725,-8.96201 29.13446,-2.95194 7.55687,10.55221 19.5448,-6.61312 31.61225,-0.69503 10.80053,3.10304 10.3713,-20.85351 26.0761,-18.53229 13.08074,-5.34785 29.7247,-9.72533 20.89448,-23.09369 -9.78822,-3.42495 -20.31789,2.00567 -21.68942,-11.04886 -9.39977,-2.16202 -13.25492,-16.16821 -22.35152,-18.46112 z m -34.0625,2.79102 0.11505,-1.45102 z m -36.14648,47.23242 -0.35174,-0.51369 z m 91.11133,5.23438 c -1.7357,7.84621 5.52224,1.19137 0,0 z m -1.42578,1.33789 c 0.1659,1.8707 0.61147,-0.0511 0,0 z m -104.76368,12.49219 0.44989,0.0409 z m 72.6211,3.69335 0.15882,-0.0229 z m -72.65235,1.03321 0.27612,-0.16992 z m -0.49414,0.30273 -0.0237,0.0916 z m 26.83204,0.86914 0.13123,-0.62119 z"
     style="fill:#000000;stroke:#131516;stroke-width:1.05331;stroke-linecap:round;stroke-linejoin:round"
     id="85028">
    <title
       id="title1869">Metropolitana de São Paulo
</title>
  </path>
  <path
     d="m 136.59375,175.19336 c 1.26899,0.98951 -1.44903,-1.53881 0,0 z m 2.04687,1.13086 c -14.9219,7.83747 -1.66893,34.77401 -23.10822,41.62329 -11.3921,-0.48698 2.97889,21.73171 -14.30243,26.41833 -13.895416,15.67001 -21.027205,38.74335 -43.818485,45.73364 -9.579552,6.21301 -45.735134,25.4184 -37.207272,25.1531 14.18647,-4.51903 33.393258,0.55202 46.07145,-0.28342 15.019005,-0.99052 35.126427,12.10196 37.558317,-7.86836 23.55334,2.36917 41.008,20.49575 62.87555,12.35421 17.62353,9.50526 13.38766,-18.73788 30.83562,-14.7588 16.00966,-9.82029 10.72771,16.2573 23.7206,14.93863 -5.02279,-12.87143 5.05504,-19.53307 7.4966,-29.48512 5.61924,-12.43825 9.22801,-30.00311 -7.88077,-31.59189 9.00774,-9.26296 15.30097,-18.46222 22.43042,-27.75048 -4.67642,-5.46212 -14.93726,-7.3542 -19.61962,-11.17353 3.50518,-4.87048 -3.54086,4.36528 -5.83879,-4.55336 -8.22147,-7.33722 -23.60788,-8.27992 -30.88719,-13.23993 -7.69413,-2.88769 -17.86478,-7.40705 -21.64471,-9.65662 -9.40754,-3.81802 -13.18759,-8.856 -20.54354,-8.00302 -3.83579,-1.85362 -0.71917,-7.99268 -6.13753,-7.85667 z m 3.51172,1.50781 -0.45537,-0.55979 z m 0.30274,0.3125 -0.22741,-0.27724 z m 0.0293,0.0312 0.22838,0.22001 z m 8.23437,5.50586 0.11812,-0.35005 z m 7.71875,3.73438 0.80008,-1.33224 z m 6.5293,4.43945 0.0538,-0.0723 z m 13.55468,4.78906 c 0.32727,-0.10212 0.0782,-0.0243 0,0 z m -0.39062,0.75586 0.35791,0.14407 z m 0.6875,0.54102 0.36424,0.19085 z m 8.22852,3.86328 0.1207,-1.46675 z m 37.10724,17.44338 0.20506,-0.15538 z m 0.24804,0.22265 0.24356,-0.19816 z m -42.73046,93.99414 0.73572,-0.39626 z m 43.14843,6.44336 -1.45703,-0.41406 z"
     style="fill:#000000;stroke:#131516;stroke-width:1.05331;stroke-linecap:round;stroke-linejoin:round"
     id="85014">
    <title
       id="title1855">Presidente Prudente
</title>
  </path>
  <path
     d="m 257.29102,57.791016 c -14.42497,12.68935 -38.68746,12.637343 -48.31974,30.664434 -10.74837,10.64599 -0.73868,37.68031 13.4096,35.11952 18.4075,-0.76189 -0.66059,17.99863 18.83086,18.32901 10.9865,3.65636 24.09023,5.21454 33.85263,12.83291 8.35661,4.37768 20.95248,-3.01369 25.87333,9.1671 -7.38788,10.58029 -18.16656,25.39692 3.17008,23.58025 14.60685,2.35139 23.72283,10.9779 37.40232,14.86063 7.0399,9.24847 33.3214,19.98247 29.79226,21.42297 8.86038,-11.69596 19.06359,-12.21206 27.15773,-20.83041 15.89048,2.91102 17.24595,0.66893 20.55164,-14.55464 -13.04938,-11.75164 7.12053,-17.85662 -6.70609,-27.49183 9.5289,-8.95886 1.25591,-15.85583 -2.3613,-22.20995 -8.32871,-13.68303 -13.95877,-33.84244 -20.93657,-46.81971 -8.02399,36.17445 -37.5704,-7.283487 -21.49172,-17.566327 -20.98119,-1.648064 -40.50843,-3.949788 -63.68976,-3.594975 -15.88146,-5.941198 -32.99984,-1.0815 -46.53527,-12.908982 z m 25.39453,99.773434 0.0492,-0.0161 z"
     style="fill:#000000;stroke:#131516;stroke-width:1.05331;stroke-linecap:round;stroke-linejoin:round"
     id="85005">
    <title
       id="title1843">São José do Rio Preto
</title>
  </path>
  <path
     d="m 572.8457,196.23438 c -10.83582,3.77507 -15.04013,13.94834 -19.95971,24.83997 -18.81937,0.54997 13.83936,23.07606 -8.87553,21.60774 -18.36229,-4.66835 -6.7962,11.44173 -16.58461,19.19954 -2.88617,8.04252 19.96274,3.7965 28.09541,5.56632 14.60446,2.94613 -2.69016,21.38404 17.04791,21.21493 4.77573,24.32661 -19.69239,7.87396 -13.32144,26.58481 -2.02397,15.89962 -15.24718,9.791 -24.29362,16.65068 -7.9713,7.94306 15.92059,8.02094 8.17676,19.19595 1.01538,1.16125 -7.26295,18.42044 3.64752,10.63413 14.43592,6.7015 16.98171,10.70032 21.7386,-3.80749 15.33498,5.12821 13.73574,-4.98127 22.08958,-15.76674 1.56258,-5.84056 14.04614,-9.59941 21.72479,-11.34166 5.61172,10.52821 11.81014,3.01236 20.84823,2.89555 5.3868,-1.4011 -17.08486,-8.92214 -2.53007,-16.07931 -1.66568,-12.01331 -19.22886,-11.0087 -22.83791,-20.53907 -12.00261,-7.63961 4.06903,-21.06339 1.98242,-25.28125 -14.78791,-2.55174 7.96,-15.80639 -4.38441,-26.21461 5.1127,-11.93864 11.04586,-15.64721 16.78927,-26.23748 -1.29262,-12.79396 -14.7171,-12.47794 -25.65935,-14.7245 -7.51062,6.46976 -24.12271,8.57916 -21.79819,-5.75906 -0.3227,-0.6294 -1.03078,-2.97538 -1.89565,-2.63845 z m -14.71093,83.49804 -0.84486,-0.49801 z m 3.78711,6.10547 -0.98965,-0.93855 z m -1.81055,-0.57812 0.61998,0.12324 z m 46.13086,9.2539 0.0782,-0.22252 z m 0.68554,0.0937 0.1071,-0.0508 z m 14.18165,41.85742 0.16513,0.0347 z m -79.83399,17.79297 0.14596,-0.20634 z m 37.05859,5.70508 0.35126,-0.008 z"
     style="fill:#000000;stroke:#131516;stroke-width:1.05331;stroke-linecap:round;stroke-linejoin:round"
     id="85003_">
    <title
       id="title1853">Campinas
</title>
  </path>
  <path
     d="m 319.70117,198.79297 c -6.63057,10.03292 -4.86512,26.03125 -20.70122,26.4011 -1.11884,10.39804 -28.62619,7.93035 -11.12495,14.24148 9.53491,11.74564 23.17907,15.33333 35.29804,23.43896 11.69664,-1.10991 21.77732,10.39151 28.5125,18.83449 13.03663,11.37 -10.75096,17.11528 -14.62105,24.37565 -16.63884,-7.27638 -11.01774,14.2541 0.73148,10.7408 6.24432,-19.35194 16.7518,-1.76963 25.38592,3.9074 -2.44985,8.41841 -5.16525,21.12627 5.55092,25.17397 8.2161,7.78546 3.8862,16.67957 5.72853,26.09473 2.64745,11.21367 2.99285,19.68105 6.76275,29.99685 6.13811,10.8672 -1.03689,22.59052 13.82169,7.25309 10.68927,-2.83278 24.89519,2.14388 29.71971,-4.48583 0.33923,-11.23613 -3.12482,-26.41649 14.10223,-28.55028 11.44587,1.70846 24.61345,2.02354 27.848,-11.12166 2.64921,-10.48706 16.01498,-1.10263 22.43307,-11.01849 0.82724,-9.32084 -10.06713,-15.11513 -10.10333,-23.25677 -1.98061,-14.99993 -23.59353,-6.7661 -20.4286,-24.43845 5.65134,-9.31457 -2.06098,-21.50676 -7.99948,-28.41052 -4.15936,-9.49088 -8.90625,-10.60446 -18.13102,-14.92613 -8.96638,-3.49944 -16.73021,-16.12719 -25.62417,-8.04866 -15.06518,-7.4254 -20.93753,-23.0761 -39.12157,-23.86399 -10.98897,-10.23955 -24.31049,-24.80521 -39.80705,-27.83512 -2.32265,-0.94199 -6.06215,-7.7758 -8.2324,-4.50262 z m 8.44336,64.90234 0.63002,-0.1554 z m 162.10547,91.03516 0.56259,0.27864 z m -19.98242,6.33789 0.21667,-0.10494 z m -0.58985,0.77344 0.10492,-6.3e-4 z m -1.13085,0.70117 c 0.14866,1.62878 1.68915,-1.52041 0,0 z m -0.71485,3.97851 0.26463,-0.0557 z m -5.47463,5.61131 0.99045,0.20981 z m -0.41992,0.67383 0.7038,-0.21895 z m -10.81641,6.46094 0.13192,-0.2744 z m -0.51171,1.17187 0.2846,-0.64145 z m 0.62695,0.58594 0.083,0.12601 z m -25.19336,17.03906 1.04883,-1.28125 z m -44.11719,4.94727 -0.0859,-0.0352 z"
     style="fill:#000000;stroke:#131516;stroke-width:1.05331;stroke-linecap:round;stroke-linejoin:round"
     id="85029">
    <title
       id="title1847">Bauru
</title>
  </path>
  <path
     d="m 537.76953,270.13672 c -9.8956,-0.93325 -18.72061,20.11178 -30.09625,9.62143 -6.10328,-1.16267 -20.02983,-8.51033 -24.4293,-5.03201 -5.48816,8.40001 -34.04654,-1.46559 -19.99203,13.91655 5.78642,9.25702 -4.78759,24.19134 8.35624,28.70863 15.04873,-0.32581 9.03689,16.46277 19.23857,23.31942 15.15342,-7.12901 11.53433,7.48025 19.31796,10.87663 -7.47164,11.85002 -0.52074,13.71447 9.73246,17.11026 -6.58381,-13.83193 16.49831,-4.0763 16.52883,-9.62183 3.69106,-8.51242 3.6292,-15.67312 -8.53398,-21.40721 0.65503,-13.19364 13.07261,-14.11024 23.12275,-15.40907 7.95578,-9.05675 -0.47044,-28.59766 14.93824,-21.54358 12.87066,-14.7658 -11.93299,-8.38228 -11.53868,-19.01644 15.48505,-16.23042 -9.90801,-6.77515 -16.64481,-11.52278 z m -82.01562,10.46094 c 6.33854,0.23554 -2.12477,-6.46088 0,0 z m 94.64648,44.1914 0.33216,-1.51949 z m -45.64258,21.09766 c 0.16504,-0.25054 0.043,-0.0653 0,0 z m -0.082,0.24219 0.39306,-0.1304 z m -1.5039,1.58398 0.53578,-0.0815 z m -0.6543,0.2207 0.51354,0.0349 z m 1.13867,0.11719 0.39505,0.0387 z m 0.043,1.32227 c -1.68109,1.59139 2.32095,-0.8756 0,0 z m 37.58984,2.24414 c -0.63264,1.29703 0.86818,-0.74748 0,0 z m -1.79492,1.10745 0.52525,-0.25435 z m 3.10156,0.46875 c 0.31423,2.91335 0.37355,-2.45 0,0 z m -2.90429,0.51758 0.007,-0.0299 z m -2.58985,-0.0233 -0.11271,0.41062 z"
     style="fill:#000000;stroke:#131516;stroke-width:1.05331;stroke-linecap:round;stroke-linejoin:round"
     id="85002">
    <title
       id="title1851">Piracicaba
</title>
  </path>
  <path
     d="m 496.3418,343.76172 c -3.30821,6.75961 -3.22013,17.12555 -14.24726,20.94111 -12.89734,-5.67264 -14.57788,11.855 -19.65672,16.84104 -7.59773,0.70755 -19.39617,-3.61254 -28.83434,1.74081 -14.36378,5.29675 8.03991,27.84627 -9.75003,26.71682 -10.94041,7.95837 -25.02993,-4.27238 -33.44125,9.20462 -12.34525,12.8849 -11.06091,-15.14783 -10.97191,-13.1116 -1.92664,-5.87127 -7.58845,-16.93775 -15.6044,-12.11816 6.99652,10.33539 -12.47252,14.2549 -20.48246,7.90813 -7.16633,-6.11941 -4.88377,11.21948 -0.11719,14.19531 6.17838,7.51077 -9.39304,17.87096 2.60946,20.20122 5.47601,7.68558 7.94986,18.38257 18.04673,20.93512 -3.07483,15.09167 19.94108,16.98936 9.15442,31.09613 -5.35241,5.83673 -11.40841,22.14963 1.22462,19.11328 12.93101,-0.61585 17.43938,-5.85586 28.35435,-1.50407 7.39373,-2.39008 17.15757,3.31082 25.02038,0.587 12.06775,6.74446 16.42045,-7.28357 20.30247,-15.52006 1.16166,-10.31428 1.00352,-22.76672 17.73762,-22.81503 3.99578,-6.34664 28.55109,-10.49974 15.83809,-17.10714 -9.12785,-1.72843 -11.39057,-10.6136 -15.57391,-18.62223 7.18996,-6.8258 21.67342,-16.17712 31.42628,-8.68218 -10.05703,-12.17941 3.54772,-16.06278 5.48983,-24.53338 2.47069,-3.03219 3.37889,-20.48076 13.88147,-16.34668 15.17764,7.52187 -7.81778,-16.23442 -3.84158,-12.1514 -8.62248,-1.98443 -18.41872,-6.67308 -9.21768,-15.71012 -4.0311,-4.64948 -0.57611,-8.88693 -7.34699,-11.25854 z m -140.3711,108.83203 -0.1137,0.69849 z m 144.66992,-106.4707 0.67108,-1.07373 z m 4.55079,9.3457 c -0.15499,-0.17591 -0.0474,-0.0532 0,0 z m 18.57812,29.45508 0.061,-0.0992 z m -14.80273,1.48437 0.25876,-1.5342 z m 11.80273,-0.54297 0.12139,0.1595 z m 3.13281,0.1211 c 0.0567,3.14509 1.53407,-0.54381 0,0 z m 0.14258,1.16406 0.0229,-0.62824 z m -2.50195,0.13867 0.0285,-0.25437 z m 2.53708,0.1467 0.22447,0.0591 z m -12.98828,0.16797 0.28181,0.17653 z m -0.48828,0.19726 0.45097,0.21376 z m -0.29883,0.39063 c 1.83819,0.60291 0.34353,-0.58229 0,0 z m -5.0625,5.88281 0.13618,0.30619 z m -168.28516,3.06055 -0.21945,-0.44237 z m 2.6875,1.60937 0.57359,-0.51848 z m 163.75195,0.42188 0.12482,-0.3204 z m -165.4375,2.40429 c -1.39744,1.81101 1.38006,-0.90836 0,0 z m 89.88868,2.11328 c 0.22125,-0.0298 0.0692,-0.009 0,0 z m -0.44922,0.0586 0.13303,0.0998 z m -46.60742,2.97461 0.20689,0.16719 z m 0.70117,0.23047 1.45397,0.082 z m -0.57422,3.06054 c 1.28982,1.09605 -0.39566,-1.36497 0,0 z m -40.94922,21.52149 0.747,-1.28213 z m 8.63477,11.99804 0.67538,-0.81229 z m 1.83398,4.69727 0.0899,0.11419 z m 128.85938,0.52148 0.0476,-0.0755 z m -123.78321,4.67579 c -0.20038,1.7396 0.83345,-0.062 0,0 z m 131.30664,0.73437 0.033,-0.0363 z m -91.73242,51.75781 0.0252,0.21144 z m 30.26563,5.51758 c -0.4986,1.70617 1.29595,-1.01662 0,0 z"
     style="fill:#000000;stroke:#131516;stroke-width:1.05331;stroke-linecap:round;stroke-linejoin:round"
     id="85021">
    <title
       id="title1861">Itapetininga
</title>
  </path>
  <path
     d="m 534.76542,75.004802 c -11.14606,13.616438 -25.63178,-4.80327 -33.77802,4.528451 -4.52948,19.453693 -12.1935,-3.674118 -19.7491,11.405473 -16.69873,0.421523 -12.69816,-16.456773 -17.84615,-0.0033 -17.40012,-6.030399 -35.43491,3.546705 -53.51803,1.996439 -6.2568,11.528205 -4.71459,26.826465 0.36616,38.490275 3.72672,8.70438 16.11164,18.35094 6.53933,30.44944 13.17786,7.62328 -4.02055,18.83935 5.49221,29.13524 -8.86066,6.9966 1.59645,27.90292 7.14633,23.21146 12.33443,-0.11026 18.50842,-3.90654 31.45244,-3.53043 13.18441,-9.81635 21.59943,0.0975 29.25593,11.02848 4.94286,-2.51932 10.9684,-0.50972 15.9068,3.72404 -4.57624,9.07836 11.20309,5.55157 16.88819,9.50407 5.72425,8.51409 19.27449,1.01761 25.28028,2.68897 -12.63967,-11.8595 -1.4035,-15.64772 3.4952,-27.14527 4.13877,-10.62994 22.04141,-14.93532 16.44951,-21.66435 -5.53473,-8.65222 -0.84917,-18.91286 -9.43976,-25.74909 -13.0519,-13.19334 12.26699,-22.01761 6.84373,-31.12523 C 559.32844,120.54252 543.74841,118.277 551.15131,103.92101 564.91678,89.05753 533.38898,87.612329 534.76593,75.00485 Z m -115.79368,88.623938 -0.0601,-0.059 z m 140.96835,37.48197 0.16765,-0.0306 z m -87.75199,6.31242 -1.19555,-0.72638 z m 1.68092,-0.084 0.19856,-0.12545 z m -4.15323,-0.043 0.87128,-0.0746 z m 22.25465,14.49397 0.32513,0.2107 z m 7.49153,3.73042 0.65456,-0.81905 z"
     style="fill:#000000;stroke:#131516;stroke-width:1.05615;stroke-linecap:round;stroke-linejoin:round"
     id="85001">
    <title
       id="title1841">Ribeirão Preto
</title>
  </path>
  <path
     d="m 198.00586,104.62891 c -22.83061,3.7766 -46.01813,28.10679 -45.11859,51.37049 0.0952,13.11243 -20.37602,15.06062 -4.15095,24.78855 9.54096,-0.78317 16.27116,9.36012 25.86969,12.18954 4.48066,-1.40276 16.55148,10.52737 25.68963,7.79447 12.34734,5.87411 21.1295,12.40293 32.20733,18.48813 9.42029,0.81854 16.79946,17.74065 27.12032,10.63065 10.3314,4.62343 28.88757,3.04936 32.84624,-7.10848 12.82586,-0.89823 19.33774,-9.45247 20.80962,-21.61284 8.0071,-17.0157 -35.04119,-3.00832 -26.10952,-22.06103 1.34163,-4.73352 16.77697,-18.24383 0.56788,-20.19529 -4.07822,2.93929 -12.36987,2.69982 -18.12557,-2.0579 -8.14086,-8.72033 -25.43031,-4.89412 -33.72358,-13.77041 -18.53377,2.36864 0.83886,-23.77743 -20.50164,-13.79364 -8.73444,-1.15188 -7.74813,-21.10853 -17.38086,-24.66224 z m 23.47852,23.02343 0.30284,-0.17889 z m -0.85547,0.9375 0.2674,-0.36661 z m -6.28711,0.3711 0.32135,-0.28396 z m -74.66792,43.64062 0.29311,0.01 z m 149.53515,3.50977 0.13375,-0.23588 z m 0.0684,0.24609 c 0.34643,1.27843 0.44406,-1.14597 0,0 z m -141.25195,5.3418 0.11796,-0.16922 z m -0.15039,0.7793 -0.0344,0.38694 z m 0.36133,0.7207 0.10325,-0.65011 z m 16.90234,5.11328 -0.0958,-0.24163 z m 0.17382,0.37303 0.25362,0.33971 z m 8.44922,4.35937 -0.21411,-0.21278 z m 0.17969,0.27539 -0.0256,-0.0517 z m 1.57226,0.80274 -0.31382,-0.58512 z m 4.93555,0.45703 c 1.86624,1.4495 -1.75268,-1.83351 0,0 z m -4.51563,-0.41406 0.11722,0.39857 z m 6.86133,2.23828 -0.97461,-0.39258 z m 35.11719,15.1582 0.25637,-0.19721 z m -0.79688,0.64062 0.01,-0.008 z m 9.125,5.14844 -0.09,-0.50742 z m 0.11719,0.61133 -0.0104,-0.0541 z m 3.34375,0.67188 0.17962,0.009 z m -1.34765,0.34179 0.60811,0.0674 z m -0.5918,0.20508 c -0.1832,1.71592 0.9426,-0.1004 0,0 z m -0.39844,0.39844 0.19391,-0.0667 z m -0.17775,1.05273 -0.31107,0.53364 z"
     style="fill:#000000;stroke:#131516;stroke-width:1.05331;stroke-linecap:round;stroke-linejoin:round"
     id="85011">
    <title
       id="title1845">Araçatuba
</title>
  </path>
  <path
     d="m 607.34766,334.21289 c -6.74162,9.59288 -17.00429,9.52117 -18.28321,20.7734 -3.70765,16.71529 -17.58988,0.0541 -20.42535,11.70216 4.94033,21.04568 -21.61504,-7.1055 -30.51212,2.7881 -1.40386,-10.0851 -21.5483,-4.08854 -13.05768,8.97325 7.63235,18.39568 -13.87441,3.36108 -14.98576,14.38099 -5.24933,6.5938 1.50464,17.14052 -12.86435,19.21869 7.00938,5.30887 6.79865,19.24518 -5.75859,15.34625 -9.83046,-8.10478 -26.10809,9.18889 -14.2365,17.52096 8.82292,6.48982 17.21817,6.0798 24.88991,10.24999 10.00078,0.16296 18.32117,-9.45265 26.02044,-7.80545 10.05909,5.93402 20.40839,-3.82773 29.9399,-3.27955 2.0004,-6.80818 7.45161,-14.38434 16.34866,-15.08201 -4.38659,-9.21676 -4.90435,-19.06743 1.95364,-28.78305 -6.88161,-10.02446 -1.99505,-20.38631 11.26211,-20.86716 11.09616,-4.38724 23.24113,-5.83137 34.32456,-5.80209 11.22212,9.60629 19.2759,-0.22104 26.46757,-9.09284 2.27184,-6.31654 26.77672,-22.01297 9.69615,-16.20661 -1.95329,-12.19136 -23.97691,7.03441 -24.65143,-10.34929 -11.02122,3.03623 -18.83812,4.39798 -26.12795,-3.68574 z m -11.3086,4.98047 -0.153,-1.07409 z m -78.27734,48.35352 0.42209,-1.49751 z m -6.82227,-0.81641 0.32615,0.0604 z m 49.53907,51.74414 0.36309,-0.0243 z m -38.28904,13.46094 1.36177,-0.51517 z"
     style="fill:#000000;stroke:#131516;stroke-width:1.05331;stroke-linecap:round;stroke-linejoin:round"
     id="85037">
    <title
       id="title1863">Macro Metropolitana Paulista
</title>
  </path>
  <path
     d="m 246.33984,233.7793 c -1.77093,8.17703 -24.75096,22.96276 -14.46879,25.4372 13.90089,1.70412 22.49927,14.03993 34.712,16.90505 13.80644,1.24749 4.89168,18.95405 11.66639,22.2648 -22.53713,11.67067 18.92427,13.03638 9.45157,11.93793 5.48377,-12.93704 21.90176,2.59716 31.5034,-3.95313 11.45131,-8.23647 21.65455,-6.1616 32.36265,-16.97346 -4.47781,-8.74882 -13.47914,-16.88197 -22.24664,-21.7081 -10.23342,-2.19761 -26.20127,-8.75589 -35.78325,-18.25009 -7.36536,-6.28768 -17.96981,-12.86059 -25.25,-14.33203 -1.50582,2.9767 -16.66764,-0.008 -21.94728,-1.32812 z m 6,0.75 0.18024,-0.10758 z m -0.2832,0.16797 0.14607,0.0852 z m 100.86914,56.23437 -1.47954,-0.73421 z"
     style="fill:#000000;stroke:#131516;stroke-width:1.05331;stroke-linecap:round;stroke-linejoin:round"
     id="85013">
    <title
       id="title1857">Marília
</title>
  </path>
  <path
     d="m 400.60156,206.32617 c -6.73449,9.95097 -19.381,9.01984 -26.53515,20.53906 8.08657,3.49314 18.53295,10.87683 25.12539,14.34249 -1.22943,15.36049 23.52347,0.76747 31.05708,16.48843 5.38646,2.64732 14.66214,4.02529 20.35661,11.3945 3.32461,10.67068 25.85983,6.76037 29.52149,0.009 6.05562,-2.63921 23.17738,4.43748 30.3418,7.26758 21.07197,4.69234 5.81532,-11.23383 13.98632,-18.47071 9.98756,-7.6681 -1.32004,-21.17714 -12.73047,-21.82225 -12.38484,1.70595 -9.44194,-12.00651 -16.16028,-11.0012 -6.94638,0.21172 -11.24213,-0.38226 -14.78625,-8.61375 -6.01242,-13.36979 -20.7547,4.152 -32.40694,-1.18428 -12.90151,4.08502 -27.36958,11.22222 -30.543,-5.82967 -5.84543,1.71966 -11.8675,-5.72055 -17.2266,-3.1192 z m 31.54102,11.34571 0.23561,-0.32486 z m 52.89453,3.01757 0.29406,0.1505 z m 15.68359,5.71875 0.51819,-0.29078 z m -128.28711,3.29883 c -2.04554,5.62514 9.20479,-0.19346 0,0 z m 74.10743,37.08203 c -0.20287,-0.13503 -0.0603,-0.0399 0,0 z"
     style="fill:#000000;stroke:#131516;stroke-width:1.05331;stroke-linecap:round;stroke-linejoin:round"
     id="85007">
    <title
       id="title1849">Araraquara
</title>
  </path>
  <path
     d="m 237.91797,265.67773 c -1.5889,12.77367 -2.01196,26.66974 -9.75038,37.94965 -7.866,3.48711 4.37198,24.76903 -12.33006,20.64682 -8.29054,-2.82203 -7.57642,-27.09376 -23.99251,-13.97171 -20.59206,8.27276 5.44876,22.18683 17.63502,21.46346 18.58179,-1.15701 18.64383,23.17318 34.56143,11.46494 14.72633,3.62522 24.04316,-0.36671 39.55304,3.8538 12.87515,-7.32392 27.51286,-4.29238 28.25148,9.80479 11.24333,2.49434 20.25667,7.19465 24.19547,19.01082 7.43791,10.67524 0.576,24.58063 16.53125,24.43945 9.44017,-1.65242 8.53619,-12.93988 19.21262,-13.94487 -1.32961,-11.35042 0.55611,-26.28846 -4.48506,-34.09409 -5.81767,-7.1883 -16.802,-17.72741 -8.02775,-29.1884 -9.59629,-13.84606 -15.66181,-5.89572 -24.51625,-0.5402 -9.44777,-3.04193 -13.3966,-18.05233 -26.08337,-9.7648 -12.85626,-12.05117 -19.14572,8.71238 -27.02156,0.006 -19.89798,7.83421 -7.79597,-15.22329 -11.98235,-17.85604 6.09333,-18.35881 -12.41271,-13.50415 -21.95362,-24.70634 -3.39623,-1.13426 -6.48906,-3.65303 -9.7974,-4.5733 z m 102.95508,130.63282 c -0.2419,-2.28245 -0.94872,-1.42877 0,0 z m -74.36133,-116.4336 0.27747,0.0293 z m 92.2832,40.36133 0.84236,-1.30849 z m -179.37695,2.1211 c 3.63754,6.67554 4.75686,-2.3427 0,0 z m 43.63281,1.13085 0.51727,-0.0333 z m -1.7207,0.41797 0.13402,-0.0873 z m 118.54492,67.16797 0.33398,-0.55469 z m -1.41797,0.10352 0.33325,-0.0245 z m 4.7793,7.61328 -0.47656,-1.42383 z"
     style="fill:#000000;stroke:#131516;stroke-width:1.05331;stroke-linecap:round;stroke-linejoin:round"
     id="85017">
    <title
       id="title1859">Assis
</title>
  </path>
  <path
     d="m 782.14648,301.08594 c -11.62524,6.2619 -27.1543,3.1993 -37.03041,13.57857 -5.84946,4.8697 -18.30292,10.59063 -24.63733,4.99794 -12.02275,7.03355 -32.42136,-2.65489 -21.67601,14.6209 -2.90663,10.2201 -16.50374,5.91684 -24.24736,8.27182 -8.02867,7.22982 -15.11959,16.6779 -23.97889,25.26793 8.03157,5.23845 12.6996,16.92435 22.40716,20.51792 2.31318,15.98793 22.77952,0.003 24.88073,18.83815 10.91441,7.13029 -20.84322,16.98334 2.75731,15.92923 13.12276,3.55193 30.23858,10.94399 22.04298,-10.83625 12.49585,-5.36172 17.93424,-11.06567 29.26196,-14.4705 6.07294,-4.01326 15.85607,-18.64951 26.00306,-12.82269 13.02772,3.11104 -15.52023,-13.33236 -2.02622,-16.09606 4.77908,-9.85666 4.30071,-23.54232 18.11739,-24.99743 12.52768,-6.79429 20.49521,-4.04311 33.17293,-7.7874 10.54432,-5.58878 14.09252,-22.06569 -2.89115,-16.75057 -6.57068,-3.43131 -16.14388,4.06881 -22.30862,1.31244 -11.54726,-1.14228 -10.70491,-17.96579 -19.84753,-19.574 z m -22.07421,4.90625 -0.75972,-1.35612 z m -61.5,10.99414 c 1.13872,2.94693 2.31325,-1.44802 0,0 z m 122.55273,0.68555 -0.077,-0.45465 z m 4.00391,-0.14063 -0.10168,0.24713 z m -124.07032,4.08594 c 0.3369,1.54593 0.69512,-1.8652 0,0 z m 107.31836,-0.625 c 0.33036,-0.13158 0.077,-0.0308 0,0 z m -161.32812,48.26758 c -6.05979,2.64989 3.38939,5.62593 0,0 z m 125.55469,14.90625 c 1.79602,3.01112 2.59086,0.76225 0,0 z m -1.44727,0.6875 c -0.87443,7.59642 9.91446,5.71885 0,0 z m -3.27344,2.68945 c 0.0811,8.86365 6.2954,-1.46473 0,0 z m 8.71485,1.79101 c -6.06196,4.81547 5.74819,4.6984 1.11901,-0.29483 l -1.11814,0.29481 z m 0.11132,1.27146 -0.22853,0.12854 z m 1.02344,0.4277 -0.0704,-0.0294 z m -6.17578,0.16602 c -2.5948,6.29644 6.44386,0.47565 0,0 z m 4.07621,0.30075 0.0387,-0.23151 z m -0.10547,2.82422 -1.02401,-1.17082 z M 775.5,394.18555 c 3.92139,0.90788 -2.38774,-2.33546 0,0 z m 1.38281,0.29687 0.3703,-0.17684 z m -26.47851,6.20899 0.0168,-1.23557 z m 8.57422,-0.94336 c -1.07558,5.88264 10.46725,8.45511 0,0 z m -0.35157,0.12304 -0.135,0.20026 z m -16.45703,2.5625 c -0.59998,8.95137 7.99473,-3.80731 0,0 z m 13.03516,-0.82812 -0.10765,-0.29302 z m -13.12891,3.70314 0.0989,-0.2645 z m 6.89649,1.35157 c 3.13684,0.098 -1.03082,-4.16379 0,0 z m -14.70899,-1.0625 c -2.69144,6.79287 8.72292,2.81077 0,0 z m 26.48242,0.54296 c 0.44499,-0.98664 -0.64884,-0.14393 0,0 z m -0.0176,14.09571 c -0.1258,5.47915 -0.19919,2.46485 0,0 z m 0.7207,2.41797 c -0.47031,-0.52141 0.14894,-0.17493 0,0 z m -27.88281,-0.22852 c -8.47721,11.54157 -11.06629,20.71995 1.47609,11.42076 1.93501,-3.962 10.26421,-8.8153 -1.47609,-11.42076 z m -3.03516,8.07031 0.40739,-1.39744 z m -33.4043,-5.39648 c -1.42682,2.15327 2.66037,6.03236 0,0 z m 3.07813,1.70312 c -0.1061,9.79897 5.77417,-4.66985 0,0 z m 42.07422,0.35547 c -5.38022,3.2268 7.54192,4.2371 0,0 z m -39.6836,2.10352 c 1.26099,0.36555 0.43966,-5.08504 0,0 z m -3.77539,-1.35938 0.4149,-0.36772 z m -0.2891,0.28125 0.26178,-0.22841 z m 28.84961,0.0215 c -8.79298,1.36776 6.40368,6.96548 0,0 z m 21.20312,0.40624 0.47954,-0.14608 z m -0.85351,0.99805 c 1.94391,8.15278 6.33759,-4.73555 0,0 z m -26.32227,-0.43946 c -3.96863,8.24825 8.75359,-0.15769 0,0 z m -29.36523,2.6543 c -6.27206,1.84311 10.05762,6.45407 1.88308,-0.88246 -1.48525,-1.69137 -2.64812,-0.76205 -1.88308,0.88246 z m 47.3125,-0.95313 -0.20226,-0.68415 z m -2.00195,-0.20117 c -4.25783,5.54036 7.72077,1.82053 0,0 z m -23.06836,0.32031 c -2.15585,3.06731 7.76689,5.66155 0,0 z m 2.63672,0.52934 -0.0426,-0.30125 z m -26.34571,0.28516 0.002,-0.34629 z m 0.65625,-0.0508 0.0248,-0.10056 z m 47.57034,2.21669 c -3.3886,5.6524 6.0025,1.9593 0,0 z m -2.60546,0.66211 c -0.57384,-0.92646 -0.29245,-0.11754 0,0 z m -3.17966,1.99209 c -2.8491,6.05739 12.15224,2.62569 0,0 z m 4.88476,1.84766 c 0.98033,0.91628 -1.82447,-2.41019 0,0 z m 1.78321,1.73041 c 0.53313,-2.44686 -0.23776,-1.75155 0,0 z m 1.02539,-1.54882 0.57682,0.0998 z"
     style="fill:#000000;stroke:#131516;stroke-width:1.05331;stroke-linecap:round;stroke-linejoin:round"
     id="85036">
    <title
       id="title1865">Vale do Paraíba Paulista
</title>
  </path>
  <path
     d="m 596.50195,443.18555 c -4.65236,6.45803 -15.53334,15.61513 -23.07422,6.53904 -12.36695,-2.98595 -24.75646,-0.0407 -35.74808,3.80482 -9.94263,0.0468 -18.50722,3.63944 -22.47717,0.55228 -2.87607,12.02909 -17.99671,-0.46107 -23.64684,4.72594 -11.59737,2.70122 -19.0435,12.08912 -30.04473,16.18209 -10.63017,3.23309 -7.32252,17.84101 -9.71397,24.57248 -12.27262,7.29124 -8.43624,13.48827 -15.50395,22.22267 3.85091,7.43573 -5.5963,15.59227 0.18152,22.81159 6.55314,-14.06056 20.84961,-5.24595 29.73645,-7.20023 6.12178,7.25431 2.95964,26.47524 15.75253,19.4638 16.09744,-14.53888 30.77142,-41.72339 58.64492,-50.97934 24.70233,-10.58703 34.71238,-30.87135 55.87861,-43.78063 19.41978,-5.04231 20.54843,-18.91004 1.37189,-14.71146 -0.12704,-0.47824 1.80776,-8.31119 -1.35696,-4.20305 z m -45.6914,5.11328 c -0.24602,-0.34737 -0.0506,-0.0717 0,0 z m 4.83398,0.3457 0.90969,-1.00858 z m -8.58984,0.69531 -1.11914,-1.1914 z m -26.62696,1.59574 c 0.27429,-0.11931 0.0716,-0.0314 0,0 z m -1.56054,0.67773 0.29536,-0.0805 z m 0.82617,-0.0879 0.23879,0.0134 z m 2.74609,3.84766 1.36214,0.5433 z m -50.98633,13.75976 -0.89554,-1.27175 z m 0.90626,-0.15234 -0.0523,-0.0527 z m -17.5586,5.07812 -0.0619,-0.59835 z m 125.61133,4.60352 c -4.08701,1.64638 3.42478,4.84362 0,0 z m 5.57812,1.02344 c -0.79322,9.70017 7.51218,-0.7999 0,0 z m -4.44335,1.86523 c 1.05788,2.17182 1.28365,-5.88779 0,0 z m -147.99023,49.4629 1.52559,0.0836 z m -3.58789,9.44141 1.45168,0.11405 z m 55.50781,20.55859 0.57813,-1.41211 z"
     style="fill:#000000;stroke:#131516;stroke-width:1.05331;stroke-linecap:round;stroke-linejoin:round"
     id="85027">
    <title
       id="title1867">Litoral Sul Paulista
</title>
  </path>
</svg>
