<?xml version="1.0" encoding="UTF-8" standalone="no"?>
<svg
   xmlns:dc="http://purl.org/dc/elements/1.1/"
   xmlns:cc="http://creativecommons.org/ns#"
   xmlns:rdf="http://www.w3.org/1999/02/22-rdf-syntax-ns#"
   xmlns:svg="http://www.w3.org/2000/svg"
   xmlns="http://www.w3.org/2000/svg"
   xmlns:sodipodi="http://sodipodi.sourceforge.net/DTD/sodipodi-0.dtd"
   xmlns:inkscape="http://www.inkscape.org/namespaces/inkscape"
   inkscape:version="1.0 (4035a4fb49, 2020-05-01)"
   sodipodi:docname="MesoRJ.svg"
   id="svg2"
   height="600"
   width="850"
   version="1.1">
  <sodipodi:namedview
     inkscape:current-layer="svg2"
     inkscape:window-maximized="1"
     inkscape:window-y="-8"
     inkscape:window-x="-8"
     inkscape:cy="439.52697"
     inkscape:cx="496.58206"
     inkscape:zoom="0.54115914"
     showgrid="false"
     id="namedview914"
     inkscape:window-height="705"
     inkscape:window-width="1366"
     inkscape:pageshadow="2"
     inkscape:pageopacity="0"
     guidetolerance="10"
     gridtolerance="10"
     objecttolerance="10"
     borderopacity="1"
     bordercolor="#666666"
     pagecolor="#ffffff"
     inkscape:document-rotation="0" />
  <defs
     id="defs4" />
  <metadata
     id="metadata7">
    <rdf:RDF>
      <cc:Work
         rdf:about="">
        <dc:format>image/svg+xml</dc:format>
        <dc:type
           rdf:resource="http://purl.org/dc/dcmitype/StillImage" />
        <dc:title></dc:title>
      </cc:Work>
    </rdf:RDF>
  </metadata>
  <path
     d="m 553.38016,366.70709 c -2.27116,1.91286 -9.81075,3.09831 -7.19618,6.23618 3.23644,3.31949 -8.04461,6.38922 -9.48786,8.23106 -5.04254,2.32071 -10.05748,-2.35185 -16.07241,0.0658 -5.219,-0.0529 -10.04443,1.77362 -14.30865,4.50611 -3.94306,1.20741 -7.49582,-6.22507 -11.06286,-0.22262 -2.80702,3.7615 -7.56541,2.69636 -7.48385,7.68144 -3.78387,3.17019 -4.29584,9.68984 -6.49232,12.82269 3.45415,5.30449 3.50559,14.42619 10.2943,15.25508 4.69489,0.59811 4.37968,4.38864 4.23133,8.07284 0.12549,4.26841 0.17915,8.53546 -0.22979,12.79367 6.3484,3.20598 15.01712,-2.63532 17.8156,4.8788 -1.72169,6.50714 1.20669,18.00072 -3.24008,21.58564 -3.28664,-0.88445 -6.50041,1.10619 -7.86062,1.71197 -3.71517,-1.40507 -8.29013,-1.59624 -10.77052,-4.15494 -4.13666,1.0117 -7.4171,-4.20692 -11.12251,0.47089 -5.8842,3.73077 -8.31375,8.27599 -14.36901,11.77126 -2.34353,3.14324 -0.72582,6.8685 2.97449,5.02307 5.58985,0.5551 2.04401,9.54172 8.80543,6.5032 7.06878,-0.51027 14.29474,-0.57962 21.32326,0.0484 5.19145,1.2271 10.68038,-0.39299 15.98843,-0.10053 23.89621,-0.0654 47.66097,2.87539 71.47298,4.50066 3.69732,0.46216 12.67597,5.51119 7.50308,1.32718 -2.65958,-6.00839 -0.75163,-13.55879 4.79516,-17.17999 7.79373,1.72202 1.77135,-8.78215 7.5097,-12.50571 4.48373,-1.70279 10.46282,-6.33271 9.87488,-9.49882 -5.36319,-2.71113 -7.29271,-8.48417 -12.20742,-11.29946 -2.12855,-5.28518 -3.52581,-11.35548 -3.3075,-17.20411 0.15723,-4.33859 -1.18382,-8.98431 1.64984,-12.77408 1.58494,-1.12555 1.20272,-5.04416 2.46323,-7.1181 1.47265,-4.15945 4.63162,-7.68696 9.2507,-8.15751 3.80538,4.94468 5.21767,-11.20497 11.82927,-8.60613 2.94739,-3.69971 6.83456,-12.2315 9.56353,-13.85704 -5.05837,0.80175 -9.41707,4.27533 -14.15558,-1.05078 -6.72816,-4.24014 -12.9448,-3.56648 -20.103,-1.35099 -4.21818,-4.25205 -8.19526,0.88418 -10.86172,4.10691 1.79123,5.40378 -3.95562,2.37048 -6.04777,4.77199 -5.17576,0.2109 -7.8731,-1.77044 -4.33531,-6.55759 -1.12653,-3.49497 -3.60318,1.14073 -5.34512,1.71144 -1.03975,4.77139 -5.31236,-0.66516 -4.21425,3.95857 -3.43654,-5.01767 -10.85552,3.49939 -12.698,-4.75854 0.034,-2.38428 -5.66948,-2.76299 -1.01035,-5.59642 -2.77565,-1.24751 2.09103,-8.07413 -1.79338,-6.28668 l -1.56787,0.24529 z m 69.10209,86.27199 c -3.75058,5.38065 4.55709,-0.11225 0,0 z"
     inkscape:label=""
     style="fill:#000000;fill-rule:evenodd;stroke:none;stroke-width:8.27902;stroke-linecap:round;stroke-linejoin:miter;stroke-miterlimit:4;stroke-dasharray:none;paint-order:stroke fill markers;image-rendering:optimizeQuality;shape-rendering:geometricPrecision;text-rendering:geometricPrecision"
     id="85078">
    <title
       id="title838">Baixadas </title>
  </path>
  <path
     d="m 628.87721,15.55036 c -1.40225,3.21166 -4.64039,5.97937 -8.03112,6.60208 -4.45716,-3.12145 -3.54762,6.38483 -2.37872,8.23031 -3.1174,5.34895 -7.05079,7.33879 -7.71852,13.68964 -1.37136,5.26018 -3.78716,9.68369 -9.74267,7.64776 -5.05951,-2.56548 -9.30898,2.09628 -14.68434,1.70916 -5.29946,-2.3608 -6.46314,6.26403 -10.56412,4.09155 -6.42546,3.46414 3.01618,7.63285 5.92502,9.44522 7.8243,2.04218 5.25656,7.91476 0.90946,9.75927 -2.16532,3.77625 -5.30158,6.4602 -6.91971,9.94319 -1.96894,4.73759 -8.25048,1.60218 -7.45432,8.07306 -4.56843,4.9218 -7.37155,10.4028 -5.23064,16.473 0.50551,2.94577 4.40141,9.74338 -1.49329,12.87994 -5.02885,3.41309 -7.31278,10.39202 -3.89223,14.84996 -1.45459,3.91746 -1.80386,8.47714 -3.88725,11.27037 5.55368,9.28399 -10.65158,2.80006 -6.81819,10.19026 -0.81286,0.55592 -0.945,1.87047 -1.59103,4.05473 0.2332,2.89806 12.38562,10.16545 2.04937,12.98854 -1.48709,6.75145 -6.68987,4.21987 -7.74077,10.38757 -3.5071,3.47444 -7.93002,7.99234 -10.90938,12.70039 -1.98452,0.0923 4.41403,1.31512 1.74701,3.75915 -4.69217,3.3163 4.26406,0.006 3.1409,5.08962 3.24321,-0.78315 6.89083,-2.55534 10.05445,0.94128 2.11778,0.4806 0.91669,3.33329 1.91853,3.45204 1.02039,-2.56541 3.96642,2.94519 3.41438,4.16948 -0.50067,0.58061 -0.47236,6.05654 0.1561,3.46487 0.21279,-1.18005 -2.13989,-2.18985 1.63759,-2.03307 8.04639,-3.41098 7.22963,14.30006 11.24206,19.75717 3.19876,4.1239 4.17184,12.61639 8.76559,14.15458 0.62555,-0.74706 2.92773,0.25285 2.37978,-0.71183 -0.9521,-0.9893 -2.49487,1.21288 -2.48999,-0.96382 -0.43075,-2.02931 3.46756,-4.79712 4.29464,-2.33889 -2.0174,-3.26913 2.7208,-4.69694 3.61753,-3.53044 -2.04714,-1.25079 1.60816,-4.12536 3.1496,-3.4539 1.07618,-3.0256 5.12557,-2.18686 6.5071,-2.89302 -2.28911,-0.36623 2.05973,-2.65284 1.86667,-3.48766 3.01013,0.61455 2.73781,-3.66861 5.72353,-3.51206 0.17574,-3.68309 5.36787,-5.27404 7.45678,-6.18921 -0.87039,1.32261 -0.034,0.88743 0.61905,-0.4317 2.04635,-1.03463 1.89675,0.0113 1.27302,1.08862 0.22904,-2.25327 2.97955,0.73183 1.64054,-1.126 0.82836,-2.39665 8.1541,0.99549 6.09985,-3.89879 0.22337,-8.56032 -0.44689,-17.31312 0.33487,-25.75325 2.90109,-4.96182 11.89818,-4.90647 13.06201,-6.88934 0.88399,-5.72084 8.11344,-8.66393 9.99882,-13.31038 -0.92232,-8.99968 11.808,-7.79142 18.44836,-9.75298 7.01454,5.64461 14.00825,11.99218 18.44209,20.08204 3.90482,2.55361 -7.15207,-16.40931 0.54524,-17.44219 5.94648,-1.76859 11.00058,1.555 13.33406,-5.66699 8.98601,-4.91378 -0.969,-16.38083 -1.12419,-24.37006 -4.8455,-7.57946 8.55542,-10.51655 10.98562,-13.3721 -1.13322,-3.5928 5.96938,-2.96024 6.01069,-6.1524 4.58011,-3.67085 8.17467,-6.76626 3.28608,-12.23697 -4.77268,1.40325 -10.24766,-0.27001 -15.58466,-0.3191 -4.23224,-0.0208 -4.44979,-7.68098 -8.29432,-5.68531 -4.46729,-1.14506 -9.94322,-1.66588 -13.08639,-5.63406 -0.92916,-2.25641 -0.5935,-0.28611 -0.32882,0.39138 -3.53125,-5.42712 -9.22734,2.09094 -11.11616,-4.34586 2.48682,-2.92438 -5.12239,-0.0113 -3.47701,-4.49245 3.55755,-4.00915 -0.13758,-5.66245 1.02947,-10.16956 1.74481,-1.95603 1.90359,0.006 2.58107,-1.22913 0.74873,-1.32823 -2.38632,0.0486 -1.31202,-1.94058 0.82295,-3.81348 -0.93139,-8.11714 2.49536,-11.34147 -1.41627,-1.23413 -0.36208,-5.38527 -2.23012,-6.71684 -5.72602,-3.03165 -1.24894,-8.63882 0.53367,-11.26993 -2.5339,-1.23856 1.27525,-7.46088 -3.7957,-6.5661 -2.61203,-2.76399 -0.0809,-7.15182 -0.32353,-9.6909 0.62003,-0.78288 -1.12637,-0.76565 0.034,-1.24103 -1.41438,-1.20881 -5.41278,-4.51517 -8.86333,-4.0197 -1.366,2.44369 -5.06374,1.14515 -5.13593,0.29329 -0.28762,-2.07341 -1.34562,-1.50962 -1.04322,-0.15084 -3.29261,-1.86931 -5.38942,-6.95881 -9.09041,-7.46961 0.26948,-0.55423 0.003,-2.13941 -0.35754,0.16997 z m -1.9361,-0.27617 c 0.81036,0.68744 2.19953,0.32413 -0.0491,-0.043 l 0.0476,0.0426 z m -8.27959,5.97558 c 0.17839,0.0985 -0.16025,-0.62794 0,0 z m 35.15452,5.24361 c 0.62714,-0.25369 -0.42954,-0.53373 0,0 z m -0.10318,0.0712 c 0.0522,-0.004 -0.0438,-0.0536 0,0 z m 4.29623,11.33506 c -1.21308,1.02984 1.31762,-0.65785 0,0 z m 1.5744,23.98066 c -0.72631,0.066 0.0835,0.21309 0,0 z m -76.39174,12.33631 c 0.0688,1.89275 0.24945,-2.49514 0,0 z m -0.90573,0.82645 c 0.42131,0.0949 -0.24264,-0.0823 0,0 z m 0.30086,0.0643 c 0.35263,0.01 0.44685,0.0306 0,0 z m 75.73659,0.31823 c 0.53843,0.11736 -0.52857,-0.73369 0,0 z m -0.681,0.81746 c 0.0189,-0.0155 -0.0427,-0.0147 0,0 z m 1.0681,13.24578 c -0.71596,0.37229 -0.17311,0.44714 0,0 z m 0.55555,0.67505 -0.0624,-0.014 z m 47.3221,17.05006 c 0.90286,0.61396 2.74557,-0.1191 0,0 z m -9.62184,18.69672 c 1.52315,0.66595 0.0907,-1.03047 0,0 z M 536.53012,188.6805 c 0.68417,0.40312 -1.99699,-2.60703 0,0 z m 59.95215,45.48495 c 0.49391,0.88271 1.16266,0.93653 0,0 z m -20.24738,15.56647 c 0.37644,-0.47123 -1.74932,-1.77256 0,0 z m 1.31792,0.64725 c 1.29558,0.78107 -1.64829,-1.27004 0,0 z"
     inkscape:label=""
     style="mix-blend-mode:normal;fill:#000000;fill-rule:evenodd;stroke:none;stroke-width:8.27902;stroke-linecap:round;stroke-linejoin:round;stroke-miterlimit:10;stroke-dasharray:none;stroke-opacity:1;paint-order:stroke fill markers;image-rendering:optimizeQuality;shape-rendering:geometricPrecision;text-rendering:geometricPrecision"
     id="85073">
    <title
       id="title846">Noroeste Fluminense </title>
  </path>
  <path
     d="m 552.39563,222.28873 c -15.01648,7.90193 -31.98323,11.2482 -47.08059,19.11747 -14.70184,5.88163 -27.49761,15.24256 -42.76056,19.74428 -11.559,4.89558 -22.04934,12.08734 -34.43773,15.1121 -10.10203,5.78192 -18.94583,15.42062 -31.30292,18.2801 -6.72536,5.86058 -10.0868,16.50977 -21.39103,12.1855 -8.26114,11.01203 -14.00191,-6.75107 -5.72255,-12.42705 -14.73006,1.88266 -25.9262,-6.53514 -40.61184,-4.16704 -9.24362,0.9117 -24.41582,10.6998 -15.79313,23.20256 -0.47837,15.375 9.2205,26.09597 18.44848,36.67634 3.21619,8.3116 9.62387,13.58374 13.64061,2.9014 8.14609,-6.68138 21.90905,4.17437 26.15716,-8.09636 7.7571,-3.77703 13.71217,-16.39699 20.20592,-24.10885 1.77048,-6.22306 18.45241,-4.01934 9.64592,-12.9784 5.25151,-10.20148 16.32019,3.48945 23.49574,-0.28687 2.17368,7.86769 -0.89201,16.79898 8.81155,7.48774 7.10136,-6.83634 21.58689,-7.14622 16.38607,5.9636 1.09568,11.21382 10.03805,20.08849 6.70227,31.76825 -6.30485,14.51429 14.69692,24.4986 22.41835,11.49434 12.65888,-6.26136 14.9077,12.44549 7.53898,18.42391 6.29806,4.74444 13.24914,-9.16671 18.30263,-0.003 10.48739,-8.80675 25.92983,-1.21882 35.83,-8.87471 0.97908,-8.56384 20.24069,-10.4931 6.32696,-17.31016 3.73924,-11.23192 16.51499,-21.97232 27.97463,-26.44093 7.4242,-0.89458 8.30631,-12.90418 19.05324,-12.09218 11.23295,-2.07572 14.92063,-9.03693 16.508,-19.00721 10.24932,-3.39855 23.56425,-6.42879 28.5815,6.9306 11.76983,3.6455 9.93653,-10.09954 7.68741,-16.11447 12.39424,-3.18278 12.9069,-17.79995 9.94481,-27.00068 -13.8169,-1.8265 -27.9275,0.0427 -41.46082,-3.36117 -11.79791,-5.81726 -8.5847,-21.77398 -2.78831,-29.35455 -6.29616,-4.11709 -13.0069,2.03009 -13.10222,6.98707 -7.24902,-1.20987 -7.46725,4.69815 -9.86438,7.86209 -9.57343,-7.57424 -10.31731,15.75085 -14.78283,9.33972 -11.73244,10.00716 -14.80645,-15.92366 -19.44283,-23.47991 -1.04013,-2.79087 -2.06619,-5.58713 -3.11849,-8.37328 z"
     inkscape:label=""
     style="fill:#000000;fill-rule:evenodd;stroke:none;stroke-width:8.27902;stroke-linecap:butt;stroke-miterlimit:4;stroke-dasharray:none;paint-order:stroke fill markers;image-rendering:optimizeQuality;shape-rendering:geometricPrecision;text-rendering:geometricPrecision"
     id="85071">
    <title
       id="title844">Centro Fluminense </title>
  </path>
  <path
     d="m 405.31509,306.44695 c 9.2694,13.7574 -13.89215,13.31077 -16.66798,25.121 -9.33808,8.64303 -12.8326,21.18305 -25.72464,25.14354 -11.09351,-8.24209 -18.61047,3.81264 -23.75537,10.7952 -8.54459,-9.47085 -12.39064,-26.84255 -25.92013,-30.03598 -4.97834,5.40094 -11.73148,-8.33038 -12.79326,3.84378 -6.01007,-1.0825 -8.43755,-0.2846 -9.46168,5.59015 -11.07219,-0.34394 -19.39559,7.96134 -27.90154,13.10275 -1.17248,12.36208 -29.57393,14.08853 -15.53338,28.02826 2.17364,-1.30462 -8.65018,2.15282 -5.66512,8.82814 -3.05561,8.16303 -2.84806,9.369 -0.26974,17.47355 -1.34894,9.35849 -19.89019,18.79087 -2.63841,22.62864 1.35436,0.54742 -17.8685,16.78273 -5.0992,19.88821 -11.86167,6.17462 -19.72285,15.90286 -28.05181,25.13443 -9.09613,-1.39847 -16.39659,-5.31254 -25.50154,-0.3549 -12.79202,-9.57668 -27.81722,8.91832 -20.50129,21.79208 0.91161,15.05212 12.57607,3.84192 16.58345,-3.17273 -9.77548,-4.28477 10.60068,-13.33459 11.63253,-6.66482 12.84986,-5.50133 27.48275,-7.08087 41.38255,-10.33232 5.81855,4.9835 13.87314,0.59943 14.16155,6.82571 10.17431,11.20672 24.11733,13.52705 36.32705,21.64525 11.30744,10.5106 25.4588,-7.37999 39.56213,-4.38497 6.13335,-1.79566 12.63393,1.22415 3.73413,-1.91532 -1.67156,-4.79909 -12.20173,5.7171 -11.99256,-2.90929 9.22182,-13.64931 24.41799,9.27122 36.51562,1.27759 14.9664,0.77571 18.60143,-21.02294 5.29616,-21.65049 -6.89049,-4.72789 -12.29113,-14.5866 -15.58618,-21.26158 6.02164,-2.89693 1.95355,-14.80124 4.91867,-10.16867 6.68131,0.86986 1.80817,-9.87651 9.20842,-4.80654 5.35899,-7.03702 26.69946,-1.07811 19.6878,-14.25649 5.87773,5.81443 26.0355,-1.92695 22.34354,11.12614 2.73215,9.9267 -7.44215,9.9547 -9.76248,17.22516 4.41751,6.94503 -18.3038,21.55305 -3.48023,29.84923 -9.51336,7.04126 11.99562,7.36301 18.25486,8.90956 17.3766,-0.70315 34.90069,-2.94153 52.38901,-3.93094 11.348,2.67882 25.7322,-8.93344 9.41178,-8.69314 2.29376,-12.01659 14.52397,-22.05683 25.69066,-24.62464 8.11726,1.9728 25.9818,10.35995 23.25842,-4.48562 3.38408,-9.80466 -3.16373,-10.93074 -11.85188,-11.09303 -12.6805,-4.44586 2.44626,-22.44453 -14.16212,-25.47821 -9.13088,-10.76814 -2.39161,-24.82405 2.9613,-34.31501 -11.15229,-4.00853 8.7332,-13.26773 -2.54082,-20.06275 -8.59949,9.1985 -25.36317,11.05353 -31.17461,-0.44028 -3.67373,-9.25822 7.59924,-21.05942 -4.07195,-29.53603 -0.73126,-6.80148 -0.28006,-17.88502 -4.22411,-22.33534 -7.72327,3.73425 -26.53682,18.15337 -21.59822,-1.59179 -2.16477,-4.22241 -12.31174,1.0904 -17.38938,-5.72764 z M 360.7511,459.55149 c -0.58648,1.82532 1.71318,-0.63129 0,0 z m -8.7633,0.68833 c -9.34491,8.98941 4.20426,1.47534 8.0648,4.54866 -2.19496,-2.13785 -5.00585,-4.00252 -8.0648,-4.54866 z m -123.51523,27.30822 -0.16581,0.33675 z m -0.8667,0.65491 -0.48232,0.26041 z m -27.07876,4.00475 c -3.80776,3.031 3.84734,2.34203 0,0 z m 0.96751,0.13304 c 0.41317,2.51985 1.11217,-0.90773 0,0 z m 11.80433,0.1115 c 0.275,4.27196 5.29914,-1.15457 0,0 z m 6.95377,0.16781 c -1.66925,4.89483 2.31905,-1.61178 0,0 z m -3.65528,0.12813 0.20572,-0.40301 z m -5.65328,1.20155 c 0.98526,-0.89492 -1.9699,-0.70054 0,0 z m -9.34932,0.63239 0.39396,-0.35981 z m 20.56461,0.54206 c 0.96973,0.1353 -0.44433,-0.73278 0,0 z m -35.36545,0.9267 c -1.19728,1.86882 1.89126,-1.47126 0,0 z m 16.02309,1.21255 c 1.72973,4.51264 3.52754,-3.95894 0,0 z m -17.75007,3.12106 0.14657,-0.17915 z m 26.25411,0.34733 c -2.36657,3.30887 4.20605,0.67155 0,0 z m 106.85721,1.24184 c 3.42265,1.33081 -0.6828,-2.37071 0,0 z M 208.89142,501.8599 c -1.5811,3.8538 5.08409,-0.12624 0,0 z m -24.88169,0.47017 c -0.46209,6.27995 5.39465,-0.98214 0,0 z m 26.76449,1.32896 c 0.18663,2.85271 4.49368,-1.13979 0,0 z m -8.56104,2.25914 c 0.90968,5.27236 2.98761,-3.22934 0,0 z m 0.74297,0.41408 -0.0684,-0.0265 z m -32.37124,3.24802 c -3.12218,4.07036 6.50904,1.50096 0,0 z m 31.52664,1.6871 c 3.14321,1.94566 1.54015,-2.74167 0,0 z m 2.10668,-1.01461 c 0.22896,4.06711 3.00548,-1.09584 0,0 z m 151.16559,0.52354 c -1.70247,4.82445 3.94756,-0.31711 0,0 z m 1.82745,1.10672 c 7.81282,4.77256 -4.30787,-6.34802 0,0 z m -17.40972,0.68787 c 1.87485,4.70721 4.17101,-4.56892 0,0 z m -3.84652,-0.42485 c -2.07974,2.35974 3.85982,1.90476 0,0 z m 20.30662,0.59871 c -0.9738,0.8064 1.35637,-0.45868 0,0 z M 166.87,514.53402 c 1.62726,2.44505 1.41407,-3.2753 0,0 z m -7.06168,-0.46118 c 1.75017,3.9397 3.91751,-1.86886 0,0 z m 174.75142,0.76392 c 0.98303,0.0896 -0.0939,-1.64406 0,0 z m -68.22098,1.05815 c 7.64829,0.877 8.88025,-3.09623 0,0 z M 164.61039,515.0026 c 3.94774,3.13323 1.89078,-0.41907 0,0 z m 35.33542,2.21326 c -9.67872,5.58474 -1.94702,11.87399 5.42392,5.81646 11.86195,0.77964 2.75999,-4.63642 -3.43927,-5.19447 z m 92.96349,1.55255 c 3.49638,1.84857 0.85324,-5.36776 0,0 z m -72.79154,0.59437 c 11.78771,5.29878 -1.13822,-8.03297 0,0 z m 72.60114,0.26721 c 2.12413,2.60326 1.15723,-2.45091 0,0 z m 74.37245,0.62173 c 1.46387,1.61991 1.80692,-3.82949 0,0 z m -9.18796,0.77069 c -5.44689,3.25863 2.76392,3.45724 0,0 z m 0.59515,0.4775 -0.11048,-0.2109 z m -0.38466,0.87784 -0.32182,-0.002 z m -75.557,0.65351 c -3.3725,2.95321 5.34581,0.0839 0,0 z"
     inkscape:label=""
     style="fill:#000000;fill-rule:evenodd;stroke:none;stroke-width:8.27902;stroke-miterlimit:4;stroke-dasharray:none;paint-order:stroke fill markers;image-rendering:optimizeQuality;shape-rendering:geometricPrecision;text-rendering:geometricPrecision"
     id="85057">
    <title
       id="title840">Metropolitana do Rio de Jane </title>
  </path>
  <path
     d="m 276.63885,300.64537 c -1.41582,9.89129 -13.26949,-3.37463 -15.46877,6.01281 -7.58209,-6.43657 -16.25257,7.23527 -22.30988,-4.37431 -8.99032,6.7426 -22.66678,8.16144 -32.81291,15.03889 -9.4586,8.41633 -26.73628,-1.29396 -30.05252,13.77287 -2.47697,-12.14053 -7.4671,8.63327 -15.3735,6.74158 -7.94684,3.99628 -21.75228,13.33145 -25.02852,3.85141 -11.62987,5.34546 -22.44432,3.00613 -33.12003,2.61653 -5.577892,8.48444 -19.187805,19.7178 -30.842728,14.38791 -8.16596,3.22688 -11.54916,18.52883 -21.70753,9.30493 -6.77144,-1.00312 -26.07271,6.43211 -9.14445,8.30075 10.84587,5.77024 5.33843,22.76451 18.35342,28.06023 7.58652,6.17231 2.547,17.91572 15.79214,13.53838 6.479373,-5.13055 15.623143,12.14688 20.706452,-1.4138 10.273216,7.44691 16.332386,-13.92223 28.322906,-2.89395 14.71026,3.21555 38.10936,3.35316 37.38048,23.53546 -4.13753,11.18536 -22.95099,14.05908 -16.22009,24.95244 -3.98123,10.56378 -15.84543,7.46041 -20.01717,14.03289 3.34117,-7.07693 -9.95171,3.7318 -14.93425,-0.89548 -6.03708,1.67924 -14.237863,13.46646 -16.245064,0.0843 -6.052826,-0.29404 -13.836571,10.43399 -22.925724,7.45486 -7.1773,10.82642 -21.55016,7.03835 -29.07369,14.92709 4.48478,9.6011 -14.28144,2.26261 -9.20666,13.27223 -5.57349,13.91149 0.54707,31.6845 -16.38876,38.67526 -5.00141,9.7443 10.27543,11.88594 14.32916,18.95652 6.90681,5.46441 8.5677,20.65233 20.01115,10.822 8.75107,-4.90639 18.06134,4.02645 24.85622,1.95628 -1.39941,-8.14121 16.646864,-15.86211 0.29937,-13.72301 -4.19259,-4.94619 -0.99746,-11.82425 -7.37574,-2.94451 -7.42561,5.23389 4.07143,15.45377 -7.53231,9.15473 -4.09397,-5.70962 7.88448,-18.53764 -4.84054,-11.44214 -5.58448,1.94385 -11.03971,1.82147 -4.83558,-3.24344 -13.92195,-3.67234 1.10216,-24.05204 -0.55558,-34.98614 6.19238,-16.26735 25.14188,-5.07685 36.572697,-14.21137 5.785384,-1.56279 10.000721,-4.75003 15.815201,-5.28105 -0.51205,-8.0013 5.42609,-21.62264 10.95402,-10.52826 5.73954,1.99763 -2.67806,-9.39957 6.62186,-6.6664 7.76388,0.17423 12.10205,-7.11289 9.00648,4.19444 8.19422,4.22476 -0.51771,9.55729 0.89745,13.84218 6.45741,4.83216 14.02874,-9.32368 17.25998,0.1149 6.40654,2.19549 -7.49152,14.62103 3.29724,7.73956 18.4171,-1.26659 -10.00848,-25.68567 7.66588,-28.95836 7.11049,-16.4245 21.921,-2.11344 33.73589,-10.10203 6.43758,-2.3915 12.21952,9.89412 16.36682,-1.43207 2.48176,-11.94633 25.4271,-10.36573 15.96485,-24.00816 10.32599,-7.36505 5.09591,-13.54492 0.11973,-21.66285 11.87946,-1.97522 16.02698,-15.93691 7.68137,-19.63272 9.40337,-7.5885 5.62043,-22.04455 6.7612,-28.9042 6.81473,-11.08343 18.41089,-12.54584 23.39459,-24.7609 9.53291,-1.87982 20.94375,-11.8916 26.8561,-11.76359 0.67334,-10.74746 10.68451,-0.12586 11.52082,-9.76142 6.19289,-1.72774 12.21792,6.55445 11.51625,-4.56148 -3.22288,-8.72749 -0.43932,-30.81691 -12.82677,-24.36771 -8.89491,-5.58225 -18.20871,10.35451 -23.22097,-2.82206 z M 122.71269,506.43449 c -2.70371,8.33529 9.70747,-5.00621 0,0 z m -41.570721,9.13391 c 1.234503,5.47151 4.093243,-1.03453 0,0 z m -3.263357,1.28519 c -0.10496,4.01733 3.182974,-3.13138 0,0 z m -11.96433,1.5874 c -1.76164,2.97521 4.05002,-1.16602 0,0 z m -1.51562,0.0881 c -1.44362,2.52238 2.09682,0.66648 0,0 z m 5.376,0.89322 c 1.7894,1.85102 -0.14339,-1.54318 0,0 z m 1.59007,-0.22299 0.19517,0.29367 z m 0.31351,0.39692 c -8.7348,1.91278 6.80864,3.8931 0,0 z m -6.81623,0.52509 c -4.04688,2.6295 4.47026,2.87656 0,0 z m 0.91478,0.0839 c 0.32077,0.8505 0.80579,-0.57271 0,0 z m -0.4785,0.6249 c 1.48682,0.5884 -2.38044,-0.60332 0,0 z m 5.28828,0.0767 c -0.43862,0.93475 -0.0688,-0.71981 0,0 z m 0.0329,0.13871 0.008,0.1508 z m 0.15938,3.98929 c 1.21093,3.91105 2.70759,-3.11444 0,0 z m -15.08372,1.29577 c -1.99967,4.5936 4.67556,-1.07871 0,0 z m 91.103218,1.14565 c -7.84607,10.12052 -17.09946,9.4238 -25.42953,17.46766 8.33928,-4.51771 -0.27477,13.78306 5.82062,2.69253 6.86762,-11.47948 22.31616,7.18451 32.4866,-4.26149 11.42505,-7.04678 -12.22768,-7.36966 -12.87769,-15.8987 z m -94.289808,1.13541 c -0.16233,4.741 5.13178,-1.39238 0,0 z m 2.97319,1.106 c -3.49733,1.97326 2.96009,2.34667 0,0 z m 0.46053,1.13394 -0.23701,0.15949 z m -1.85823,1.74644 c -3.20107,4.94608 4.86229,-1.50402 0,0 z m 2.91801,8.14889 c 0.68764,3.80084 3.83104,-1.80714 0,0 z m 110.665658,0.88634 c 0.92497,8.09242 6.62137,-2.55969 0,0 z m -114.872488,3.35059 c 3.43057,4.82298 3.27273,-4.33599 0,0 z m 5.44202,1.21976 c 1.04399,3.48348 3.90274,-1.32238 0,0 z m 17.23331,0.24 c 0.26248,4.01768 4.068725,-1.02901 0,0 z m -8.26252,1.38048 c 2.17423,0.23584 -0.7059,-2.06998 0,0 z m 6.67725,2.45121 c 1.03261,3.01451 2.83068,-2.19538 0,0 z m -13.1841,1.81863 c 4.27058,0.39334 0.3383,-3.81785 0,0 z m 13.51293,-1.04077 0.24049,0.13985 z m 0.439,0.83278 c 0.95598,-0.65457 -1.53475,-0.30349 0,0 z m 0.59519,0.48276 -0.64112,0.76184 z m -23.59967,0.85489 c 1.69936,5.12947 3.29459,-3.99208 0,0 z m 27.43161,0.94931 c 0.275712,3.92481 3.888536,-1.60728 0,0 z m -25.66315,3.07272 c 1.1987,-0.15837 -0.39758,-0.92017 0,0 z m 2.56757,1.74818 c 2.01921,3.59218 2.95148,-3.91525 0,0 z m -1.87875,0.93868 0.0447,0.16479 z m 22.4434,3.49195 c -0.97099,3.92197 4.711931,0.64221 0,0 z m -0.0287,18.85364 c -0.0253,3.79117 3.94079,-0.63451 0,0 z m -21.49156,1.98501 c 3.24473,5.16344 3.49188,-4.92975 0,0 z m -9.31089,-0.44489 c 0.4979,4.94018 5.15336,-2.11272 0,0 z"
     inkscape:label=""
     style="fill:#000000;fill-rule:evenodd;stroke:none;stroke-width:8.27902;stroke-linecap:butt;stroke-miterlimit:4;stroke-dasharray:none;stroke-opacity:1;paint-order:stroke fill markers;image-rendering:optimizeQuality;shape-rendering:geometricPrecision;text-rendering:geometricPrecision"
     id="85059"
     inkscape:transform-center-x="36.957706"
     inkscape:transform-center-y="79.459067">
    <title
       id="title842">Sul Fluminense </title>
  </path>
  <path
     d="m 728.39232,110.90271 c -0.41533,0.21502 -4.20023,0.6601 -5.80706,0.21823 -2.39595,-1.11564 -4.3895,5.70272 -8.30332,2.98292 -3.07192,-3.59899 -2.57015,6.93034 -8.50541,6.87691 -2.38144,3.05358 -6.08934,7.8584 -10.57708,7.22436 0.54909,1.21729 3.55982,0.0155 0.25663,2.09216 -11.75981,3.75307 -3.23441,14.9007 -1.91781,23.90363 4.33901,6.58199 -3.17851,10.21298 -6.20666,14.52235 -2.10558,8.77758 -16.49949,-3.425 -11.95427,8.55542 1.37117,6.33137 2.79564,12.65103 4.19648,18.97587 -5.30252,3.23719 -6.57936,-6.56312 -9.96933,-9.50881 -4.50217,-6.47871 -10.61628,-15.53317 -17.93874,-16.84466 -3.1692,1.00747 -9.17132,1.84172 -11.13475,2.72791 -0.43445,8.87175 -11.07061,13.99768 -12.81286,21.33388 -5.6939,-0.41156 -13.88746,2.05737 -11.48032,9.67951 0.008,7.8524 -0.0227,15.74055 0.0151,23.57059 3.90992,7.01377 -4.2743,7.96742 -4.87544,13.84384 -2.79341,4.33241 1.67414,13.36066 6.60488,15.4922 0.8033,-2.09556 4.71239,3.4936 3.20768,0.37077 1.30636,-8.23151 8.82191,6.65401 15.61675,1.65502 8.1411,-3.66029 14.70757,3.42599 23.63777,0.9089 5.05073,1.14172 0.5961,5.34811 1.27642,8.31186 -1.72978,6.76947 2.88438,15.06935 -4.66023,19.42685 -2.30571,2.33287 -6.00942,5.3266 -7.97367,4.92744 0.87571,1.2847 2.68924,-0.9295 2.65659,0.98321 1.2136,0.89696 -1.70634,5.19428 0.0189,2.70482 0.42561,2.76385 3.83667,7.39691 0.94926,10.29177 -5.77459,2.38537 -16.60002,6.81686 -19.06325,-3.20992 -0.22829,-2.90751 -0.93147,-0.84125 -0.11868,0.008 -3.58092,-0.66947 -3.12197,-2.31742 -5.33012,-3.90233 -3.76463,-0.50339 -5.43821,-0.0302 -7.25612,2.97313 -5.94966,-3.59342 -11.63267,2.70713 -8.94841,8.94966 -2.13362,6.91189 -11.77282,5.88461 -16.92817,11.11926 -6.51326,-0.10319 -12.29885,2.47135 -11.72647,9.35546 -4.46162,3.90157 -10.90523,0.77265 -14.78389,4.89921 -4.50425,6.47021 -13.40931,10.24351 -16.2525,16.95693 -4.56151,3.61413 4.89336,3.90969 6.89688,7.02845 2.33983,3.37825 2.04325,9.67872 0.98589,11.5031 -1.03268,6.19574 3.04279,7.84086 7.8703,5.59684 -1.23677,0.64498 -1.14674,2.62186 0.20599,0.0499 5.39387,0.85689 8.95287,-9.27145 14.84912,-2.73313 -1.53215,11.23064 5.7436,1.21361 9.93071,-2.76344 5.51471,-3.80526 12.05658,1.4134 18.4365,-2.48084 1.45972,1.34517 1.71609,0.62079 0.3084,0.0427 3.25663,-5.94017 4.86089,4.76424 10.15953,2.9345 5.74764,7.1184 12.97073,0.36434 19.53414,1.29551 1.01209,-1.78296 5.99509,-2.47117 5.73672,-3.27258 -3.69297,-6.72537 4.65192,-9.96386 8.94357,-13.3138 12.1259,-11.6021 28.56084,-16.95262 43.61367,-23.63736 24.65995,-10.72618 53.18416,-11.85638 75.77999,-27.18625 9.3767,-7.88058 20.74526,-12.81634 30.6819,-19.74792 7.37367,-10.81089 0.19994,-23.95042 -1.48063,-35.50817 -2.60364,-13.68273 -8.25967,-27.56278 -4.27408,-41.5543 3.33237,-7.60739 0.65684,-9.35827 -5.61989,-11.91039 -4.17759,-5.7632 -6.30694,-13.84975 -5.01045,-20.85094 1.51193,-9.24926 11.66415,-12.91206 14.13699,-21.7842 -0.49731,-2.78166 5.10058,-4.90512 4.76613,-5.02932 0.70949,-3.32817 5.25358,-5.38946 2.85831,-8.47908 0.60491,-4.49883 2.40378,-8.74859 -1.73454,-11.32426 0.0971,-1.02382 -0.57528,-2.64133 -1.12932,-1.93814 -0.52574,1.35412 1.43731,2.79514 -1.5515,1.71055 -4.48169,-2.24824 -1.73654,-12.61013 -10.02633,-7.27008 -3.81736,-3.80353 -5.59075,-5.95237 -10.44775,-7.28802 -1.62954,-1.42886 0.97716,1.44766 -1.76338,0.21498 -4.2215,-1.42642 3.86827,1.58589 -2.29368,1.80353 -3.64248,-0.3482 -5.46739,2.32079 -8.37966,2.41858 -0.84189,0.42207 -4.22688,1.69572 -4.98331,-0.15972 -0.57683,-0.13296 -0.84023,-1.56713 -1.11171,-0.48396 -2.1552,-1.3101 1.32234,0.83763 -1.07335,1.12126 -0.55638,0.43778 -2.96175,0.60201 -1.77468,-0.0912 -2.19394,0.006 -4.71341,-1.56543 -6.01198,-3.43717 -1.95216,-1.82884 1.03181,0.73517 -1.35711,-0.21891 -1.53937,-1.99495 -5.28038,2.90986 -5.86239,1.3666 0.0265,-1.30416 -0.70537,1.08643 -2.21076,1.18887 -4.1941,1.39273 1.46049,-1.23075 -2.4268,-0.38879 -2.68505,0.589 -6.13844,-2.78764 -6.58741,-4.39206 -1.75257,0.0197 -4.03854,-0.88718 -6.54335,-1.99346 -1.10494,-1.02284 -7.39328,0.0672 -5.05549,-1.87508 0.4512,-0.55725 0.64875,-1.83044 -0.89889,0.46202 z m -19.09451,0.39061 c 0.70223,0.51989 0.34809,0.18089 0,0 z m 31.59159,2.32595 c 0.19162,0.7842 0.44716,-0.55177 0,0 z m 26.97143,3.86979 c -1.03294,0.86903 1.19531,0.87722 0,0 z m 1.9104,1.20835 c 0.71577,1.95638 0.40713,-1.27765 0,0 z m -1.77041,1.14041 c 1.50482,0.51275 -0.63877,1.80519 -0.73175,0.69031 0.3583,-0.0513 0.56886,-0.48517 0.73175,-0.69031 z m 41.37109,7.64687 c -0.7892,0.36065 0.66346,0.55915 0,0 z m -121.14138,7.01571 c 0.24454,0.47953 -0.38283,-0.87097 0,0 z m 114.76263,65.84433 c -1.20476,1.28324 2.50439,0.51665 1.95999,-1.0182 -0.002,-0.93309 -0.79891,-1.80395 -1.95999,1.0182 z m -154.4287,90.80303 c 0.0491,1.26852 1.04527,0.1663 0,0 z m -89.74647,76.68382 c -0.0382,0.81286 2.78022,0.93384 0.12624,-0.002 -0.0113,0.034 -0.11868,-0.0442 -0.12624,0.002 z m 106.19124,3.9329 c 0.28195,-0.0265 -1.26996,0.85576 -0.85773,1.45844 -0.0854,-0.34923 1.59039,-0.78281 0.50876,-0.5294 0.60446,-1.31924 1.59889,0.5082 1.72861,0.35074 1.43353,0.68244 -1.5741,-2.36507 -1.37964,-1.27978 z m -0.20296,0.43495 c 0.0151,0.14626 -0.17046,-0.0839 0,0 z m -0.25966,0.56163 c -0.40361,0.30652 0.54267,-0.9154 0,0 z m -0.3069,0.24567 c -0.0189,0.15232 -0.28762,0.16101 0,0 z m 0.37607,0.62703 c 1.08472,2.50998 1.56128,-1.9067 0,0 z m -0.52959,-0.14665 c -0.11263,0.3292 0.15572,0.0503 0,0 z m 2.52344,0.52796 c -0.008,0.48031 0.27439,-1.33848 0,0 z m -2.41644,0.0412 c 1.37083,1.06095 -1.22185,0.82594 0.48166,1.32234 1.23734,0.19314 1.84029,-0.92288 1.45123,-1.00066 -1.25949,0.88206 -0.79525,-0.22753 -1.93289,-0.32164 z m 2.37725,0.10998 c -0.096,0.33676 0.0918,-0.19729 0,0 z m -4.01129,0.35528 c -1.5015,0.74302 -0.47936,4.21157 0,0 z m 3.34511,0.1028 c -0.26684,0.18369 -0.0828,-0.0998 0,0 z m -0.3224,0.20296 c 0.88914,0.63931 -0.53461,-0.0469 0,0 z m 0.41715,0 c -0.1595,0.33147 -0.13229,-0.0797 0,0 z m -77.79893,4.77094 c 0.21997,-0.10167 -1.91981,-1.06987 0,0 z"
     inkscape:label=""
     style="fill:#000000;fill-rule:evenodd;stroke:none;stroke-width:8.27902;stroke-linecap:butt;stroke-linejoin:round;stroke-miterlimit:10;stroke-dasharray:none;stroke-opacity:1;paint-order:stroke fill markers;image-rendering:optimizeQuality;shape-rendering:geometricPrecision;text-rendering:geometricPrecision"
     id="85074">
    <title
       id="title836">Norte Fluminense </title>
  </path>
</svg>
