<?xml version="1.0" encoding="UTF-8" standalone="no"?>
<svg
   xmlns:dc="http://purl.org/dc/elements/1.1/"
   xmlns:cc="http://creativecommons.org/ns#"
   xmlns:rdf="http://www.w3.org/1999/02/22-rdf-syntax-ns#"
   xmlns:svg="http://www.w3.org/2000/svg"
   xmlns="http://www.w3.org/2000/svg"
   xmlns:sodipodi="http://sodipodi.sourceforge.net/DTD/sodipodi-0.dtd"
   xmlns:inkscape="http://www.inkscape.org/namespaces/inkscape"
   version="1.1"
   width="850"
   height="700"
   id="svg2"
   sodipodi:docname="MesoMG.svg"
   inkscape:version="1.0 (4035a4fb49, 2020-05-01)">
  <sodipodi:namedview
     inkscape:document-rotation="0"
     pagecolor="#ffffff"
     bordercolor="#666666"
     borderopacity="1"
     objecttolerance="10"
     gridtolerance="10"
     guidetolerance="10"
     inkscape:pageopacity="0"
     inkscape:pageshadow="2"
     inkscape:window-width="1366"
     inkscape:window-height="705"
     id="namedview914"
     showgrid="false"
     inkscape:zoom="0.54115914"
     inkscape:cx="496.58206"
     inkscape:cy="439.52697"
     inkscape:window-x="-8"
     inkscape:window-y="-8"
     inkscape:window-maximized="1"
     inkscape:current-layer="svg2" />
  <defs
     id="defs4" />
  <metadata
     id="metadata7">
    <rdf:RDF>
      <cc:Work
         rdf:about="">
        <dc:format>image/svg+xml</dc:format>
        <dc:type
           rdf:resource="http://purl.org/dc/dcmitype/StillImage" />
        <dc:title></dc:title>
      </cc:Work>
    </rdf:RDF>
  </metadata>
  <path
     id="85025"
     style="fill:#000000;fill-opacity:1;stroke:none;stroke-width:0.955245"
     inkscape:label=""
     d="m 372.46106,669.97823 c -3.56099,-3.04532 -12.65092,1.08102 -14.42004,-2.2729 5.52557,-8.37143 -11.00944,-8.41226 -4.7346,-14.7152 3.04762,-13.69321 -21.10144,-9.91255 -17.33595,-23.04566 -1.93219,-7.25219 7.13479,-14.97036 -0.72734,-19.65555 11.25898,-3.0114 -0.28353,-18.63783 5.56884,-25.1074 10.21507,-3.57488 6.65672,-20.2303 -3.34801,-22.4319 -6.29507,-5.11548 -15.67558,-0.15298 -23.45882,0.24575 -7.05979,-5.58087 -5.80266,-19.64816 -13.64932,-26.48958 -4.69235,-8.97913 -3.28229,-20.22988 3.9329,-26.88985 -1.32394,-8.51514 -1.30894,-19.0316 -10.89648,-20.50499 -5.5652,-4.94613 -1.18488,-9.40558 4.53574,-11.08203 7.54868,8.31652 12.17037,-11.18924 21.84394,-2.8039 10.24993,4.49505 19.88224,10.43277 28.98997,17.10795 2.85535,6.63262 7.3827,14.90723 15.57959,8.47726 9.10977,-2.7114 21.19285,1.88505 28.97261,8.24861 7.45484,5.72384 11.2933,15.68144 20.70753,19.24026 1.7402,10.40192 16.85114,8.03166 19.57362,18.5236 -10.94675,3.84033 -3.23168,19.66292 6.79703,12.71113 15.58388,-3.17974 7.68141,27.35412 22.81706,20.56173 8.3408,-5.08008 19.04231,5.73917 26.66418,-4.34723 6.54623,-4.69568 13.55199,4.30762 21.57205,2.5149 4.05233,1.2287 4.77447,-11.18685 7.23621,-1.98865 7.99436,3.90627 -5.15897,10.38082 2.07665,14.30904 0.66089,7.5199 15.9252,18.09504 -0.1633,16.2588 -6.77491,-2.2246 -4.98809,5.60714 -5.6648,9.86934 3.25125,12.62687 -15.86777,4.10887 -21.94521,10.07087 -8.22941,1.36955 -15.94243,4.79433 -24.49346,8.84841 -8.73507,7.56935 -21.85119,5.24442 -29.86983,13.99783 -6.35616,3.86996 -15.0711,4.60941 -18.7898,-1.63672 -9.30825,0.21754 -21.72481,0.20139 -23.24485,11.38864 7.53889,1.54269 6.31249,6.51285 -0.0298,8.1277 -9.03238,-4.52868 -15.61935,5.0867 -24.09628,2.46974 z">
    <title
       id="title950">Sul/Sudoeste de Minas
</title>
  </path>
  <path
     id="85035"
     style="fill:#000000;fill-opacity:1;stroke:none;stroke-width:0.955245"
     inkscape:label=""
     d="m 517.16669,619.21656 c 0.40052,-3.14937 -1.96383,-12.01105 3.77041,-10.46365 8.30214,1.76538 16.19877,-5.26708 6.21717,-10.13559 -4.72926,-4.30367 -6.7666,-12.18432 1.5437,-12.87826 8.29922,-2.44197 7.8258,-7.78218 -0.17786,-10.37409 5.684,-5.0188 17.27777,-4.48577 22.85122,1.69953 0.67038,-4.5249 6.81053,-10.64583 2.04052,-14.05312 10.10375,-0.31006 16.95428,-7.42903 17.81743,-17.45894 -1.74665,-6.36228 -8.33472,-10.71 -9.33644,-17.66519 -10.80471,-7.14518 6.4999,-9.89113 8.89256,-15.58981 -0.004,-8.57181 5.73314,-14.85065 14.72665,-12.52963 6.91228,1.17344 19.45779,-8.01316 7.79874,-10.89191 -0.9567,-4.41194 -5.83915,-7.62346 -1.25556,-10.83605 -0.28424,-7.20803 12.25762,-2.10366 12.56895,-11.06825 4.99227,-8.09384 17.70638,-3.23429 24.49565,-7.95334 2.87493,-7.39606 12.85025,-3.85755 17.67859,-9.23104 2.41141,8.56067 14.92866,3.26798 17.86586,11.97114 7.69695,0.55871 13.68198,-8.20503 20.37967,-11.70492 3.82397,-1.80724 -0.15837,9.95419 7.0755,9.10375 9.91994,-0.5166 17.55377,4.20953 22.43597,12.96507 6.88701,7.47842 -7.69412,-0.99901 -11.79205,1.46764 -4.54609,-0.009 -9.09219,-0.002 -13.63828,-0.004 0.52945,7.20296 -6.52173,12.79053 -2.67965,19.83312 0.66371,10.01303 -0.48335,23.36881 -9.17663,30.29042 -0.63029,7.66517 -15.70481,2.44532 -12.21067,10.99444 3.37917,5.95051 -9.97432,10.27558 -8.05911,18.14601 -2.85398,8.77084 -6.41672,16.9429 -9.42114,25.486 -1.18702,4.13503 10.63972,8.16659 1.27145,8.51365 -9.73683,3.25706 -18.9357,8.26863 -28.69446,11.62194 -9.57071,4.23432 -18.69186,9.71235 -28.05543,14.10256 -1.98474,-7.9464 -13.4559,-7.5576 -20.9008,-5.76655 -6.63226,6.48208 -18.71666,0.50322 -27.33005,3.9961 -7.50317,3.07631 -14.32573,6.53357 -22.255,8.52333 -1.52306,-0.15595 -3.886,3.08073 -4.44691,-0.11021 z">
    <title
       id="title936">Zona da Mata
</title>
  </path>
  <path
     id="85043"
     style="fill:#000000;fill-opacity:1;stroke:none;stroke-width:0.955245"
     inkscape:label=""
     d="m 522.43452,584.03729 c 2.37871,-3.66077 2.44301,-8.80528 -2.56509,-10.35044 -10e-4,-7.45208 -7.12057,-0.66599 -8.70008,2.3301 -5.29353,0.38419 -10.91113,-0.90993 -14.73095,-4.79635 -5.09099,-1.96287 -8.8344,4.85537 -13.46402,5.93049 -3.90753,5.09796 -10.29365,-2.40917 -15.51127,-0.87659 -3.69533,-1.14286 -5.33085,1.94408 -7.30534,3.63126 -5.52097,-2.97373 -6.7371,-9.16491 -7.19647,-14.83449 -1.9478,-6.51094 -10.68377,-9.72921 -16.5612,-6.5152 -7.1631,1.70545 -8.21502,-8.74542 -1.6209,-10.32484 2.4904,-2.83535 -7.02238,-10.37215 -0.30705,-8.85292 -0.72368,4.62342 6.43347,6.0648 7.54298,2.14073 1.3179,4.08989 5.34903,6.99934 8.18763,2.60247 5.10514,-0.95179 11.09953,-0.64445 14.02556,4.33187 4.94694,7.55577 10.76575,-1.08506 15.02333,-4.47639 6.4248,-2.48794 4.39695,-9.21564 3.08455,-14.2762 0.38703,-3.64411 -4.36831,-7.3151 1.34348,-9.00229 3.95038,-3.32459 8.69804,4.47172 11.67694,-1.7387 3.50628,-3.73873 7.48326,-5.58412 12.61818,-3.74825 6.4431,-0.24351 11.66963,3.4832 17.43771,5.28784 3.31982,1.18402 5.41082,3.94937 8.13678,5.82902 6.81929,-1.30942 13.77273,-1.69981 20.67801,-2.36156 3.11011,3.11759 7.43894,5.91388 7.65635,10.73439 0.97463,4.51503 7.79404,7.30927 6.94437,11.90916 -1.20228,4.42396 -2.37287,10.81549 -7.39919,12.29719 -3.9876,0.10619 -13.76024,1.61797 -8.92327,7.1973 1.70215,1.7564 -1.93465,5.76436 -3.0768,6.89268 -2.4413,-3.0862 -6.33381,-3.99991 -10.09568,-2.8343 -4.10555,1.33443 -10.82344,-0.62314 -13.05714,3.43498 -2.26945,4.76938 11.20014,6.81996 3.34245,8.79544 -1.58916,0.83529 -6.83276,5.564 -7.18387,1.6436 z" />
  <path
     id="85041"
     style="fill:#000000;fill-opacity:1;stroke:none;stroke-width:0.955245"
     inkscape:label=""
     d="m 532.06242,521.96661 c -7.91253,-5.00724 -16.97327,-8.75951 -26.52985,-9.21059 -12.04459,0.36786 5.22308,-8.44076 -3.12643,-12.2857 -1.29675,-5.25057 0.0149,-15.39333 -7.83243,-8.7154 -7.27408,9.25539 -17.91465,-8.88006 -7.09738,-13.10324 2.77733,-3.83942 3.8691,-7.56104 9.03774,-6.28032 -1.03302,-7.38559 -5.20155,-13.98722 -12.63358,-15.75036 -3.49277,-6.79736 -14.03074,-5.54866 -13.91564,-15.09416 -7.32449,-3.86591 -19.01105,-9.41527 -12.96548,-20.00123 6.1203,0.27545 13.23402,1.55023 15.14527,-6.78888 2.98918,-11.81026 16.049,-7.26484 23.74291,-14.26158 7.55516,-3.59554 12.39892,-12.0614 20.83769,-13.5028 5.75934,-2.40236 7.07915,-8.3062 14.14209,-6.63396 6.80008,-4.46648 -6.09799,-21.94549 4.20746,-18.48832 6.1693,8.08796 14.00602,-3.8158 20.92732,3.793 5.47414,5.29024 14.96919,2.71045 9.53596,-5.64283 -2.4733,-5.40269 -9.52859,-11.24634 -0.34298,-14.23103 5.66184,-2.11473 5.98076,-10.95061 13.23458,-6.41711 9.9955,0.22494 11.95441,-20.45821 21.37969,-15.26219 2.24024,5.61008 12.3292,-4.27803 7.11924,3.89241 -6.59024,6.58671 3.31265,8.03875 3.22239,13.37564 -8.86589,1.42299 -20.18304,4.53307 -23.6729,14.25503 -3.17832,8.62246 1.37639,16.95034 2.42369,24.89994 -2.51491,5.48486 -14.60806,16.67413 -2.83276,18.97183 7.34608,1.66813 11.21971,-11.43112 17.80637,-3.0318 9.80133,-1.6842 17.03583,9.52022 16.18187,17.92211 -7.08434,1.23875 -15.32685,8.21144 -21.63486,3.65668 -3.21541,8.06079 5.69496,18.58455 11.56957,24.21382 3.70773,-1.30037 5.23177,-1.7427 7.61737,2.53014 6.16688,-2.44554 12.04205,3.5567 18.03102,2.99235 -4.69459,8.00364 -13.01314,12.976 -22.95889,12.56241 -10.45089,-1.13511 -9.88598,14.40161 -20.71693,11.83002 -4.5379,0.16058 -0.64601,7.14317 -4.53297,9.56003 1.17232,4.1785 4.98007,9.9536 7.68949,12.14926 -7.25299,8.41969 -20.28573,-2.22872 -24.79195,9.87122 0.94765,10.62205 -10.49719,14.82882 -18.3951,18.19451 -6.10132,-0.44215 -14.75821,3.38264 -19.87159,0.0311 z">
    <title
       id="title934">Metropolitana de Belo Horizo
</title>
  </path>
  <path
     id="85034"
     style="fill:#000000;fill-opacity:1;stroke:none;stroke-width:0.955245"
     inkscape:label=""
     d="m 464.6422,545.70674 c -4.33922,-6.69951 -14.3658,-2.73144 -19.09398,-2.76288 -1.19456,-4.1987 -6.44097,-6.98794 -6.96002,-1.32968 -2.86616,-1.53889 -1.95766,-8.57875 -7.22884,-5.04171 -7.27662,0.49041 -14.16453,-4.10389 -16.08811,-10.73818 -7.78045,-2.01788 -12.02264,-9.24163 -16.59158,-15.2497 -5.63621,-4.72753 -11.23073,-10.72128 -19.21268,-10.64273 -6.30532,-3.09502 -14.24325,-4.70926 -19.38419,0.73449 -8.12601,1.08699 -5.691,-10.87938 -13.07652,-12.81364 -6.02018,-3.9394 -13.00728,-6.54059 -18.12688,-11.66105 -3.11547,-2.05308 -13.52629,-2.49492 -5.84131,-6.61764 2.75415,-6.4027 9.68059,-11.15831 15.87712,-6.12939 6.06119,-0.66736 4.21942,-8.31542 5.31444,-11.53102 5.48864,0.43441 10.97727,0.86882 16.46591,1.30323 1.43046,-5.51706 5.87938,-8.22679 11.61832,-6.92614 4.51545,-1.01792 6.13494,-12.98974 11.70949,-6.31191 6.33645,4.22936 12.04223,9.40886 15.44454,16.59914 5.60818,4.31342 8.17478,11.34093 13.70326,15.40747 4.15575,6.14379 12.50893,3.74827 17.18056,0.46447 -1.71489,-6.25088 -2.81877,-13.76359 -7.72751,-18.72247 -5.33828,-8.78893 6.34483,-0.3438 9.91285,1.02792 6.0086,-1.16203 8.30755,11.97053 14.35024,4.79982 2.26287,-4.02685 1.99746,-8.74542 1.99335,-13.20389 4.6728,0.21314 12.18778,0.3452 11.5568,-6.27246 9.11793,-3.30709 7.47445,13.12945 16.24116,13.17602 4.92021,2.74358 8.72809,7.31162 13.66573,10.17642 2.91163,3.73359 3.70112,6.74813 -0.95544,8.5426 -2.39866,6.43371 -13.29328,10.17324 -7.39899,18.27985 2.57737,8.67258 11.42191,7.29791 16.37277,2.04484 0.73484,5.55157 5.90464,12.30719 0.1544,16.89407 0.9307,4.87937 -4.70361,8.32754 -7.79664,9.95183 -3.89491,-4.17247 -9.39596,0.59324 -13.08101,1.77789 0.33244,6.6296 8.45348,16.1873 0.80843,20.8027 -4.77103,2.88764 -8.95457,12.12996 -13.80567,3.97173 z">
    <title
       id="title948">Oeste de Minas
</title>
  </path>
  <path
     id="85044"
     style="fill:#000000;fill-opacity:1;stroke:none;stroke-width:0.955245"
     inkscape:label=""
     d="m 416.46286,471.70402 c -6.76961,-5.42784 -10.92511,-13.38809 -17.24573,-19.52272 -2.11861,-7.97725 -13.99827,-9.67788 -13.85788,-17.28297 0.15243,-5.50762 9.90504,-11.14062 10.41883,-18.67447 4.83417,-7.46963 4.6365,-16.39795 7.96086,-24.44271 0.59002,-6.35498 10.15325,-16.79982 5.06964,-20.88424 -10.06847,-4.47924 8.38064,-6.96774 4.15015,-14.8977 0.28064,-3.33038 -1.02383,-7.54262 0.0215,-10.42837 6.26294,-3.89999 12.72866,-7.23252 19.02033,-10.97615 6.42983,-2.4629 11.80943,-8.72357 14.29529,-13.9476 -4.53163,-2.07568 -6.44356,-11.63817 0.72321,-9.55575 7.24673,6.22767 13.7175,13.52326 24.13525,13.11895 8.07541,7.86535 10.95152,-7.11298 17.86709,-9.83058 2.11552,1.73503 2.32027,12.28343 7.66178,5.31633 4.65365,-6.81172 14.58471,-11.94014 14.48078,-20.66523 -3.92004,-10.23707 15.77888,-7.17106 11.76843,-19.13361 0.73534,-10.12954 6.36812,-0.0476 9.47826,2.34847 7.73121,6.07966 3.1315,16.91995 8.88236,23.68273 11.23629,3.81738 -1.34433,9.77515 -6.7452,11.97619 -1.13555,4.99811 -2.55461,8.35245 -8.4583,10.20709 -10.56903,6.34098 6.83903,12.72815 12.23068,15.94695 8.63501,2.36423 -4.53514,6.54441 -6.13711,10.67548 -5.93957,-0.0569 -12.22186,5.42118 -4.88585,9.53356 4.48048,4.17601 5.17495,17.77824 -3.36618,13.79262 -4.11242,6.69713 -12.91018,7.41249 -18.67752,12.78915 -6.45985,5.70907 -13.60117,10.50667 -21.97531,12.84915 -10.72099,-1.86317 -10.9279,9.62194 -17.51026,15.58184 -7.02145,-1.35671 -14.21325,-0.16644 -11.59405,9.09166 -1.33955,6.36264 10.23058,14.64867 -0.93828,16.06426 -3.20145,0.34449 -8.83748,-1.60283 -6.73626,3.60001 2.92734,6.85391 -6.12734,17.29201 -7.42599,5.38019 -8.19723,1.7684 -14.28046,-9.72099 -22.07218,-4.40364 4.31336,7.31442 9.65071,13.94915 10.958,22.66965 -5.26279,-6.05649 -4.33411,4.84114 -9.62833,1.70093 l -0.98291,-0.71672 -0.88505,-0.9627 z">
    <title
       id="title946">Central Mineira
</title>
  </path>
  <path
     id="85069"
     style="fill:#000000;fill-opacity:1;stroke:none;stroke-width:0.955245"
     inkscape:label=""
     d="m 715.57882,469.86789 c -4.45667,-6.96658 -10.36592,-13.83274 -19.65136,-12.05329 -10.00386,2.03321 -4.44234,-17.02089 -13.3651,-8.89566 -6.04447,2.66756 -14.2485,16.58814 -19.39357,6.99558 -5.12151,-3.49276 -13.65192,-0.2716 -15.15737,-8.02372 -3.70817,-3.49607 -12.55129,9.33851 -11.10126,1.57501 2.09481,-2.782 9.17714,-9.89412 0.77908,-7.18097 -6.40215,6.88861 -13.26917,-2.04421 -20.34943,-0.85863 -2.33879,-4.71569 -10.88202,-0.58003 -12.41636,-7.9873 0.0694,-4.6304 -10.71873,-13.26261 -0.65686,-11.49369 5.5768,-4.46411 21.66135,-1.1868 18.09527,-11.87637 -2.22145,-7.83165 -7.53098,-16.27902 -16.73472,-15.84895 -7.27292,-7.3315 -12.71556,1.76092 -19.62239,3.39968 -9.27599,-3.73686 6.86937,-12.04927 5.5206,-18.88269 -2.63082,-7.35243 -6.10365,-15.85303 -2.44865,-23.58367 4.29399,-8.31151 14.26354,-10.34655 22.55965,-11.91079 5.37119,-7.28257 -9.36987,-8.06943 -2.67588,-14.40384 3.53044,-5.52293 12.24286,-2.13932 16.96748,-7.72033 5.49334,-3.77483 9.25218,-10.33918 14.42533,-14.23386 0.68294,-6.29144 9.34676,-8.10913 14.02743,-7.33368 2.81351,8.6503 8.7697,15.7152 12.05227,24.16583 6.63812,9.77415 12.42195,-1.42063 17.44503,-5.99905 6.4906,-2.86786 13.71061,-12.58953 20.1955,-3.88121 5.80781,2.56822 -4.94105,8.59265 -1.60641,13.81899 -1.35487,10.23531 11.14517,5.4069 16.8846,8.58795 3.97219,0.22012 4.3701,2.76153 3.48071,6.13898 -3.05473,11.2195 10.25667,6.09704 16.02049,5.80042 3.99362,-0.80525 4.88504,1.45714 4.43883,5.04225 -2.74086,9.25445 10.52838,11.14037 7.58393,19.86263 -5.70353,-1.8065 -14.04022,-2.89096 -19.69976,-0.19391 -0.19656,7.02116 11.79769,5.06858 10.72634,13.33795 1.21308,4.02161 7.56266,5.20374 7.34897,9.51598 -0.0934,7.80317 -0.17238,15.74233 2.35134,23.18591 -1.90201,7.30768 -14.57592,2.49838 -12.33664,12.02709 -2.36208,5.06508 -8.54364,5.95296 -6.31796,13.05468 -0.31921,9.3349 -11.1105,11.97079 -12.83481,21.18527 -1.01967,1.68846 -1.20467,8.39226 -4.53432,4.66741 z">
    <title
       id="title930">Vale do Rio Doce</title>
  </path>
  <path
     id="85090"
     style="opacity:0.98;fill:#000000;fill-opacity:1;stroke:none;stroke-width:0.955245"
     inkscape:label=""
     d="m 726.00274,347.29642 c -3.03106,-2.2982 -0.44978,-7.09901 -0.5877,-10.51468 -0.0108,-2.03484 -3.88658,-1.50024 -5.46396,-2.49361 -4.91006,-1.46194 -10.02187,-1.92551 -15.11876,-2.07864 -0.0823,-4.29687 -1.4836,-9.31789 2.09397,-12.64898 4.61236,-6.52873 -4.40322,-10.9816 -9.77787,-11.59732 -6.25871,1.47729 -10.78502,6.69943 -16.3914,9.55053 -4.0792,3.0853 -8.17283,12.39085 -12.72849,4.19834 -2.97017,-6.21043 -6.42704,-12.15563 -9.87561,-18.11276 -2.5789,-3.34641 -1.02335,-4.38607 2.06812,-5.04666 1.776,-6.76338 -6.82732,-14.69825 -1.02693,-20.01615 3.7317,-2.92379 2.04077,8.14371 8.20666,5.98874 4.49452,-0.0464 8.30467,5.06255 11.01737,5.42379 2.98048,-6.79567 11.01569,-8.92949 13.44666,-15.79521 5.29478,-3.53646 6.82502,-12.68748 13.32977,-13.42637 5.71692,0.78978 14.79906,8.41594 16.78251,-1.02745 1.72676,-6.08391 1.03748,-13.45221 8.13803,-16.34415 6.60364,0.14183 13.64515,-2.20604 18.34515,-7.55963 2.37567,-2.99186 6.82229,-12.5977 9.32978,-4.46362 5.89287,1.22813 13.41542,-0.43722 19.33793,-2.48885 5.10218,-3.73305 13.89255,3.87908 6.53369,7.7605 -1.79541,7.34268 -5.84409,13.91159 -8.15803,21.03108 0.0261,5.1091 0.64897,10.19565 0.97206,15.29252 4.66699,1.20755 11.42167,2.77304 11.05563,8.8582 1.07576,6.38273 8.49875,8.14789 12.23419,12.74181 2.72407,3.57486 11.13571,6.28416 4.82168,11.23607 -0.75744,3.44861 0.66299,7.88386 -4.45034,4.53166 -3.58926,-4.83423 -13.10563,-1.82016 -18.7826,-1.51567 -5.46915,3.86803 -12.05321,7.03959 -18.06017,1.72794 -6.27979,-3.27406 -11.51175,8.03213 -2.57373,7.71939 6.45705,1.64509 5.09653,8.24665 -1.53599,5.4804 -6.542,-1.00056 -13.18936,1.89016 -18.35121,5.68001 -6.45865,3.97821 -2.71714,12.8694 -8.36181,17.00761 -1.77378,1.71351 -4.27658,1.58186 -6.4686,0.90116 z">
    <title
       id="title932">Vale do Mucuri
</title>
  </path>
  <path
     id="85067"
     style="fill:#000000;fill-opacity:1;stroke:none;stroke-width:0.955245"
     inkscape:label=""
     d="m 556.40804,362.7223 c -5.4091,-3.93601 -23.54802,2.01736 -20.58306,-7.2584 6.02312,-4.32541 14.81084,-11.2504 2.60209,-14.25075 -2.27269,-2.90365 -17.03347,-7.13164 -11.07266,-10.50653 8.75091,-4.6003 11.14315,-13.96016 21.0184,-17.45976 1.12591,-10.5188 10.99021,-17.48486 13.60808,-28.29528 4.78868,-4.97695 16.04823,-0.7098 20.56395,-8.4415 10.55578,-2.20147 4.54293,-16.11745 16.20221,-19.1392 9.43365,-9.75235 25.24508,-12.39248 27.94852,-27.46731 2.03389,-10.85672 29.69508,-11.40375 16.65084,-24.06416 10.53658,-3.75377 22.52527,3.47917 31.56768,-6.87434 11.67089,-1.55028 9.54567,-18.68265 23.23064,-16.47874 2.52795,-13.32299 13.92157,-22.58526 25.33456,-28.93432 9.75002,-4.89907 21.66831,-0.44792 29.9734,-10.0034 12.60385,1.24981 22.16319,14.07809 33.47076,9.14256 11.22075,4.23188 22.54715,8.22568 33.04061,14.36842 7.13175,5.18986 18.75221,13.16296 5.1498,19.16729 -8.66707,7.1678 -12.46952,21.51608 -23.6126,23.34738 -7.61838,5.31244 -7.70586,18.60413 1.04522,20.81496 -11.7095,7.40804 -20.66223,-10.76759 -33.71275,-2.45742 -10.16197,0.3766 -18.63401,-3.60703 -25.30581,7.72838 -9.07746,6.08011 -23.82253,5.13303 -23.55878,20.56353 -3.80522,11.6937 -22.57464,-6.11352 -26.60693,11.23191 -5.33293,12.43897 -22.79776,25.0004 -30.87759,7.97366 -17.2277,-2.035 4.12817,25.56785 -13.65536,21.51695 -12.75736,3.82405 -17.8502,18.8972 -29.7788,24.68277 -10.23654,4.02994 -21.49163,-5.67322 -29.76017,3.7459 -4.38819,2.65362 -5.30326,12.32666 -11.3272,10.86998 -5.69729,-1.47176 -9.91278,-1.16651 -11.71705,5.20895 -12.40408,4.58778 -5.60086,15.45884 -2.50085,23.55837 -2.57794,0.42104 -4.98396,-1.47379 -7.33715,-2.2899 z">
    <title
       id="title938">Jequitinhonha
</title>
  </path>
  <path
     id="85065"
     style="fill:#000000;fill-opacity:1;stroke:none;stroke-width:0.955244"
     inkscape:label=""
     d="m 473.38656,322.6207 c -6.68177,-2.0851 -14.28992,0.33299 -18.11827,-7.29153 -6.50035,-12.14696 -19.90984,0.95965 -25.87604,-10.23535 -17.13086,1.85975 4.31905,-10.61482 -2.80119,-19.10995 9.40209,-7.87503 3.05533,-17.49128 -6.86261,-12.0111 -5.41866,-8.47819 10.93647,-27.27305 -0.27557,-28.85718 9.09889,-21.13608 -28.87117,-8.88825 -30.30622,-26.77513 -7.42124,-5.22599 16.26671,-17.81947 -1.81955,-17.44217 0.90089,-12.06088 -25.60264,-5.18901 -18.14422,-14.36366 10.24863,0.14546 13.52392,-21.6687 22.07458,-7.81642 14.06921,-6.09773 17.2956,-24.08005 22.20558,-36.84555 1.78262,-8.80787 -2.63411,-16.90355 -8.05932,-18.46027 8.29458,-4.55552 12.16361,-13.67941 -0.8461,-13.2799 -2.33892,-14.55078 21.94894,-15.63694 29.7297,-24.37494 13.97067,-10.83793 31.77959,-17.16316 40.82771,-32.42467 12.33621,-11.59954 31.58446,-1.90357 45.38647,-11.41201 5.76271,-1.52162 28.0035,-7.0841 21.6346,4.7145 -11.04088,13.08816 -2.67515,31.45151 14.98502,29.1324 6.65288,9.68509 13.72284,6.02141 18.60073,-2.53843 16.8659,-2.54108 33.30937,2.77092 45.66362,14.10297 14.19245,0.88156 18.05302,20.53191 33.64181,17.01216 10.16418,-6.54127 10.41319,9.94496 21.44145,4.53004 7.57306,-2.37665 14.41304,-8.60928 20.98179,1.82339 13.79124,7.4945 29.3403,17.86786 25.33112,36.22165 -2.38569,10.86885 -25.38172,14.66008 -25.03817,29.58534 0.5627,10.35203 -19.8216,0.43949 -16.31465,16.03226 -9.07774,4.08707 -20.84233,14.88682 -32.50743,8.73209 -7.86875,-0.99443 -13.2614,7.33597 -3.85994,9.69896 -6.4073,8.52822 -20.44806,8.18205 -23.38653,21.26798 -3.81426,14.04806 -21.93192,16.74964 -30.87629,28.06091 -9.29403,1.12263 1.66698,16.03385 -8.25364,10.01751 -4.71398,15.28779 -28.04137,4.14638 -27.66436,24.18103 -2.54539,10.47027 -16.36492,16.57867 -14.82808,1.06864 1.32428,-9.39399 -18.40776,-35.0277 -19.34467,-13.33711 0.91104,10.72305 -16.19681,3.99968 -11.80897,13.92213 3.08925,8.26407 -7.64611,12.1778 -10.63265,18.62006 -6.59477,12.44297 -5.2336,-11.51308 -13.84795,0.26237 -4.0671,1.13513 -6.3701,12.13519 -11.03176,7.58898 z">
    <title
       id="title940">Norte de Minas
</title>
  </path>
  <path
     id="85039"
     style="fill:#000000;fill-opacity:1;stroke:none;stroke-width:0.955245"
     inkscape:label=""
     d="m 388.29539,354.14022 c -6.80881,-4.85106 -17.6966,0.78188 -23.33172,-2.67276 -8.23886,6.68683 -13.62149,-2.56239 -22.19366,-6.10532 -8.64379,-4.16999 -14.49916,-13.26863 -23.59165,-11.17399 -3.72153,-2.20933 -1.17092,-10.2726 -9.14798,-6.002 -8.54483,3.11929 -4.77967,-5.4078 -7.32582,-10.36157 0.11931,-7.9512 -4.80359,-11.06187 -10.14241,-6.66973 -15.63887,-5.24067 3.84907,-18.77679 -2.00907,-28.4751 -7.43066,-3.6263 -25.07012,-0.62872 -13.76306,-12.01017 6.52585,-9.0769 18.64903,-14.98361 20.57854,-26.07773 -3.83854,-9.99665 -1.73066,-23.04941 -11.0273,-30.28386 -12.95206,-5.33332 -8.00539,-17.92349 -2.4019,-27.11333 1.12014,-13.50729 14.64497,-21.44947 26.74427,-23.64429 3.53743,-2.16757 13.43054,2.0491 12.52832,-4.01197 0.54892,-10.78414 -12.54112,-19.6961 -8.29329,-29.72365 4.52494,-5.22924 18.74819,-17.52742 2.66292,-16.12285 -6.12337,-4.54474 2.40397,-17.70117 11.45691,-12.66086 8.48244,5.51297 21.63135,1.01112 13.87301,-9.15177 -3.97411,-8.58705 5.20218,-25.78074 11.39543,-11.71749 4.42991,8.19372 14.31233,19.92724 24.90381,11.8036 10.34175,5.77718 -6.18026,14.25984 -1.67551,22.49983 5.24932,2.93351 8.12649,-10.62913 16.0054,-6.34823 5.61037,-3.05529 7.97156,-2.22629 10.11255,4.29892 7.88296,-0.84127 9.33287,4.36669 1.4839,7.49311 -6.13897,6.2706 0.34671,7.85887 5.27733,9.14693 3.25452,11.09847 -1.9757,21.55216 -6.49021,31.39656 -2.53277,8.94307 -13.09622,23.48756 -18.79637,9.17327 -4.96754,6.8626 -12.81043,14.03276 -20.75942,17.64283 1.4564,13.0672 19.38571,2.27325 21.84904,15.47031 9.12159,0.30063 5.3332,3.50488 0.77813,8.0541 -6.40223,6.54339 4.80954,11.8232 6.27598,18.47537 7.39627,2.71975 29.46211,1.73054 24.60102,13.56155 -12.28379,6.24369 10.30507,3.35147 2.77436,10.57185 -0.20398,7.97339 -11.01925,19.67904 0.47626,23.64597 6.88918,-6.05476 11.68473,1.20754 4.53878,5.94565 -5.46228,3.97856 4.64643,13.4518 -5.28306,17.40108 -3.34972,9.07744 4.71356,7.28424 9.82047,7.30769 2.57244,7.34905 12.37776,4.20042 11.92464,13.28319 -5.77873,-0.65213 -6.14353,3.15421 -1.41695,5.02524 -8.45861,7.46052 -20.25837,10.66535 -29.03889,18.17943 -1.98364,8.90921 -11.93711,2.93214 -15.64507,4.31284 -3.40764,2.53364 -1.07943,11.54524 -7.72773,5.63735 z">
    <title
       id="title942">Noroeste de Minas
</title>
  </path>
  <path
     id="85030"
     style="fill:#000000;fill-opacity:1;stroke:none;stroke-width:0.955245"
     inkscape:label=""
     d="m 169.41751,487.32485 c 2.53848,-11.8054 -12.75928,-25.76036 -15.04511,-9.328 -16.12764,3.11621 -9.49364,-13.82812 -3.6719,-20.15876 -10.36704,-2.8784 -21.02365,-3.78006 -31.07617,-5.74652 -13.14582,9.42712 -28.470354,-0.0106 -42.578177,-1.28617 -13.366779,-2.88611 -27.021894,-11.51444 -37.536164,1.82254 -8.335052,-0.91956 -23.687042,17.23126 -21.601216,-0.3668 -3.901548,-10.36491 1.10856,-16.57301 5.288639,-24.48561 -7.011023,-7.91493 16.896458,1.39028 7.231964,-9.11637 -2.187637,-9.28441 13.596187,-20.70902 22.640141,-25.74269 4.558222,-11.15003 13.74783,-26.28709 26.821746,-27.75103 9.2948,1.55489 12.884601,-11.02261 22.347287,-5.31742 13.35709,6.97844 23.6563,-18.01012 31.02136,0.25905 12.65473,3.84517 14.34768,-25.19782 28.72398,-18.13505 12.45789,-2.48996 25.94842,3.75251 39.98362,-0.40223 13.95491,2.5475 27.44609,3.64136 40.78918,8.92301 14.28059,-0.15718 21.45844,-14.70534 32.44928,-21.35108 10.09441,-2.57251 16.09832,-14.58196 23.84485,-17.65358 1.02696,11.02259 4.72249,23.51803 16.01578,19.15745 -3.46624,10.36847 16.47507,2.44258 19.76966,12.46368 12.9684,6.94276 22.21975,18.14909 38.10006,10.86896 7.29988,0.71087 12.82931,0.19779 19.30913,4.08056 2.93228,-6.83115 12.62488,-8.74342 18.84904,-6.30036 3.56215,10.16086 -16.46334,15.97605 -2.2503,22.24303 -6.53469,12.64115 -9.07303,26.70481 -14.26716,39.75842 -5.81636,12.30472 -14.8302,25.97036 -26.69414,30.49908 -7.55965,0.3598 -8.09352,10.27781 -17.20473,6.58026 -8.47717,-2.00728 -9.88274,1.48042 -10.48065,9.46885 -12.25136,-6.38828 -17.45047,10.22119 -27.73206,10.95938 -7.8453,6.24345 -12.24366,9.42704 -20.55881,0.0649 -9.01105,-4.3181 -15.11636,-22.44042 -25.58628,-9.22871 -6.64483,-5.3715 -21.88256,-7.25931 -24.74609,4.88223 -3.56898,4.19889 -2.08549,-10.72838 -6.6823,0.0133 -7.27488,5.11206 -18.6704,-11.52962 -18.58553,2.77014 -12.38323,0.8159 -25.62446,-2.00519 -37.24,3.01378 -5.97951,0.82241 -7.14401,25.84096 -9.64893,14.54179 z">
    <title
       id="title944">Triângulo Mineiro/Alto Paran
</title>
  </path>
</svg>
