<?xml version="1.0" encoding="UTF-8" standalone="no"?>
<svg
   xmlns:dc="http://purl.org/dc/elements/1.1/"
   xmlns:cc="http://creativecommons.org/ns#"
   xmlns:rdf="http://www.w3.org/1999/02/22-rdf-syntax-ns#"
   xmlns:svg="http://www.w3.org/2000/svg"
   xmlns="http://www.w3.org/2000/svg"
   xmlns:sodipodi="http://sodipodi.sourceforge.net/DTD/sodipodi-0.dtd"
   xmlns:inkscape="http://www.inkscape.org/namespaces/inkscape"
   inkscape:version="1.0 (4035a4fb49, 2020-05-01)"
   sodipodi:docname="MesoBA.svg"
   id="svg664"
   version="1.1"
   viewBox="0 0 850 850"
   style="fill-rule:evenodd;image-rendering:optimizeQuality;shape-rendering:geometricPrecision;text-rendering:geometricPrecision"
   height="850"
   width="850"
   xml:space="preserve"><metadata
   id="metadata668"><rdf:RDF><cc:Work
       rdf:about=""><dc:format>image/svg+xml</dc:format><dc:type
         rdf:resource="http://purl.org/dc/dcmitype/StillImage" /><dc:title></dc:title></cc:Work></rdf:RDF></metadata><sodipodi:namedview
   inkscape:current-layer="svg664"
   inkscape:window-maximized="1"
   inkscape:window-y="-8"
   inkscape:window-x="-8"
   inkscape:cy="450.2072"
   inkscape:cx="432.88539"
   inkscape:zoom="0.65874324"
   showgrid="false"
   id="namedview666"
   inkscape:window-height="705"
   inkscape:window-width="1366"
   inkscape:pageshadow="2"
   inkscape:pageopacity="0"
   guidetolerance="10"
   gridtolerance="10"
   objecttolerance="10"
   borderopacity="1"
   bordercolor="#666666"
   pagecolor="#ffffff"
   inkscape:document-rotation="0"
   scale-x="1"
   units="px" />
<defs
   id="defs4">
<style
   id="style2"
   type="text/css">
<![CDATA[
.str5 {stroke:#1F1A17;stroke-width:76;stroke-linecap:round;stroke-linejoin:round}
.str2 {stroke:#72706F;stroke-width:76;stroke-linecap:round;stroke-linejoin:round}
.str8 {stroke:#C2C1C1;stroke-width:76}
.str9 {stroke:#D82B40;stroke-width:76}
.str6 {stroke:#1F1A17;stroke-width:353;stroke-linecap:round;stroke-linejoin:round}
.str4 {stroke:#72706F;stroke-width:353;stroke-linecap:round;stroke-linejoin:round}
.str1 {stroke:#131516;stroke-width:353;stroke-linecap:round;stroke-linejoin:round}
.str7 {stroke:#1F1A17;stroke-width:353;stroke-linecap:round;stroke-linejoin:round}
.str3 {stroke:#72706F;stroke-width:353;stroke-linecap:round;stroke-linejoin:round}
.str0 {stroke:#131516;stroke-width:353;stroke-linecap:round;stroke-linejoin:round}
.str11 {stroke:#1F1A17;stroke-width:706}
.str10 {stroke:#D82B40;stroke-width:1058}
.fil3 {fill:none}
.fil4 {fill:#FFFFFF}
.fil0 {fill:#9DBDDD}
.fil1 {fill:#EEDDB3}
.fil2 {fill:#F6EAD9}
.fil6 {fill:#D82B40}
.fil5 {fill:#ECECEB}
]]>
</style>








</defs>





<path
   id="85095"
   style="stroke-width:0.00322563"
   d="m 372.6448,292.02117 c -1.83111,0.78001 -8.15396,5.18455 -7.66866,4.8145 16.60452,22.39321 -23.05342,12.2063 -22.14882,19.40715 2.38788,5.10104 15.6995,13.05185 12.66978,19.16743 1.66362,0.0718 4.64646,2.75626 2.25933,2.02762 3.42749,1.89292 4.80136,11.23942 -0.15579,13.70068 -2.20457,1.45925 -5.80019,5.13525 -6.74016,5.49708 3.71582,-2.29089 -2.3897,11.43709 5.71175,0.0433 10.61064,-4.28982 11.46403,32.21319 -1.57302,32.53376 0.96772,7.94468 4.1098,9.27615 6.17905,16.34404 -2.59662,2.75409 -0.73338,5.19074 -0.78441,9.92133 3.67358,10.82612 -9.79162,7.62207 -16.41369,4.77799 -2.21312,16.99061 -19.08191,34.40028 -31.57895,40.78554 -0.37261,-0.084 -2.41446,-4.4807 -3.17779,-3.21819 -5.44876,-0.51497 1.58908,-8.54735 -3.16715,-3.22396 -0.15093,10.26405 -6.03028,19.92352 -7.12518,31.30505 -4.29438,10.59902 -12.85495,20.05794 -15.90407,30.2985 -1.72025,-1.605 -0.10171,2.85656 -10e-4,2.32833 1.13977,2.13693 -1.73242,7.70194 0.20554,5.7012 3.29966,0.0198 14.02451,2.94772 13.25787,5.78229 -0.59499,-4.21273 3.28385,2.44775 3.10479,0.0564 2.18486,0.59004 11.098,0.94084 10.27996,4.54949 -2.99676,1.97705 2.608,-0.10033 0.8253,-0.0128 1.3119,-0.19223 3.29513,-3.21341 2.82837,-3.1085 2.13659,-4.08977 2.05902,0.37706 3.81862,-3.12915 3.30445,-1.56009 9.1728,-3.17884 11.70723,-4.55732 0.71445,1.03774 9.74973,-3.16589 7.04535,-0.0633 1.24799,-1.20743 8.67898,-0.53362 5.61763,1.45623 3.94346,-0.90779 3.91367,1.64966 8.55245,0.37905 1.53234,1.68657 10.34418,1.99233 8.16103,4.52037 2.35952,1.41633 -2.11031,2.03834 2.55178,1.76156 4.38931,0.5411 5.9329,6.56673 12.00873,7.46753 3.28352,0.80557 -2.6155,4.79219 1.27923,2.36199 0.71298,-0.67103 2.4413,-0.22048 3.29372,1.34911 3.56017,-1.40465 3.59736,6.41483 3.57058,2.08829 1.41528,0.98856 6.08174,-0.8351 6.07812,2.11265 2.55538,1.25447 10.78864,5.00953 11.57676,8.64496 4.31167,-0.0628 9.69345,3.80593 11.89043,3.93473 4.21793,-1.02235 8.68414,-3.85069 11.15261,1.22657 3.74046,6.23378 3.72268,2.88586 11.53916,2.8412 7.16878,1.57594 13.76978,-12.29373 20.27927,-0.5384 15.87009,12.5677 35.51118,28.25829 35.75126,46.34953 2.61391,-1.2694 9.7744,1.86743 10.38028,1.58104 3.70953,-4.64827 12.7008,-1.67665 12.97576,-7.45571 4.15292,-1.87644 3.20421,-0.14289 6.39714,-0.39497 1.02604,4.17933 4.91871,2.16879 5.39351,-0.7314 3.89569,-3.5003 6.36998,7.60241 6.58676,2.77407 5.57021,-4.85231 8.528,3.63262 13.4025,4.67183 0.67308,2.68798 1.55332,2.80614 3.39493,4.2597 0.33156,0.0101 4.20312,-3.6207 5.14701,-2.35808 2.73815,-4.22421 6.42522,3.95944 5.21769,2.96977 1.123,0.41269 2.98787,1.37029 3.80436,0.95159 0.92241,-1.50132 4.75928,1.88184 3.55759,0.0186 2.8187,0.78461 6.70654,-2.81713 9.18364,0.71292 -0.72891,-0.8764 3.25502,6.07352 2.31169,2.63253 3.02535,2.72183 5.542,5.07372 6.09682,3.71234 4.15779,-2.33827 4.10002,5.49137 4.7807,6.5594 0.10045,-4.55798 4.11144,3.56766 2.80356,0.0274 0.89523,0.0299 2.96575,3.30398 1.74705,0.41733 2.6794,1.29079 2.43436,2.22787 1.46547,0.10032 2.79843,-0.96535 10.0984,1.82239 3.65506,-1.2643 -3.76919,-1.4105 -5.34608,-10.07741 -1.22151,-8.29133 1.04617,-0.0299 7.39557,-0.11534 6.47804,0.83374 0.49457,2.43097 2.13687,-4.41381 3.40035,-3.03279 2.05261,-5.4417 12.30283,-6.534 12.24926,-7.85022 2.18161,-0.31729 8.1348,1.61884 7.8249,-0.47563 -0.83404,-1.49788 2.80986,-4.59768 0.5071,-2.7935 -1.92191,-3.65668 2.32692,-6.92156 -2.40767,-4.893 -2.87688,3.49303 -6.67553,-2.86822 -5.38233,0.91305 -6.00775,5.82905 -3.22249,-8.14535 -9.58931,-4.76248 -6.14096,-10.40632 -10.07635,-30.11808 -10.95936,-40.64299 0.61648,-0.22965 -2.50063,-2.1134 -1.60426,-3.3734 -7.44143,-3.17955 -2.78601,-12.02667 -0.93087,-15.63774 0.59533,-0.99778 3.04282,-4.0162 3.47389,-2.81383 -1.12257,0.28894 2.18256,0.12701 0.85687,-1.12789 2.35132,-1.54276 7.7024,-7.40669 9.30356,-4.80347 -0.58347,-4.58194 2.15297,-7.60101 2.97592,-11.07887 -0.21733,0.79005 -2.64741,-5.42819 -0.80357,-3.01737 -1.37082,-5.59276 3.14219,-7.76802 0.95364,-11.49875 1.86591,-3.44359 -1.09861,0.71772 -2.67591,-2.84188 0.0668,0.17659 -2.26006,1.71659 -1.89327,0.43536 -1.79742,2.31123 -3.30077,3.04521 -3.70948,1.7173 -1.9058,1.53914 -6.46788,-0.0176 -10.40611,-1.72202 -7.85468,-3.6427 -3.50786,-22.15919 2.60491,-16.90306 1.49755,-0.0279 4.07973,-1.0564 1.24868,-1.12929 -0.2601,-5.53711 8.86993,1.13408 4.3035,-2.27308 1.61982,-2.01262 2.52894,-4.8247 3.55343,-5.54335 0.48058,-4.36851 4.14015,-6.42455 6.01411,-10.73945 5.1689,-1.0747 1.39622,-5.92814 2.63699,-8.0856 -2.53104,-2.14477 4.01724,-2.21099 -0.59152,-2.70518 0.95216,-0.27406 -3.19632,-2.10991 -2.30826,-3.83138 -1.04456,-1.93946 -1.26841,-4.85954 -2.47438,-5.24067 -1.72948,-3.33475 -0.36813,-3.70826 -2.62935,-5.2019 0.76374,0.4445 -1.16869,-3.17375 -0.36548,-0.0945 -4.89914,-5.74176 7.10983,-12.55969 11.61524,-7.27744 2.63433,-6.0925 8.72483,-3.07144 10.87247,-7.3393 2.94439,-0.74431 -1.02119,-0.55554 1.77957,-1.17396 0.006,1.32549 2.97493,-5.82245 1.09061,-3.16278 -1.93544,-4.28458 2.75065,-3.83659 2.81018,-6.57389 1.48368,0.24257 1.95995,-6.88286 2.5365,-4.2638 1.42216,-0.78637 1.86379,-1.45731 4.05456,-0.0851 -1.27684,-1.34969 2.21087,-0.19928 1.84727,1.4435 -0.71271,-0.15824 3.14656,-5.39414 4.60875,-4.28774 0.58342,-4.9127 -0.60309,1.8486 -0.73229,-1.72167 0.0666,-4.75667 6.27707,-8.45168 0.30385,-6.71409 0.24982,-2.36695 -2.20302,1.54909 -4.50125,-1.71086 -1.14819,-0.1441 -3.61064,-5.03149 -7.03629,-4.32814 -0.14423,-3.88485 -2.31937,2.30248 -5.68679,2.38438 -2.90459,1.03512 -2.38522,-3.60385 -2.97928,-1.93292 0.23739,1.51519 -3.65259,-5.83679 -3.39782,-4.13531 -1.86253,0.12146 -10.08481,-8.75219 -7.23093,-4.84154 -14.6578,-10.3029 -19.56434,10.48839 -32.33558,8.28887 -7.74414,1.34326 -22.56785,14.89522 -28.58418,4.39574 -2.93317,-2.40706 -3.02293,-6.04538 -3.29945,-7.23021 -2.56742,1.28403 -5.30519,6.0809 -9.8199,3.68515 -5.09818,0.9802 -7.9069,2.75996 -12.9473,3.50157 -5.08551,-0.76265 -8.29895,-6.13982 -11.15142,0.29553 -2.82143,-0.5734 -5.34878,-3.52058 -4.85464,-6.29821 -0.65853,-0.85766 3.43825,0.83495 -0.96345,-1.78862 -3.32881,-13.03195 10.5363,-48.01786 -12.63359,-35.86794 -3.983,7.38139 -7.43458,-4.93395 -5.17928,-1.01017 -1.07286,-3.96539 2.64656,-5.56327 3.84486,-6.61434 2.7604,1.50035 -1.04827,-2.87681 -0.41791,-2.21518 -3.18733,-5.05613 13.88289,-9.08901 4.43943,-16.66129 -7.76756,-14.95747 36.46673,0.5146 11.33483,-15.45244 -10.96264,5.08328 -23.77824,-17.45883 -30.76618,-6.13943 -10.75078,2.35502 -2.08626,10.03582 1.10661,13.78786 1.61466,6.35316 0.37406,11.06451 -5.75365,15.94102 -0.85673,2.11888 2.9342,8.66089 -1.01627,11.70093 -3.89901,-1.38532 -3.24685,-4.75929 -6.83971,-3.40227 -1.53121,-0.0688 -1.17506,-0.46585 -0.4721,-0.86893 -3.89859,-1.71939 1.27984,2.36279 -6.55416,0.68585 -7.73673,2.82481 -8.0719,-6.90886 -7.20379,-12.24506 -5.86007,6.07471 -8.30231,-6.73812 -14.01221,-8.03973 -0.16763,-0.47556 -5.05514,-2.42244 -6.48162,-2.83118 2.4874,11.49933 -2.99665,17.46171 -12.77418,19.22652 -3.00412,-3.0236 -2.63864,-4.07376 -3.11562,-6.80162 11.35273,-6.80229 -15.87666,-23.20201 -5.39309,-24.82535 1.20572,-4.81791 -8.95582,-13.60981 -10.23477,-14.50155 -4.26194,2.89872 -10.71883,1.5161 -14.76583,0.7244 -3.3654,-1.96463 -8.47343,-4.06708 -12.25549,-2.30319 -2.30566,-1.55109 -4.79029,2.79172 -3.87103,-0.89368 -0.0604,-0.52106 -0.79848,0.8091 -0.47461,1.11465 z m 31.80883,-0.26714 c -0.0434,0.99878 0.2714,-1.85024 0,0 z m -34.27838,1.24412 c 1.6608,0.39252 -0.36336,-4.60354 0,0 z m 1.82744,-0.36864 c -0.11204,0.008 0.12168,-0.003 0,0 z m 21.75696,0.31526 c 0.37583,0.77081 0.46662,0.67355 0,0 z m -27.80388,2.49785 c -0.54667,1.83555 0.77044,-1.77997 0,0 z m -2.46375,0.0553 c 0.62969,1.1115 1.71221,0.61549 0,0 z m 1.32971,0.85826 c 1.82399,0.11803 0.65204,0.0557 0,0 z m -1.0354,0.5012 c -2.45273,0.24808 2.18182,0.60517 0,0 z m 123.31746,4.48701 c -0.37409,0.32278 0.50798,-0.4045 0,0 z m -9.99068,8.30952 c 0.35429,0.0822 -1.31761,-2.39911 0,0 z m -62.2435,-0.75773 c 0.11356,0.90481 1.37514,1.79653 0,0 z m 62.22195,1.16374 c -0.30284,0.21393 0.0869,-0.0399 0,0 z m -61.57099,0.0784 c -1.81735,1.91323 1.70475,4.33916 0,0 z m -73.71143,4.6148 c 0.0863,0.0796 -0.0499,-0.52328 0,0 z m -0.0239,0.35515 c -0.11698,0.62655 0.11974,-0.24462 0,0 z m -1.35846,0.52458 c -1.3778,0.78665 3.01254,-0.69637 0,0 z m 95.71492,3.01991 c -0.20258,1.41142 0.88488,-2.79099 0,0 z m 11.84277,8.27951 c 0.85235,0.16631 0.45892,0.0141 0,0 z m -25.22528,0.49917 c 0.9661,1.18147 2.37053,2.6066 0,0 z m 32.58692,1.88947 c 0.10998,0.73535 0.13154,0.44932 0,0 z m 1.20359,0.73348 c -0.18722,1.02735 0.42341,-1.54609 0,0 z m -36.30057,5.63483 c 0.81755,0.57357 2.74976,-0.1176 0,0 z m -63.93034,1.44637 c -0.006,0.34559 0.26513,-1.4351 0,0 z m 1.62441,0.21108 c -0.21753,0.27139 -0.53553,-0.43735 0,0 z m 110.26565,4.2864 c 0.0175,0.26082 0.0914,-0.20427 0,0 z m 31.17811,1.05366 c -2.20043,0.78569 -1.28503,0.90804 0,0 z m -26.01492,0.92062 c 0.0262,-0.004 -0.0128,-0.0134 0,0 z m -2.52947,0.20508 c -0.27669,0.0724 -0.21053,-0.21787 0,0 z m 2.91053,-0.0277 c 0.01,-0.0301 -0.0698,-0.0427 0,0 z m 25.13671,0.37774 c 1.0288,1.10499 0.61596,-1.15826 0,0 z m -24.73147,0.0997 c 0.502,-0.45456 -1.36266,-0.78488 0,0 z m -2.68114,-0.32823 c 1.07609,0.26483 -0.91916,0.2975 0,0 z m 2.99912,0.83551 c 2.03708,0.71086 -0.31202,-1.78129 0,0 z m -0.59457,-0.34383 c 0.43474,0.19686 -0.0978,0.76758 0,0 z m 23.49067,0.1629 c -0.32512,1.66142 -1.59671,1.18007 0,0 z m 0.29436,0.16511 c 0.12798,0.72625 -1.14479,1.5598 0,0 z m 0.83182,0.2595 c 0.0798,0.064 0.003,-0.0505 0,0 z m -0.17883,0.1717 c 0.23941,0.38571 -0.96675,0.65576 0,0 z m -1.04658,0.80663 c -0.32145,0.35433 0.10466,-0.68383 0,0 z m 0.4,0.65198 c -0.63497,0.10794 0.14606,0.10533 0,0 z m -0.7678,0.35687 c 0.66666,-0.28265 0.19264,-0.007 0,0 z m 0.8196,0.70743 c 1.90261,0.53709 2.19778,-1.19988 0,0 z m -0.71057,-0.5786 c -0.17844,0.17588 0.42917,-0.0484 0,0 z m -0.55192,0.54774 c -0.19347,0.61789 0.68834,-0.11601 0,0 z m -0.0181,0.44262 c 0.0645,1.15677 0.94019,1.00355 0,0 z m -138.81742,2.42452 c 0.44602,0.63329 -0.78241,-3.11787 0,0 z m 137.41469,-0.08 c -1.4633,0.20384 -1.36712,1.42713 0,0 z m -138.41655,0.83693 c -1.33452,0.25892 2.36799,-0.15527 0,0 z m -5.02348,4.1491 c 0.0536,0.88808 0.40053,-0.84596 0,0 z m 0.21176,0.63529 c -0.0189,0.12739 0.16248,-0.11901 0,0 z m -1.68673,0.42853 c 0.11293,0.12221 0.26208,-0.17922 0,0 z m 201.47643,30.16308 c -1.45096,0.91579 -0.59057,3.43229 0,0 z m 1.9506,2.62491 c -1.30601,2.01166 1.61625,-1.8093 0,0 z m 79.22208,-0.0684 c 0.0768,0.95314 0.82844,1.42401 0,0 z m -82.23884,0.54648 c 0.6663,0.75542 1.39734,0.28215 0,0 z m 2.08537,0.32831 c 0.002,0.003 0.29147,-0.11162 0,0 z m 80.59459,0.41041 c 0.3087,1.01931 0.92073,1.09382 0,0 z m 0.98651,2.12428 c -0.17265,0.0741 0.25672,-0.10326 0,0 z m -7.20355,1.33647 c 0.30339,0.86328 -0.64167,-0.53407 0,0 z m -105.37142,0.0574 c 0.14529,0.11057 0.24408,-0.46824 0,0 z m -0.04,0.0389 c -0.29961,0.39937 0.37072,-0.11849 0,0 z m -0.56319,0.0512 c 0.0559,-0.0179 -0.0626,-0.0414 0,0 z m 13.19272,1.09254 c 0.43557,0.50522 0.31501,0.0872 0,0 z m 108.17897,1.91121 c 0.26076,0.30829 -0.0349,-0.25519 0,0 z m 6.87801,1.23916 c 0.10921,0.12305 -0.12413,-0.1801 0,0 z m -2.99577,0.19856 c 0.0632,0.0289 0.1276,-0.15924 0,0 z m 12.76872,1.44742 c 0.56171,0.0776 -0.64962,-1.6935 0,0 z m -8.64987,0.95769 c 0.79727,0.9172 1.82891,0.65567 0,0 z m 3.83521,0.20067 c -2.74017,0.77272 1.48226,0.55001 0.0999,-0.0312 -0.0116,-0.0582 -0.0593,0.0254 -0.0999,0.0312 z m 6.7833,0.13442 c -0.47895,0.65541 0.60564,-0.41374 0,0 z m -1.22997,0.58326 c 0.34384,0.12308 0.51521,-0.31806 0,0 z m -1.44266,0.0699 c -0.70738,0.78714 0.8845,-0.63658 0,0 z m -3.0375,0.49044 c 1.30689,0.96639 2.58112,-0.17359 0,0 z m -5.4128,4.32237 c -1.01784,0.88605 -0.55416,2.12783 0,0 z m -1.70642,1.64336 c -0.28561,0.16877 1.69514,3.09207 2.26427,2.59785 2.95813,2.70244 0.62441,0.39761 2.97411,-0.30268 -0.43093,-0.41705 -4.0922,-1.19077 -3.13631,-2.02176 -0.40077,0.6337 -2.93755,-1.26945 -2.10207,-0.27341 z m 2.16416,0.20371 c 0.12667,-0.0654 -0.17307,-0.0511 0,0 z m 0.41092,0.30113 c 0.70044,-0.22604 -0.85122,-0.31703 0,0 z m 5.21895,0.88039 c -1.1922,0.20947 -0.28005,0.23121 0,0 z m -7.46405,0.29965 c -2.53512,1.27984 -0.72423,0.23416 0,0 z m 5.92415,0.17259 c 0.14694,0.15633 0.36147,0.25736 0,0 z m -10.24269,0.69157 c 0.27954,0.06 -0.40409,-0.098 0,0 z m -7.36354,0.2059 c 0.0336,0.23915 -0.0269,-0.2322 0,0 z m 18.69675,0.22741 c 0.47897,0.78961 0.79253,0.72402 0,0 z m -12.82363,0.84859 c 0.15563,0.55179 0.46043,-0.52385 0,0 z m 9.1092,0.12386 c 0.0408,0.83146 0.06,0.46423 0,0 z m 1.85792,0.93413 c 0.49178,0.48833 -1.22124,-1.66538 0,0 z m 0.2574,0.31897 c 1.23249,1.51292 1.82594,-0.017 0,0 z m -18.09749,0.29342 c 3.08328,1.53187 0.11512,-0.71589 0,0 z m -0.28261,-0.15221 c -0.34107,-0.10184 0.17696,0.2193 0,0 z m 16.77544,0.56642 c 0.17839,0.18223 -0.0423,-0.21742 0,0 z m 0.0464,0.10803 c 0.16562,0.977 2.5843,1.26838 0,0 z m 1.1319,0.93232 c 1.24387,0.52667 0.27618,-1.06746 0,0 z m -21.13662,5.77309 c -0.43547,0.30483 0.23362,0.0239 0,0 z m -0.30391,0.59522 c -0.15134,0.21758 0.5563,0.27515 0,0 z m 0.67318,0.1306 c -0.004,0.27488 1.01653,-0.0974 0,0 z m -1.16366,0.72852 c -19.86428,14.68129 1.69512,-1.22005 0,0 z m -0.31398,1.5599 c 0.48292,0.085 -0.12596,-0.25599 0,0 z m -5.22373,3.70039 c -0.14705,0.0819 0.0533,-0.18305 0,0 z m 0.28484,0.23029 c 1.00895,0.0529 -0.21799,-0.51831 0,0 z m -311.72015,8.12286 c 0.0198,0.50442 0.16379,-0.0711 0,0 z m -0.29139,0.4518 c -0.56421,0.78913 -0.34276,0.92921 0,0 z m 1.92302,1.10574 c -0.27986,0.39161 0.65161,-0.79463 0,0 z m -1.39198,1.22752 c -0.36488,0.26699 0.7292,-0.47623 0,0 z m -1.23546,-0.0116 c -0.53172,0.42619 -0.75877,1.46424 0,0 z m -0.46206,0.78131 c -7.14573,1.69004 -1.50839,8.85739 -4.8656,12.7348 1.51375,-0.20447 2.55562,-4.40655 2.90572,-4.15579 -0.14136,-2.51664 0.63586,-5.24725 1.29045,-4.65814 4.6274,-4.72868 -3.4277,2.00301 0.32663,-2.91426 -1.6581,-0.68334 1.63619,-1.30266 0.3428,-1.00661 z m 294.58735,0.36596 0.004,-0.004 z m -0.15305,0.2151 c -0.25145,0.47955 -0.19332,0.51456 0,0 z M 312.439,443.72753 c -1.45604,0.31269 1.688,-2.91975 0,0 z m 297.01279,2.34633 c 0.78748,0.52734 -0.0686,-0.0928 0,0 z m -298.97807,3.78818 c -0.0439,-0.16458 0.1737,-0.7735 0,0 z m -0.0321,0.0556 c -0.0524,0.0782 -0.009,-0.0935 0,0 z m 0.16966,0.27315 c 0.36654,0.24458 0.12618,-0.61963 0,0 z m 0.15289,0.17508 c 0.12623,0.23929 0.10674,-0.21782 0,0 z m -2.44429,2.11424 c -0.36956,0.51563 1.258,-1.43132 0,0 z m 307.25192,2.57048 c 0.29697,-0.26318 -0.59234,-0.14988 0,0 z m -0.80721,2.78987 c -0.12064,0.25464 1.35626,0.71864 0,0 z m 0.93711,3.36426 c -0.29646,0.45602 0.0189,0.0279 0,0 z m -1.57699,2.51605 c 0.10829,0.35718 -0.34126,0.2281 0,0 z m 0.51066,0.0575 c -0.50248,1.04671 2.14654,0.0759 0,0 z m -0.82171,0.57082 0.025,-0.061 z m -6.83235,9.8717 c -0.54642,0.24382 -0.25174,0.5815 0,0 z m -1.1332,3.16926 c 0.48022,1.55194 2.40889,1.84922 0,0 z m -0.53428,1.58176 c -1.07995,0.23714 -1.81252,2.03518 0,0 z m -3.83078,2.92271 c -0.66142,0.10239 -0.13386,-0.0365 0,0 z m 1.53711,0.35098 c -0.4457,0.69087 -1.26097,-0.84454 0,0 z m -0.53011,0.54913 c 0.0273,0.19756 -0.033,-0.27837 0,0 z m -3.53182,1.85108 c -1.26907,-0.12799 0.87579,-0.47078 0,0 z m 16.40746,16.95103 c 1.30307,1.73499 -1.47812,-3.47871 0,0 z m -0.29194,1.36521 c 0.53246,0.45906 0.70979,-1.1401 0,0 z m -7.37292,0.19888 c -0.88305,0.46264 0.41795,-0.60475 0,0 z m 7.41151,0.10133 c -3.66072,0.89196 0.15484,1.05686 0,0 z m -327.1114,0.31058 c -0.0437,0.4528 0.0619,-0.46 0,0 z m 325.48054,3.70788 c 0.48645,0.45533 -0.18438,-0.8374 0,0 z m -331.00435,8.63034 c -0.02,0.009 -0.0312,-0.0496 0,0 z m -1.14728,1.81786 c -4.83381,1.54292 3.36529,0.61125 0,0 z m 1.39805,1.44369 c 0.28369,1.61007 0.38391,-1.48417 0,0 z m 329.69314,1.17747 c -0.0121,0.0521 0.0695,-0.0699 0,0 z m -328.99308,0.8008 c -0.31536,-0.21897 0.43114,-1.00793 0,0 z m -0.81644,1.57174 c 0.21075,-0.0936 -0.25752,-0.34587 0,0 z m -1.15341,0.007 c -1.3138,0.21073 -1.13902,1.69471 0,0 z m 55.37063,0.74288 c -0.1833,0.0244 0.15907,-0.11231 0,0 z m -55.06226,1.38857 c 0.30184,0.1378 0.084,-0.79073 0,0 z m 63.2473,0.94831 c -0.7552,0.12147 -1.77801,1.67174 0,0 z m 6.15305,1.04838 c 0.17506,0.60829 0.36117,-0.0749 0,0 z m -55.12179,1.7606 c -0.52013,-0.16738 0.19395,-0.37669 0,0 z m -0.88612,-0.0323 c -0.76466,0.27022 -0.62403,0.36174 0,0 z m 21.35183,0.16961 c -0.0321,-0.0565 0.13212,-0.0988 0,0 z m 294.49802,1.56714 c 2.04259,1.43682 -2.05166,-2.96454 0,0 z m -1.46026,0.39324 c -0.20801,0.94509 0.61414,1.86272 0,0 z m -249.7045,0.25064 c -0.32007,0.1479 -0.60635,-0.24179 0,0 z m 252.36176,1.02489 c 0.90279,2.15118 -0.69536,-2.92782 0,0 z m -252.44464,-0.57221 c -0.11236,0.27689 -0.55053,-0.2948 0,0 z m 249.96094,0.44491 c 0.15101,0.47545 0.21464,-0.1439 0,0 z m -5.49223,0.91337 c -3.19772,0.0926 2.27822,0.2353 0,0 z m -240.65568,1.48568 c -2.33023,3.96242 2.24279,-2.00871 0,0 z m 0.12582,0.23085 c -0.3406,-0.14421 0.38609,-0.60735 0,0 z m -51.86683,-0.0789 c 0.22667,0.832 0.51627,-0.51362 0,0 z m 289.95401,1.34232 c 0.1065,-0.0275 -1.07866,-0.12755 0,0 z m -292.53295,0.11841 c -0.10943,0.45333 0.39608,-0.11183 0,0 z m 1.2987,0.33334 c 0.0168,0.0859 0.10739,-0.14823 0,0 z m -0.39507,0.15693 c 0.18413,-0.0435 -0.0563,-0.42742 0,0 z m 0.33451,-0.0263 c 0.0751,-0.0322 -0.0241,-0.0992 0,0 z m -0.36421,0.16166 c -0.26909,0.63292 0.52482,-0.33178 0,0 z m 64.06071,5.15118 c -1.69901,-0.28995 1.2597,-0.83686 0,0 z m 2.8642,1.13832 c -0.18994,0.007 0.13486,0.0808 0,0 z m -0.12771,0.0314 c -1.67275,0.54626 0.0736,-0.29147 0,0 z m 0.51886,0.40963 c 0.12624,0.60979 0.0159,-0.5416 0,0 z m 1.14829,0.11007 c -1.65571,0.2166 -2.00186,2.69623 -4.9e-4,0.002 z m 2.18489,1.60349 c 0.41684,0.74624 -0.77803,-0.62345 0,0 z m 231.82359,52.67184 c -0.17301,1.11104 0.44273,0.87336 0,0 z m -4.60077,0.0466 c 0.0962,0.18954 -0.0697,-0.0792 0,0 z m 5.44438,0.90841 c -0.0522,0.89852 3.97639,-1.44849 0,0 z m 6.03413,2.32973 c 1.22157,0.50765 -1.04169,-2.79838 0,0 z m 8.50809,-0.66905 c -0.64439,0.44532 -0.74873,0.91151 0,0 z m -12.17979,0.092 c -1.2791,0.25253 -1.66661,1.80258 0,0 z m -1.18797,0.94447 c 0.0138,-0.0115 -0.0141,-0.008 0,0 z m 5.1255,0.36578 c -0.95589,1.12115 1.19473,-0.65985 0,0 z m 7.06995,0.71458 c 0.0891,0.0625 -0.18864,0.21877 0,0 z m 0.26428,0.21062 c 0.44297,0.27063 1.05247,0.36273 0,0 z m -103.19272,2.49251 c 0.92329,0.26353 -0.0595,-0.35551 0,0 z m 6.60521,1.43534 c -0.18188,0.68158 0.18984,1.23345 0,0 z m 8.21274,1.04107 c 0.38559,0.96488 -0.5401,-2.25022 0,0 z m 1.29094,0.62998 c -1.03229,1.01972 -0.33754,0.49786 0,0 z m -54.61306,1.60276 c -1.23997,0.14502 -1.44361,0.82717 0,0 z m 139.146,2.16192 c 0.83161,0.97953 1.7498,0.0603 0,0 z m -0.19634,0.0189 c -1.12247,0.0641 -1.01864,1.2435 0,0 z m -0.42392,1.21564 c -0.0679,1.74278 -0.0343,0.60426 0,0 z m -65.17063,2.46312 c -2.15004,1.09163 0.65018,2.04977 0,0 z m 10.33611,0.4055 c -0.14264,1.18453 -1.26042,0.49171 0,0 z m -3.46598,0.58531 c -0.0522,0.0331 -0.1006,-0.12725 0,0 z m 41.66233,0.8848 c -3.01653,0.35673 -0.5725,0.0402 0,0 z m -31.4859,1.58323 c -1.18424,0.10474 0.59724,0.61887 0,0 z m 28.9267,1.98098 c 0.41668,0.26442 0.0195,-0.34135 0,0 z m 0.24208,0.15447 c 0.12969,0.14237 0.0219,-0.11377 0,0 z m -4.38425,0.18636 c -0.65984,0.52029 -0.3289,0.31828 0,0 z m -20.91955,0.97975 c -2.97735,-0.1 -2.43928,2.15112 0,0 z m 0.36475,0.40443 c 0.34181,0.0781 -0.167,-0.30008 0,0 z m -2.49745,0.57611 c -0.17189,0.24031 0.56747,-0.14684 0,0 z m 7.69003,0.0931 c -1.05868,0.34291 -1.61233,2.18142 0,0 z m -5.33909,0.54926 c 0.11324,0.63208 0.27272,-1.04403 0,0 z m 7.02744,0.37473 c 0.86463,0.9274 -0.84836,-0.53572 0,0 z m -7.32261,0.22013 c -0.51245,1.17316 0.95202,-1.29612 0,0 z m 8.32823,0.8629 c 0.001,0.29896 -0.2596,-0.48067 0,0 z m -2.0556,-0.0164 c -1.26707,0.13113 1.0369,0.0881 0,0 z m 1.78581,0.80438 c -0.0193,0.004 -0.0266,-0.0473 0,0 z m 0.27586,0.32663 c 0.0227,0.39536 -0.46702,-0.79819 0,0 z m 0.0785,0.9872 c 0.45552,1.69691 -1.02509,-0.77509 0,0 z m -1.42454,0.65338 c -1.13099,1.23569 2.50563,-1.43027 0,0 z m 3.06431,0.6095 c 0.27805,0.5589 -0.34021,-0.18087 0,0 z m 0.079,0.26703 c -0.0104,0.05 -0.0569,-0.11508 0,0 z m -1.80987,0.37844 c -0.29976,-0.2379 0.57648,-0.73082 0,0 z m 14.6223,-0.26759 c -1.53457,0.81167 -0.6326,0.3293 0,0 z m -12.89948,0.004 c -0.097,0.1343 0.13045,-0.0567 0,0 z m -0.21631,0.0457 c -1.28221,0.29103 -1.79074,2.60778 0,0 z m 11.51505,0.45029 c 0.4425,0.55752 0.27265,0.17209 0,0 z m -10.0603,0.31712 c -0.17111,0.2331 -0.10839,-0.33672 0,0 z m 10.36154,0.0297 c -1.43632,0.3007 1.14327,0.20074 0,0 z m -10.65882,0.0727 c 0.0538,0.1396 0.0454,-0.045 0,0 z m -1.48082,0.50864 c -0.84032,1.32474 1.36906,-0.81085 0,0 z m 4.25279,0.0647 c -0.57417,0.53222 0.38469,-0.24495 0,0 z m -2.55515,0.0794 c -0.10592,0.19015 0.15339,-0.12559 0,0 z m 2.12668,1.43744 c 0.14489,0.7153 0.50777,-0.9356 0,0 z"><title
     id="title27">Centro Sul Baiano
</title></path><path
   id="85120"
   style="stroke-width:0.00322563"
   d="m 639.35185,37.449507 c -5.82743,4.918856 -12.45692,7.836903 -19.89556,9.712477 -2.40132,0.815516 3.21662,11.817199 -4.60369,11.198828 -10.64633,1.027343 -14.05273,1.447783 -13.00325,12.384747 -3.36419,6.044756 -9.1016,9.293238 -15.52984,9.56574 -5.29056,8.626272 -10.7104,-3.700485 -15.05919,-0.17437 -2.1518,7.871921 -1.21866,20.316731 -9.21711,24.514321 -5.19533,-4.867797 -6.02456,6.45742 -11.24197,2.36186 -3.26119,6.90419 -12.6473,6.58039 -18.63796,2.84637 -7.93863,0.1187 1.42151,-8.43677 -2.41572,-13.068531 2.08356,-1.127353 4.20114,-3.148328 5.81615,-2.10855 0.12256,-0.391558 -1.39488,-2.788067 0.0644,-1.9012 -2.54199,-3.721387 3.95417,-7.422379 -2.09472,-7.65437 -3.16141,-1.992878 -3.24194,-2.933917 -6.05568,-2.86132 -5.87288,-4.45297 -4.12434,-13.115885 -9.16231,-18.30878 -0.15465,-3.644699 -4.07495,-1.827036 -5.52334,-3.284104 -6.15498,4.422626 -3.53032,-6.01863 -8.58991,-3.597747 -2.39561,-0.01433 -2.78942,-3.027843 -3.51554,-3.265146 -0.86989,-1.240176 -1.82048,-4.121347 -5.79735,-2.667273 -1.12257,-2.720162 -4.30941,4.687343 -8.47572,1.404264 -5.1503,-4.56942 -7.10377,5.115979 -9.05947,6.025632 -5.79437,3.132892 -6.43838,14.737047 -13.24803,12.459984 -1.85947,1.971613 -6.8947,3.371522 -9.33827,5.40634 0.23017,7.323682 -8.56439,10.998555 -10.49339,17.41312 -3.57252,0.05949 -6.59928,5.083519 -10.56775,0.86512 -6.55915,-0.61945 -13.43938,4.53845 -20.62923,2.58897 -4.08901,2.357486 -7.67092,3.495231 -10.18698,7.632431 -3.32805,0.61881 -5.06101,7.51286 -8.45507,6.25411 -2.5315,5.45143 -10.53333,1.69268 -14.06265,6.62612 -5.26682,0.9323 -3.91224,-2.43137 -6.96259,2.71963 -2.45051,6.68535 -9.72469,2.04976 -10.40614,-1.25323 -4.89185,-0.54055 -11.88485,-6.23081 -9.4363,-11.42856 0.29028,-2.99495 -7.82057,1.35969 -6.90187,-1.7289 -4.52105,-0.3913 -4.05057,-4.0708 -7.74376,0.70944 -3.71647,1.1015 -6.41801,-0.27587 -10.39408,1.18155 -4.87927,-3.76886 -9.2844,-8.29431 -13.61281,-12.675171 -8.69232,3.836728 -14.39812,13.049291 -24.48484,14.836591 -4.67448,2.98698 -4.84894,11.15507 -3.8007,13.07977 3.81753,4.66101 3.58396,12.18341 10.95186,12.57856 8.36251,1.44029 -0.92326,10.73904 0.0387,9.73176 -0.01,4.21251 5.84043,7.5094 0.61137,11.93293 -8.08532,1.04596 -4.73418,10.1011 -11.68777,15.83062 1.68929,6.50924 -7.29682,8.27769 -7.09144,14.42277 -5.39356,1.97935 -9.85172,-3.6583 -8.81149,4.7931 -8.46751,7.94111 4.51183,8.70226 6.29793,15.00123 5.72497,7.39437 5.53492,20.68154 -4.8565,21.72929 9.54759,9.54541 11.98004,23.32107 16.27136,35.47084 1.79845,14.16997 10.7677,26.60204 13.00894,40.07664 -4.41714,0.81151 -4.14189,5.06648 -8.71737,7.73744 -3.0012,3.36315 -4.15275,10.96123 -5.18263,9.04251 2.63212,3.6815 -5.74533,7.93225 -6.38946,6.12214 -0.77197,-0.81975 -0.26394,5.96295 3.36139,2.50583 8.83357,-1.09493 12.98287,9.63927 11.51389,11.43131 0.99991,-5.62822 6.38396,5.67334 9.84354,2.19925 28.69443,6.87943 19.66717,13.12739 3.78746,25.27238 0.51571,12.02284 -4.86974,23.45212 -14.64708,28.20214 -0.77185,2.76315 3.7866,1.77021 3.8749,5.37002 1.88998,0.46628 -0.26259,-2.51775 2.41614,-0.11324 2.8217,1.62349 -1.43981,6.11731 0.98817,4.90117 -2.63956,1.01542 -6.37717,2.76164 -7.62317,-0.32358 2.44214,4.34893 -9.0188,4.20249 -9.87735,6.46453 -1.30024,-0.8345 1.53259,3.27579 -1.34812,3.10655 1.55385,3.30638 -0.91997,1.70215 -1.22121,6.40881 0.52524,4.69837 -6.9499,4.77649 -3.38799,9.19715 -3.76774,5.03234 -4.42242,8.39696 -4.41459,14.80908 -4.73494,-0.60763 -8.83463,8.43151 -13.24456,8.73989 -0.94041,5.65666 -5.56492,6.8673 -7.36938,11.90133 -7.48635,1.71318 -7.12397,10.38381 -10.92433,15.86978 -0.41191,2.25646 -3.40049,4.9808 -3.41075,1.84349 0.69053,3.74906 -7.49791,4.57416 -4.47724,7.39376 2.9942,-0.45242 1.76182,-0.19173 1.68775,0.59569 3.02586,-1.07161 2.61104,0.45329 3.77731,2.46538 1.02943,-2.85417 -1.35624,-3.04113 2.01487,-2.05462 -1.09376,-1.00006 0.37562,-0.45419 1.86841,-3.37803 2.15447,-0.0234 8.33553,-0.64522 6.27119,0.98951 -0.31203,2.70639 1.62683,-0.89395 1.98585,-0.78448 -0.31836,-1.55263 4.82731,-1.14299 4.8806,1.05719 -0.45367,-0.94063 1.57114,0.7055 3.96554,-0.0617 1.3441,3.36956 0.64286,-2.92108 2.56841,0.5937 -0.539,1.93092 0.54928,-0.35302 1.67378,1.0316 1.44776,-0.74967 1.76151,1.70419 2.49981,0.44838 2.18484,-1.52335 4.7642,-1.83071 6.68202,-0.25289 2.44592,0.35154 1.0368,1.45697 3.14208,1.52822 0.29726,0.83772 3.47674,-0.64615 0.86407,0.64143 2.69301,-0.415 5.27549,-0.18964 3.97915,0.51784 1.70545,-0.14608 4.20921,1.96234 2.13162,-0.50401 1.21281,-0.24454 4.23178,0.98363 1.23384,0.526 3.96193,4.46538 4.58599,-4.61833 7.80181,-6.6741 2.43264,-10.93245 6.40587,-21.46831 7.88672,-31.77813 3.28093,-6.20067 2.26791,-13.91848 7.70695,-20.42706 3.61477,-2.47246 10.90184,-5.62589 7.64327,1.23268 -1.24919,3.82051 -2.99926,7.44529 -2.90903,9.41544 -0.75279,1.95914 -0.82938,-1.27615 -0.44106,2.32428 -1.35946,2.80944 -3.38924,3.50568 -1.64908,5.59493 0.27349,-0.17166 3.91777,4.48608 2.53703,1.78704 21.4116,-7.49226 17.64392,-50.57502 42.06811,-38.18549 0.39529,1.78426 0.66246,-5.79977 -0.41676,-7.36067 -0.26754,-5.08274 2.73123,-7.33958 -0.98043,-11.53884 0.48776,-3.34709 -2.06295,-1.75555 -3.2854,-5.90192 -0.25636,-12.52004 16.22109,-20.08295 6.18558,-35.10587 -10.29095,12.46351 -11.14424,-6.36667 -7.81778,-6.75613 -1.32615,-3.69821 4.10646,-3.28471 3.79287,-2.50422 1.03637,-3.08998 5.01263,-2.98285 2.32555,-7.0047 0.55051,-6.28754 -1.05001,-2.8645 -3.71754,-6.75764 0.86638,-9.39483 -18.66371,-16.95532 -13.0109,-24.27917 -4.83727,1.87226 6.2515,-11.85051 7.43736,-2.79975 19.53955,8.18156 10.13002,-12.61279 17.19989,-15.6447 -3.21478,-1.02586 3.78552,-0.22761 1.05813,-1.06895 1.4139,-2.2697 2.10437,1.08374 2.89242,-2.92953 3.42742,-7.47261 -20.83006,-38.21105 -4.87775,-35.8334 -1.10669,-2.79701 0.22039,-1.22521 -0.71296,-4.09512 0.16704,-2.56497 1.03158,-7.81361 3.51672,-7.8683 1.11292,-2.75721 3.73873,-1.06581 0.76707,-3.93283 1.89171,-2.49436 2.11391,-8.42802 5.69366,-6.14466 0.976,-3.05317 6.53553,1.51546 7.90055,1.62989 4.96705,6.37182 16.74134,-2.7399 11.73909,9.18692 3.53076,0.75787 5.06617,8.54456 4.23019,8.62635 2.11139,-2.67241 -0.53501,5.8545 4.2876,1.49454 12.8001,2.31883 10.10705,-27.27312 29.49383,-20.42778 8.76607,-15.96648 22.15777,-28.78514 35.25292,-12.88922 1.00297,-0.15746 7.4314,2.69469 5.36603,1.11294 5.12831,-0.20114 -3.85278,-8.31677 0.35345,-6.74672 0.95134,-3.40505 -2.60346,-9.45029 -0.70109,-13.64384 2.94366,1.48568 5.65598,-2.65856 7.71565,-4.5038 -1.08212,-1.86425 -10.20744,-6.31396 -2.43303,-9.54702 4.26282,-2.20221 5.56175,-1.85166 5.1945,-4.84576 2.81694,-1.75231 2.83113,0.81804 3.77873,-2.30026 3.23816,-1.03878 4.88006,-0.32653 7.35021,-4.47173 4.00894,-4.03991 8.05239,-2.30512 4.1703,-6.20894 -0.5745,-1.96958 2.41124,-4.6184 3.75703,-4.81757 -1.50007,-2.86741 5.76843,-10.79555 8.77654,-7.46981 -1.34719,-4.88865 -8.14428,-9.30225 -1.87625,-14.25626 21.59082,-4.61377 35.50626,-0.87171 58.73987,1.52511 15.02546,-9.02711 37.82074,-8.55196 44.71105,-2.45535 5.39232,-14.24355 25.43656,-20.80874 37.50157,-20.63067 -2.31989,-1.69505 1.49896,2.80189 0.33374,0.33497 3.04341,2.4335 9.42981,0.77911 12.35506,2.35922 20.77416,-7.44038 43.01423,5.0341 63.16689,4.34004 3.05879,-8.47145 12.8432,1.29114 15.97738,-4.57433 1.01621,-3.07534 5.73974,-4.02308 7.92927,-5.69195 -0.0851,-0.90756 3.53044,-6.62849 -2.09053,-6.10801 -3.11691,-3.44614 -14.04787,-0.26356 -11.94552,-7.19039 -2.25767,-3.02728 -7.82805,-10.769756 -7.06519,-16.449241 -3.99401,-1.689755 -1.55789,-6.493383 -2.38755,-6.52008 -2.70779,-2.583142 4.86707,-7.034458 -0.59721,-6.95196 -5.40678,9.972654 -22.78026,-5.193684 -11.93933,-10.581 -8.30282,-10.647165 -4.45365,10.50233 -12.36456,9.90922 -7.65039,-1.674763 -3.36985,-11.916838 -10.81413,-13.804141 -5.66093,-6.181192 -15.49961,4.029908 -19.78433,-5.361135 -6.05965,-2.066614 -10.33159,-4.628667 -15.86287,-2.831457 -4.71548,-2.142003 -1.4252,-7.727164 -5.09771,-10.590635 -0.62782,-1.349008 -6.31123,-3.306276 -8.60393,-3.232174 z m 10.9586,6.144692 c -0.37235,0.658178 0.27228,-0.369438 0,0 z M 500.5595,49.010711 c -1.03248,1.533309 -0.5165,2.066875 0.002,5.88e-4 z m 158.10164,1.038159 c -0.55063,0.654238 0.80433,-0.840654 0,0 z M 517.84939,62.245673 c 0.30096,0.747455 -0.0706,-0.226426 0,0 z m 206.61589,11.221326 c 0.15621,0.284239 -0.0959,-0.224105 0,0 z m -195.14207,8.81661 c 0.035,0.01359 -0.0125,-0.02818 0,0 z m -186.3209,21.840981 c 0.21343,0.22798 0.60954,-0.74252 0,0 z m 0.46428,0.57443 c 0.19072,-0.0192 -0.16611,-0.11055 0,0 z m 9.6751,1.97413 c 0.11168,0.15744 -0.0377,-0.21239 0,0 z m 395.6466,9.70839 c -1.14484,0.37005 -0.59279,0.18772 0,0 z m -0.12478,0.38288 c 3.56979,2.38108 0.52938,-1.52948 0,0 z m -2.22315,1.47118 c -0.1333,0.99859 0.39092,1.52634 0,0 z m -3.61671,2.12837 c -0.1272,0.27247 -0.13057,0.23147 0,0 z m -94.24019,1.47622 c -0.007,0.0742 0.032,-0.0204 0,0 z m 1.66739,0.0872 c -0.75251,0.13532 -1.53595,1.07612 0,0 z m 4.14605,0.46782 c -0.67593,0.23378 -0.89814,0.55666 0,0 z m 6.61626,0.67424 c 1.33346,0.56471 0.15513,-0.6697 0,0 z m -374.91211,0.77395 c 0.10512,0.0167 0.002,-0.16882 0,0 z m 10.9941,21.32072 c 0.2,-0.10451 -0.59292,-0.24318 0,0 z m 211.74783,6.91382 c -0.53478,0.70261 -0.20477,0.38944 0,0 z m -0.45786,1.26908 c 1.36257,0.72302 0.19457,0.0411 0,0 z m -7.36754,10.01035 c -0.77383,0.34819 -0.24698,0.28365 0,0 z m -0.92511,0.88045 c 0.22322,1.30562 0.76352,-0.43422 0,0 z m -1.96829,6.84069 c -0.19962,0.0556 0.15922,-0.19503 0,0 z m -0.29612,0.008 c 0.0347,0.0601 -0.0784,-0.0183 0,0 z m 0.24479,0.18587 c 0.50714,0.44567 1.48186,0.11895 0,0 z m 0.76995,0.25557 c 0.97487,0.24117 -0.46113,-0.83136 0,0 z m -231.47792,28.51272 c -0.38081,0.72943 0.98203,-1.47353 0,0 z m 205.08929,1.2275 c -0.23607,0.48515 0.0203,0.0348 0,0 z m -87.61994,36.54916 c 0.28462,1.29002 -0.20182,-1.55984 0,0 z m -15.88351,0.93771 c -0.82384,0.35726 -0.15834,1.49043 0,0 z m 15.58717,1.08398 c -0.34936,1.02675 0.73498,-1.63139 0,0 z m 27.08238,10.96237 c -1.60215,0.49808 2.87873,0.46411 1.6e-4,0.002 z m -48.49419,3.83282 c 0.47023,1.49189 0.28679,0.91703 0,0 z m 0.69974,1.36323 c 0.0583,0.57305 0.28321,0.29396 0,0 z m 0.90411,2.02066 c 0.44569,0.73591 1.24966,0.9922 0,0 z m 6.53315,31.18802 c -2.11671,0.86603 0.0688,-0.29641 0,0 z m -0.85693,0.82455 c -1.22711,1.82694 1.02887,-0.47544 0,0 z m -0.60142,0.15022 c -0.5975,1.01799 0.55973,1.50263 0,0 z m -7.05904,4.17823 c -0.16931,0.48476 0.33675,-0.12841 0,0 z m -23.45929,18.63705 c -0.86948,0.5801 0.61908,-1.17098 0,0 z m -48.64395,1.90736 c 0.78745,0.54343 -1.2174,-1.40879 0,0 z m -5.2973,4.97852 c 0.73166,0.29565 -1.3902,-0.72086 0,0 z m -2.67665,7.17395 c 0.28219,0.0555 -0.0485,-0.93393 0,0 z m -2.4943,3.30722 c 0.21919,10e-4 -0.25038,-0.008 0,0 z m -1.61935,2.20448 c -0.90014,0.52787 1.0461,-0.51861 0,0 z m 17.04786,7.77524 c -1.44684,0.66364 0.10192,0.34592 0,0 z m 61.56067,0.3324 c 0.85437,0.0843 0.47148,-0.0294 0,0 z m 0.55965,5.04396 c -0.40123,0.67954 -0.25065,0.74939 0,0 z m -0.26824,1.10422 h 0.003 z m -3.257,4.05437 c 0.0516,0.20633 0.10899,-0.14657 0,0 z m -4.70939,2.84435 c -0.58597,0.20881 0.87797,-0.8131 0,0 z m 0.87039,-0.22533 c 0.008,0.10676 0.0331,-0.0227 0,0 z m -56.43448,41.86869 c -0.0609,-0.24854 -2.07549,-0.57824 0,0 z m 0.63323,0.5327 c 0.68058,0.71688 -0.66595,-0.79739 0,0 z m 0.8737,2.03245 c 0.87953,1.65154 -1.02373,-0.4654 0,0 z m 0.85754,0.28232 c 0.68,0.84632 -0.18426,0.11864 0,0 z m 0.47995,0.91566 c 0.95491,0.85693 -1.12831,-0.22126 0,0 z m 1.18239,0.71747 c 0.53158,1.14414 -0.39294,-0.26217 0,0 z m -0.50239,0.0186 c -0.11487,0.005 -0.007,-0.0657 0,0 z m -1.15713,0.17124 c -0.58894,0.27601 0.3926,0.22962 0,0 z m 1.78165,0.50466 c 0.0421,0.1224 0.056,-0.0405 0,0 z m -0.13363,0.66678 c -0.42626,0.22766 0.71335,0.13865 0,0 z m 2.05436,0.46869 c -0.0234,-0.0137 0.008,0.009 0,0 z m 57.87062,3.3847 c -0.0284,0.0811 0.12555,-0.0678 0,0 z m -62.92711,3.10838 c -0.40424,-0.16912 0.27022,-1.14794 0,0 z m -10.65206,6.59781 c -0.40861,0.1207 0.0993,0.0835 0,0 z m -1.50639,3.2946 c 0.36255,0.28525 0.2042,-0.52477 0,0 z m -5.07993,10.98593 c 0.11279,-0.0808 -0.2772,-0.31057 0,0 z m 36.25786,15.98624 c -1.01627,1.51254 2.6619,-1.23423 0,0 z m -42.49129,1.66236 c 1.23333,1.15987 0.37239,0.44119 0,0 z m 38.90972,7.31724 c -0.32671,0.44005 -0.17224,0.17416 0,0 z m 0.0232,1.23771 c -1.17447,1.40539 2.42653,-2.09733 0,0 z m -49.85538,1.5445 c -0.63581,0.34172 0.96464,-0.44684 0,0 z m 54.51982,2.27315 c 0.80011,2.21574 0.8888,0.54009 0,0 z m -76.6389,28.16178 c 0.78146,0.0379 0.27371,-0.0178 0,0 z m 13.04885,3.71215 c -0.36619,0.98195 -1.01228,0.49028 0,0 z m -7.65925,0.7826 c 0.90297,-0.15711 -0.0992,-0.50185 0,0 z m 7.33015,0.11811 c -0.0967,-0.14674 -0.008,-0.487 0,0 z m -0.0924,-0.14203 c -0.073,0.51966 -0.0365,-0.2649 0,0 z m 15.20264,0.5181 c 1.47825,1.95634 -1.94126,-1.06844 0,0 z m -16.03192,0.0409 c -0.26303,1.83366 1.86845,1.86236 0,0 z m -8.21928,0.39224 c -0.003,0.10116 -0.18107,0.0454 0,0 z m 22.5509,0.10086 c 0.0514,0.87831 -1.07906,-0.21109 0,0 z m 8.71615,0.0383 c -0.89886,0.53816 0.37042,0.42556 0,0 z m -3.97036,0.0892 c -0.0766,0.43385 -0.92078,0.2266 0,0 z m -28.72057,0.12723 c -0.0726,-0.002 0.0962,-0.0847 0,0 z m 32.4852,0.37749 c -1.10241,0.22109 -1.52661,0.0712 2e-4,-9e-5 z m -35.44984,-0.1876 c -1.55504,1.06017 -1.12682,-0.77672 0,0 z m 1.55432,-0.13266 c -0.008,0.0211 -0.0293,-0.0222 0,0 z m 2.56604,0.38666 c -1.29163,0.0771 0.0663,-0.68022 0,0 z m -0.6593,-0.25323 c -0.0969,3e-4 7.9e-4,-0.0421 0,0 z m -0.99809,0.09 c -0.0574,0.22878 -0.35626,-0.24988 0,0 z m 28.77513,0.16949 c -0.13251,0.2857 -0.43496,-0.33576 0,0 z m 0.54695,0.41393 c 1.70402,0.78512 0.31713,-1.13338 0,0 z m -29.89586,-0.30533 c 0.10118,0.058 -0.0776,-0.18309 0,0 z m 36.13787,0.16751 c -1.29326,0.48181 -0.50203,0.18139 0,0 z m -1.38316,0.92464 c 1.86488,-0.0373 -1.89124,-1.8431 0,0 z M 267.96166,493.79 c -0.0303,0.0678 -0.12151,-0.0672 0,0 z m -5.99613,1.55818 c -0.30738,1.75764 2.07557,-3.75013 0,0 z m 16.60491,-1.05793 c -0.47403,0.71447 -1.74645,-0.55283 0,0 z m -2.11418,0.52279 c -0.038,-0.01 0.006,-0.0186 0,0 z m 1.26364,0.0755 c 0.10188,0.38851 0.091,-0.17304 0,0 z m 1.84706,0.13696 c -0.0294,0.0449 -0.0742,-0.0956 0,0 z m 1.52912,0.0642 c 0.55978,0.61426 -0.64274,-0.2255 0,0 z m -2.30086,0.21153 c -0.88136,0.33026 -0.15171,-0.22375 0,0 z m 0.0883,-0.009 c -0.0357,0.0675 0.24641,-0.0821 0,0 z m 2.54092,0.25168 c -1.0373,0.45219 0.65774,0.43474 0,0 z m -3.16716,0.21118 c -2.03828,0.68804 -0.49076,1.07278 0,0 z m 5.07239,0.63338 c 1.14067,1.43639 0.72733,-1.10873 0,0 z m -0.3873,0.13085 c 0.11962,0.29076 0.11586,-0.15752 0,0 z m 5.33305,0.93952 -0.003,-0.004 z m -3.10667,0.40357 c -0.73178,1.44867 0.5771,-0.21592 0,0 z"><title
     id="title17">Vale São-Franciscano da Bahi
a</title></path><path
   id="85100"
   style="stroke-width:0.00322563"
   d="m 746.43679,120.66589 c -0.0347,0.84572 0.19991,0.54398 0,0 z m 1.0813,0.72529 c -0.76157,0.22981 1.75816,-0.32177 0,0 z m -102.32677,0.002 c 0.70864,6.77959 -15.46205,3.85231 -18.84463,8.50373 -11.85045,5.40304 -18.37571,18.28509 -15.13784,30.67301 0.14842,8.28623 5.37906,23.04174 1.8286,27.63855 -2.86841,6.932 0.19644,14.12065 4.07983,19.51114 0.58837,3.49438 -1.93114,2.6919 0.62145,3.74788 -0.76652,1.84885 2.19018,4.88886 2.32477,7.28738 4.38476,3.00065 4.03257,10.25651 -3.35596,14.03645 -3.36197,0.93352 -5.31755,-4.33484 -7.22648,-1.92761 -3.77686,-0.96614 -6.86314,-3.36138 -7.16561,-4.6289 1.19367,2.88377 -2.77231,-1.22621 -1.91466,0.87309 -4.94225,0.23391 -5.22415,-1.13267 -8.92101,-2.33827 -9.61178,-1.28144 6.62666,18.07784 1.94151,24.95931 5.43311,3.81887 25.05265,14.47112 16.19838,21.64149 -0.30852,0.61663 -5.22171,4.00535 -5.72487,1.73529 -0.30015,0.81728 -1.97136,-1.80616 -1.325,0.30039 -8.41818,-2.29238 -2.30809,11.83714 -2.17227,17.1365 4.31759,5.15803 15.92561,12.91105 18.7466,15.86367 3.52048,4.81563 5.40293,10.08327 13.66752,5.81182 5.40752,-2.87843 21.72602,-0.47891 23.99829,-3.92017 2.51016,-1.91417 4.64213,-4.8916 6.37438,-6.78474 -1.41675,-7.5297 9.30914,-3.64195 13.37834,-4.46252 4.67212,10.62464 3.2033,-5.24459 8.99505,-4.47144 -2.80297,-1.08926 4.48844,-7.52789 7.06042,-6.21638 5.3706,-0.35026 12.24871,-0.50534 11.39248,7.11937 8.86841,12.33016 -2.60361,14.46341 2.11386,23.43187 3.92381,5.35351 -4.89879,12.42746 4.59683,13.96063 7.73019,-2.85465 18.24657,4.04889 24.76271,-1.86337 -0.94654,0.69548 2.48543,0.27711 1.61342,-0.17765 9.30149,9.22847 8.49211,-1.69999 6.57801,-1.02285 3.42816,2.63163 -3.68743,-3.34785 1.44714,-4.0788 5.85414,0.97767 5.19502,-0.0261 6.39447,5.24909 4.1501,-4.89666 9.24411,13.0306 4.26904,10.03459 1.04183,2.96861 0.28247,2.43566 2.31479,2.25953 0.39051,-0.44931 4.14343,1.52042 2.16721,0.0275 2.54959,-1.30773 6.53168,-15.14448 8.80995,-10.1182 5.331,-13.21565 15.03359,-25.80754 19.55321,-40.23785 7.05541,-10.08797 12.25201,-20.06158 -0.68014,-13.06217 -1.98272,1.35141 0.17836,-4.87241 -1.46437,-0.63586 -1.56761,1.70963 -2.62579,-0.84405 -5.40673,-0.35348 -2.33962,-2.23302 -0.81869,-0.0259 -2.06969,1.20533 -0.0659,2.08184 -6.69664,1.13086 -3.28455,-0.42295 -3.84565,1.1899 -6.44826,-2.39466 -8.57775,-2.025 -3.42703,-0.0473 -1.97749,-3.8385 -2.78607,-3.73717 0.60299,3.28532 -6.56872,-4.30886 -2.34594,-2.37122 -1.93378,0.70928 -2.33724,-5.80818 -2.77728,-2.01813 0.77653,3.31187 -2.20569,-3.27983 -2.12711,0.0319 -4.10229,-0.0819 -5.26537,-4.913 -5.59376,-5.24454 1.46149,-1.36172 -1.89545,-0.65055 -1.56274,-3.27365 -0.76439,1.20827 1.75063,-3.29376 0.58925,-2.26188 -2.23836,1.4969 -0.0248,-3.63691 0.35348,-3.35843 -1.90536,-0.77878 2.28501,-4.30702 -0.81918,-3.94795 -3.05821,-1.42485 -6.77715,-4.04396 -6.20315,-6.1917 -3.78601,-2.70992 0.86927,-6.10807 -1.73559,-5.89734 -0.98442,-3.76938 -7.79229,-3.97868 -7.45289,-8.31243 0.0503,-1.71248 -1.2168,0.51515 -3.34989,-3.05824 -1.46248,-3.96997 -1.04858,-10.34738 0.85192,-12.116 -1.33336,-5.56047 3.95029,-8.07953 8.39305,-5.69507 3.77523,-2.12059 9.3482,-0.69038 10.51946,3.74647 11.53423,1.67563 13.11015,-14.92991 12.62319,-11.80615 0.10458,-0.0551 -1.85697,-4.89267 0.19231,-4.83 1.85926,-1.95277 -2.12377,-8.53736 -2.31656,-10.01283 1.26406,-2.69314 3.09199,-4.29823 4.72191,-5.1626 8.34726,-3.81494 -1.08594,-15.45965 -2.20743,-22.29283 0.59385,-9.67655 -14.86855,-1.9017 -14.14226,-12.88688 5.97913,-7.1039 -7.22372,-9.57265 -3.33742,-18.14169 0.74994,-2.37769 3.90611,-2.04092 2.91611,-2.23551 -1.27316,-4.18452 -6.64637,-1.91185 -6.48957,-0.80443 -0.46935,4.63743 -10.77305,6.35486 -13.7224,3.21703 -6.78567,9.93905 -20.81471,0.68061 -30.91986,0.32522 -11.53152,-4.06829 -30.42343,-3.10253 -38.32185,-1.16703 -3.62716,-1.10893 -12.11233,-0.13867 -13.17565,-2.72424 -0.32306,-0.40355 -1.26469,-1.71688 -1.73078,-2.03213 z m 101.3465,0.0493 c 0.0963,0.3488 -0.01,-0.25806 0,0 z m -0.60158,0.39862 c -0.23563,0.5092 0.45813,-0.85899 0,0 z m -100.29145,0.55673 c 1.18829,0.97461 -1.22297,-0.83628 0,0 z m 97.53475,0.33721 c 0.49443,1.01307 0.1429,-1.73811 0,0 z m 8.32595,0.22327 c 2.60145,1.60496 1.12435,-0.10756 0,0 z m -8.23701,0.12323 c 0.0622,2.2e-4 -0.0536,-0.14302 0,0 z m 7.19929,0.0155 c -1.57495,0.68375 -0.11574,0.062 0,0 z m -1.41684,0.79486 c 0.0817,0.43849 0.13386,-0.18193 0,0 z m -91.72844,1.53149 c -0.9504,0.34003 1.57632,-0.41105 0,0 z m 94.69891,12.58992 c -0.4104,0.65592 -0.3111,0.89097 0,0 z m 0.90329,1.34349 c 0.29749,0.11105 -0.22416,-0.0926 0,0 z m -144.69872,7.64822 c 2.74395,1.7341 0.89331,-0.23619 0,0 z m 0.86409,1.97287 c -0.053,0.0795 0.43466,-0.4881 0,0 z m -2.96044,0.40483 c 1.30973,1.52384 4.43843,-0.81033 -2.1e-4,2.5e-4 z m 150.24169,2.21537 c 0.0582,2e-5 -0.10202,-0.0745 0,0 z m 14.00648,26.8143 c 0.16435,0.54585 -0.0643,-0.25792 0,0 z m -8.11159,5.77214 c -0.27951,1.41757 1.91643,2.6847 0,0 z m -0.65549,1.6899 c -0.3653,0.26952 0.29601,-1.39672 0,0 z m 3.74635,8.02985 c -1.11062,0.16191 1.17782,0.0483 0,0 z m -0.63768,0.14439 c -0.3121,0.052 0.20983,0.0875 0,0 z m -0.82253,1.29726 c -0.014,0.13804 0.0521,-0.0348 0,0 z m -0.0241,0.007 c -0.0304,0.051 0.0582,-0.0345 0,0 z m -0.21759,2.82877 c -0.28552,0.44869 0.0947,0.23598 0,0 z m -0.12857,0.49631 c 0.0389,-0.0355 -0.0925,-0.0741 0,0 z m -32.28063,20.63583 c -0.67872,0.47139 -0.29095,0.72797 0,0 z m -146.50657,2.38692 c 4.76429,4.55436 1.09987,-6.77686 0,0 z m 37.30416,-0.703 c -0.12399,0.0141 0.005,-0.18739 0,0 z m -32.08253,1.71792 c -0.57852,1.77364 2.46913,3.294 0,0 z m -3.315,0.20383 c 0.005,-0.0241 -0.0184,-0.005 0,0 z m 0.0832,0.0606 c 0.55164,0.39941 1.60065,0.38478 0,0 z m 1.39567,0.32407 c 0.24687,0.88473 0.5035,-0.12911 0,0 z m 13.341,2.64948 c 0.0619,0.0713 0.11289,-0.29979 0,0 z m 1.27996,0.89313 c 0.1322,0.73375 -0.52503,-0.55738 0,0 z m 132.41903,1.11403 c -0.43866,1.26963 1.54379,-1.02752 0,0 z m -122.99925,1.93927 c -0.30215,0.4952 0.21841,0.33434 0,0 z m 128.90623,3.6052 c -0.40244,0.79224 0.064,1.40412 0,0 z m 0.73191,1.53109 c -0.54416,0.87517 2.05058,-2.0792 0,0 z m -0.86552,-0.44058 c 0.0486,0.63333 0.30403,0.0113 0,0 z m 0.31872,0.77024 c -0.008,0.0298 -0.0131,-0.008 0,0 z m 1.97556,3.22877 c -0.27927,0.0501 -0.0191,-0.37007 0,0 z m -0.0336,0.1355 c 0.37724,0.52013 0.18004,-0.43426 0,0 z m 0.25365,0.18715 c 0.65185,0.50585 0.19888,-0.43515 0,0 z m 8.51648,8.05427 c -1.23846,2.49836 -1.11524,2.24968 0,0 z m 0.52933,1.71761 c -0.22671,0.0864 0.21904,-0.0785 0,0 z m -1.15152,0.60159 c -0.28667,0.12522 0.0968,0.0545 0,0 z m -0.22366,0.14462 c -0.0677,0.17211 0.14715,-0.0203 0,0 z m 1.70956,0.38067 c -0.37488,0.20714 1.64078,-0.52285 0,0 z m -1.1761,-0.1021 c 0.25887,0.0878 -0.21846,-0.0947 0,0 z m 0.12676,0.0506 c 0.32207,0.12469 0.67619,0.0936 0,0 z m 0.57917,0.10291 c 0.1961,0.006 0.15466,-0.001 0,0 z m -0.87339,4.06673 c 2.12232,0.90845 1.08827,-1.78732 0,0 z m -0.85752,0.70212 c 0.15415,0.17739 -0.14862,-0.17939 0,0 z m 0.13374,3.15699 c -0.56195,0.21547 -0.2735,0.60294 0,0 z m 1.46757,5.6812 c 0.83468,0.88157 1.85836,0.57632 0,0 z m 1.66076,0.18942 c -1.348,0.48378 -0.14239,3.62515 0,0 z m -0.21768,0.98722 c -0.10797,0.98365 -0.39575,-0.66565 0,0 z m 1.59958,1.14098 c -1.58853,2.08622 2.80449,-2.37292 0,0 z m 2.90821,0.65467 c 0.85909,0.36208 0.91644,-3.76967 0,0 z m 2.92855,-1.3512 c -0.89127,0.14953 -1.2346,0.67923 0,0 z m -3.8195,0.79621 c -0.1997,0.26715 0.0286,0.28524 0,0 z m -3.46374,0.45728 c 0.60952,0.30727 0.46707,0.23525 0,0 z m 3.89957,0.49681 c 0.39484,0.17296 -0.84308,0.50843 0,0 z m 4.85559,0.0974 c -1.27755,0.12771 0.17064,0.0218 0,0 z m 39.74326,0.13102 c -0.87811,2.57025 -0.40971,1.06781 0,0 z m -40.62474,0.0953 c -0.27285,0.15916 -0.19993,0.0242 1.3e-4,-10e-5 z m -1.35178,1.36152 c 0.1579,0.19585 0.11875,0.47357 0,0 z m 42.27729,1.74454 c -0.47772,0.36908 0.34734,-0.11574 0,0 z m -192.55405,0.60339 c -0.46231,0.81098 0.70954,-0.94513 0,0 z m 188.92598,0.79685 c -0.35329,0.44338 0.15861,-0.17659 0,0 z m 1.90052,0.47665 c -0.0796,0.0806 0.23243,-0.21928 0,0 z m -197.0901,0.17296 c 0.20101,0.37448 -0.002,-0.27675 0,0 z m -0.25197,0.82693 c 0.10086,0.17818 0.44178,-0.29938 0,0 z m 195.76921,0.32522 c -0.035,0.0292 0.26054,-0.1919 0,0 z m -16.23384,1.33124 c -1.15834,2.39036 0.92199,2.22995 0,0 z m 13.75304,0.28973 0.0331,-0.0569 z m -16.27562,0.36741 c 0.19667,-0.0239 0.24793,-0.76819 0,0 z m -0.0448,0.19206 c -1.34995,1.00884 1.52735,-0.27874 0,0 z m -1.64605,0.12706 c 0.0921,0.1721 0.28101,-0.141 0,0 z m 0.0473,0.99011 c 0.20815,0.0565 0.38655,-0.25498 0,0 z m -5.27154,0.43138 c 0.18764,1.28811 0.16312,1.12088 0,0 z m -173.64393,14.81649 c -0.32266,0.94992 0.83267,-1.73549 0,0 z m 80.33143,12.30704 c 0.11365,0.18275 -0.41332,-1.0218 0,0 z m -20.11792,0.96336 c -0.15058,0.82549 -0.0622,0.50391 0,0 z m 20.50724,1.54306 c 0.018,0.75217 0.1201,-1.58698 0,0 z m 22.79576,2.55683 c 0.22407,1.13702 -0.15251,-1.27168 0,0 z m -47.76238,0.4915 c -0.1344,0.76024 0.35221,1.65984 0,0 z M 625.126,315.8833 c 0.30092,1.00284 -0.32221,-2.28489 0,0 z m 80.64391,12.86185 c -0.0623,0.21681 0.20756,-0.61057 0,0 z m 37.62032,2.94976 c 0.36397,2.0722 4.19046,1.55568 0,0 z m 11.43351,8.46958 c -1.10806,-0.36039 -0.87093,-0.28301 0,0 z m 1.32712,0.32263 c 0.0606,0.009 -0.0671,-0.10127 0,0 z m 1.47807,1.16137 c -0.95281,0.8148 0.90688,0.15364 0,0 z m 1.86193,0.81157 c -0.35446,0.43809 0.15887,-0.1751 0,0 z m 1.98253,1.21262 c 0.20549,1.28907 -0.0963,-1.91446 0,0 z"><title
     id="title21">Nordeste Baiano
</title></path><path
   id="85114"
   style="stroke-width:0.00322563"
   d="m 583.88898,140.96624 c -16.58611,9.79835 -39.2183,5.0531 -54.37997,1.25298 -3.93897,8.08492 -24.34516,-2.74398 -20.66954,6.91563 3.85646,1.90076 4.01672,6.54601 1.04803,9.12705 -5.10105,1.16842 -6.68939,4.79711 -7.14692,8.09023 -5.85321,-0.0843 0.34104,4.47361 -2.30534,6.89527 -4.64841,2.66291 -8.65169,8.60191 -13.4258,8.79013 -0.47402,-0.42492 0.0172,2.91483 -2.31646,1.67089 -0.49202,-0.89206 -2.48639,5.96799 -6.49044,5.27354 -5.67681,1.49851 8.75259,2.92396 3.64036,7.85462 -0.43554,4.71852 -10.94007,5.40681 -6.81276,11.20978 0.77146,4.79515 -2.59683,4.72681 2.01891,8.40606 0.47923,5.78796 -5.96542,8.40748 -8.3072,8.11643 -7.0146,-2.06857 -11.22869,-7.5076 -18.3429,-10.7347 -6.6891,25.21759 -38.44965,16.43062 -38.04012,40.17951 -4.26694,3.29145 -17.5975,5.52725 -18.06233,-1.54983 -2.8916,-0.92032 1.48477,-5.41796 -0.83545,-2.79016 -6.11111,-5.5991 -1.20077,-14.11163 -11.39292,-10.15837 -1.6884,-3.34736 -6.41772,-3.62787 -9.18008,-5.58495 0.13412,4.04325 -2.75407,2.99301 -1.28457,6.69327 -0.83696,3.0053 -5.85502,3.85083 -5.33165,9.20321 -0.65176,-0.0118 0.91563,3.39459 -0.88174,1.2292 2.92558,3.19679 2.97827,10.94947 -3.84586,6.40861 7.16359,7.67483 3.77851,35.76833 17.85775,30.19521 2.13937,2.84701 5.29213,-2.70601 8.01997,2.10819 2.49625,-0.5881 4.48468,4.29953 4.95081,0.072 4.86539,1.24305 7.97807,2.42321 11.72183,-1.40058 4.55746,4.9543 14.1898,14.04217 13.79631,18.66676 1.21572,3.74934 1.63326,4.90518 0.0907,7.0701 -3.52374,-0.64929 7.30421,4.31415 4.67205,7.01314 6.9715,4.16766 1.39717,10.72532 1.28931,14.57781 8.42068,-5.69439 8.77858,-6.05989 8.25793,-16.37102 2.4957,-8.37184 11.10402,1.70176 15.00149,3.21629 4.18055,-0.331 5.44373,11.13108 7.0658,3.61311 10.97001,-2.39881 -1.62959,21.67491 13.80633,13.33273 0.28401,-0.14374 4.7783,1.85177 4.99051,1.23553 -0.518,-0.9986 3.43126,1.86141 2.59766,-0.25585 -0.85613,-2.27135 -2.47514,-6.66239 1.801,-9.4526 l 3.78396,-5.33754 c 0.29093,2.46362 -0.84841,-7.39698 -3.05623,-6.69848 -5.85506,-5.5882 -5.69611,-13.73317 2.17536,-16.6131 9.073,-12.35135 21.73548,10.26265 33.57345,5.89079 20.52751,0.70522 5.97261,28.12011 -9.48944,14.94714 9.29588,10.11677 -1.0633,15.46999 -3.8419,22.3814 -0.39984,1.75114 -2.49716,2.42497 -1.78905,4.31116 -4.29924,2.78695 17.73804,3.04194 16.52431,-1.47338 -0.60349,11.73997 1.56575,30.82856 -0.4339,39.47254 -3.39835,-1.24495 3.5977,3.21293 2.03609,5.7891 4.974,1.44597 -2.11954,-0.98736 2.02737,-1.8614 3.56606,-2.65926 9.78937,3.14774 12.11286,1.98567 4.49663,-1.39927 6.74218,-2.68707 11.96179,-3.39723 1.00536,1.92381 5.647,-1.26777 4.49178,-0.90269 0.31016,-3.19824 6.15266,-3.05197 2.06496,-2.17512 3.03037,-0.53218 2.97815,-2.02707 4.39055,1.83535 2.19249,0.20091 4.17211,13.18456 10.35713,7.27441 9.63242,-2.1283 14.53422,-8.71974 24.22347,-7.12627 7.20671,-9.71552 19.48722,-13.97971 29.91336,-6.51616 0.18455,-1.38547 7.97382,4.82191 7.93582,5.00442 0.40436,-0.23003 4.82509,4.70055 1.57151,3.39058 2.25622,1.67528 5.03084,-1.49538 4.43723,-2.77336 2.24604,-1.09832 -1.20545,-4.00831 0.56854,-4.80814 -1.05739,-2.46843 -1.67752,-4.05792 -3.64558,-7.13288 1.26058,-6.28751 2.24824,-7.15989 5.58007,-10.65877 -2.64644,-7.2428 7.16465,-8.09217 11.6266,-11.55248 5.77807,1.07247 8.17569,-3.27437 14.29929,-3.73119 6.89964,-2.76407 8.25462,10.57982 15.62847,2.72224 8.36656,-2.69109 5.16595,0.32942 6.62311,-9.03903 -2.98491,-4.58376 3.69385,-6.21464 5.61985,-8.9596 -1.86986,2.30093 1.83899,-1.36295 1.6374,-1.08555 4.01847,-1.50296 7.93093,3.13146 8.97574,4.95099 -2.69504,-8.56809 8.68424,-2.11442 7.90905,-3.20005 1.59925,-5.57435 -8.74096,-7.25418 -3.41015,-13.61283 0.50203,-5.33062 -8.5994,-14.50292 0.49209,-15.25937 -2.31189,-8.13556 -2.58431,-20.38542 -12.82015,-17.40237 -1.78565,2.25697 -6.78115,6.75519 -6.94517,6.29175 3.56527,1.46434 -7.01661,19.61621 -7.48814,9.44376 0.1457,-6.46477 -9.11956,-4.4978 -10.77736,-5.05625 -0.15091,5.26802 -6.70433,9.00183 -7.15873,9.99267 -2.2614,5.98288 -19.51583,1.86029 -25.8623,5.22679 -5.39885,5.71857 -15.9243,0.39934 -14.4778,-5.68369 -7.15758,-3.94721 -18.44305,-14.38303 -21.82369,-19.41782 -2.50219,-6.57841 -4.37659,-22.6427 6.1257,-21.08805 2.69768,2.58988 4.17623,-0.10886 5.56465,-1.7769 -16.7214,-10.23648 -22.17298,-25.65115 -23.97672,-45.93465 2.31153,-5.32316 7.25571,0.66219 7.11199,0.35146 0.85598,-2.43324 5.74725,4.39115 8.2119,0.8881 5.88838,1.52456 4.98855,3.26467 10.25198,4.54634 4.21722,1.98949 -3.61364,-1.67722 2.68692,-0.40067 2.88212,0.39399 1.66794,3.77326 2.84354,3.08733 -0.99318,-2.96868 4.98149,-3.36628 3.52894,-5.29964 2.11131,-0.77041 -1.0939,-3.31085 -1.15077,-4.02768 -1.51854,1.63291 -1.18744,-3.49387 -2.01014,-2.94839 -2.45531,-4.26095 -1.91867,-7.25172 -2.94343,-10.87452 -6.71264,-4.37404 -4.29137,-13.25724 -3.96637,-17.96705 4.41135,-7.34039 -0.86309,-14.54308 -0.96252,-22.98059 -1.42068,-6.2306 -0.0339,-14.76301 -2.53234,-18.23518 4.74562,-0.50657 0.67566,-3.25656 -0.40915,-0.50918 -5.02834,-11.04945 -11.39805,-9.14856 -21.47048,-6.38591 z m -52.7254,-0.66716 c -0.46886,0.88713 0.53647,-0.87342 0,0 z m 75.5468,6.72221 c -1.34517,0.45042 0.66886,-1.3384 0,0 z m -95.13785,6.71746 c 0.0754,-0.0622 -0.13537,-0.1408 0,0 z m -11.4511,12.7366 c 0.26379,0.007 -0.18905,-0.51626 0,0 z m -0.87382,1.58046 c -0.18359,-0.0391 0.0542,0.0915 0,0 z m -13.40713,13.7905 c 0.4083,0.27065 0.34909,-0.17031 0,0 z m -9.91555,8.82259 c -0.3511,0.20659 0.65029,-0.34628 0,0 z m -4.49328,13.51871 c 0.59178,1.06757 3.26949,0.90077 0,0 z m 2.53553,0.35415 c 0.23826,0.41293 -0.45383,-0.92506 0,0 z m 139.97601,1.8317 c -0.30283,0.795 -0.0697,0.3236 0,0 z m -140.07175,9.0532 c -0.5876,0.73706 1.56151,-1.46012 0,0 z m -1.13642,1.00801 c -0.67069,0.73687 1.0202,-0.95726 0,0 z m -13.39422,2.33856 c -0.34686,0.0278 0.57435,-0.0286 0,0 z m 159.33776,2.86497 c 1.48671,0.44651 0.67608,0.20458 0,0 z m -25.39085,1.366 c 0.64984,0.91749 -0.38631,-2.74099 0,0 z m 12.37562,3.48797 c -0.62501,2.3834 0.86998,-0.79384 0,0 z m -233.38635,6.46443 c 1.00046,2.40998 0.35366,-2.11839 0,0 z m -0.43397,1.269 c 1.3598,-0.1186 -0.15156,-3.07113 0,0 z m -2.07466,-0.45477 c 0.2643,1.08168 2.05682,1.76547 0,0 z m 1.38049,1.26885 c 0.69804,0.24862 1.75376,-0.0952 0,0 z m 18.71422,1.7539 c -0.39668,0.73764 -0.21196,1.59165 0,0 z m -9.77181,0.23682 c 0.1203,-0.004 -0.077,-0.0405 0,0 z m -22.01504,19.23111 c 0.22384,0.0942 -0.21286,-0.0945 0,0 z m 251.22444,11.89227 c 0.75537,0.0614 -0.2848,-0.46174 0,0 z m -0.6734,0.41462 c 0.10872,0.66249 0.61414,0.0227 0,0 z m -3.28573,2.0182 -0.004,-0.002 z m 1.80487,1.22728 c 0.85685,1.39079 -1.18071,-3.47097 0,0 z m -2.21218,-0.7974 c -0.25471,0.30068 0.11276,0.0921 0,0 z m 94.66815,19.06432 c 0.21555,0.25906 -0.14166,-0.18514 0,0 z m -102.24743,0.0298 c -0.0107,-0.008 -1.1e-4,-0.0465 0,0 z m -196.2744,1.02366 h -0.003 z m 0.12811,0.0398 c 0.87454,0.35872 0.39417,-0.0113 0,0 z m -0.34619,0.47476 c -0.21728,0.8581 -0.0257,0.85923 0,0 z m -8.56917,0.26319 c 0.78402,0.33042 -1.53624,-0.84285 0,0 z m 273.82666,7.94979 c 0.26692,-0.16759 -0.60981,-0.78408 0,0 z m -247.7178,10.64429 c 0.6967,0.59733 -0.78802,-0.76626 0,0 z m 3.34964,21.74934 c -0.15858,1.53477 3.30984,1.10924 0.12704,-0.004 0.0165,0.0292 -0.15348,-0.0393 -0.12704,0.004 z m 10.07775,0.48736 c -0.039,0.86976 0.0405,0.01 0,0 z m 262.83665,2.50917 c -0.27078,0.0498 0.24862,0.009 0,0 z m -0.1944,0.0337 c -0.78433,0.1897 -1.26441,0.90646 0,0 z m 0.63196,0.44935 c 0.26333,0.34845 -0.004,-0.0887 0,0 z m -270.79073,0.51048 c 0.23505,0.20331 -0.90315,-1.23986 0,0 z m 264.70608,-0.27782 c -0.0539,0.39586 0.28949,-0.32075 0,0 z m 0.0189,0.20641 c 0.0402,0.9306 0.37693,-0.32517 0,0 z m -2.65184,1.81518 c 0.13063,0.66213 0.29066,-0.22427 0,0 z m 12.12871,1.54675 c -0.24149,0.47179 0.01,0.0566 0,0 z m -228.41993,0.93565 c -1.73794,0.8722 -0.9133,1.30737 0,0 z m 1.78963,0.14984 c -0.22083,0.17144 -0.34083,-0.20736 0,0 z m -11.31478,0.61323 c -0.0612,0.60028 0.38388,-1.63179 0,0 z m 11.63139,0.0961 c 0.74377,0.46029 -0.42664,-0.42336 0,0 z m 3.52527,0.0261 c 2.02025,2.81995 1.31765,0.23636 0,0 z m -4.11696,0.39413 c 0.0344,1.48631 0.18133,-1.34807 0,0 z m 4.78055,0.18976 c -0.1061,-0.0472 0.12264,-0.2004 0,0 z m 23.86247,0.2276 c 0.54178,0.0431 -2.0143,-0.69057 0,0 z m -0.68218,0.74773 c 2.34439,2.06698 1.60036,0.039 0,0 z m -24.37446,0.27233 c -1.01684,1.04727 0.39132,3.75369 0,0 z m 208.73849,0.14658 c -2.28284,0.69634 -0.63742,0.1075 0,0 z M 477.274,344.07767 c 0.34274,3.36761 0.31923,-1.29329 0,0 z m 21.31313,0.0438 c -3.92152,0.62657 4.84467,1.25065 0,0 z m 2.90902,0.82368 c -0.0308,0.10713 -0.0136,-0.26834 0,0 z m -1.11302,0.52264 c 0.012,-0.003 -0.007,-0.0165 0,0 z m -0.76294,0.59512 c -0.54236,0.29138 0.54392,-0.0927 0,0 z m 0.89431,0.66307 c -0.66695,1.39365 -0.14463,-0.87107 0,0 z m -3.01195,0.13559 c 0.90702,0.8578 1.92998,0.27386 0,0 z m 2.52852,0.94153 c -0.0962,-0.0813 0.22985,-0.28606 0,0 z m -2.90213,2.64385 c 0.58968,-0.17252 -1.23924,-1.80405 0,0 z m 0.0777,0.21389 c 0.45641,-0.0124 -0.20412,-0.27707 0,0 z m 0.16983,0.20116 c -0.61616,1.61991 0.088,2.99862 0.36389,0.0253 0.23045,-0.20972 0.66549,-0.77711 -0.36389,-0.0253 z m -1.1449,2.79523 c -1.46706,0.67326 1.55061,-0.53307 0,0 z m 138.64123,12.37521 c 0.0994,0.32268 0.17121,-0.18957 0,0 z m -2.5413,3.14532 c -0.60938,0.33862 0.79518,-1.23597 0,0 z m -0.187,8.01294 c -1.8481,0.48955 -1.23124,2.26242 0,0 z m -81.17896,10.48824 c 0.31964,0.19289 0.0222,-0.1611 0,0 z m -1.95732,0.18762 c -0.21669,2.46095 -0.1299,1.43651 0,0 z m -1.79256,2.55635 c -0.1034,1.27841 0.63625,-0.50908 0,0 z m -23.90942,1.33339 c -0.30018,0.0398 0.17466,0.0893 0,0 z m 106.12046,0.25034 c 0.0263,0.0445 -0.0217,0.01 0,0 z m -0.38098,0.0999 c -0.20932,0.0783 0.19764,-0.0518 0,0 z m 0.87589,0.48446 c 0.29966,0.47929 -0.0991,-0.41423 0,0 z m -0.88888,0.19045 c -0.0839,0.22799 0.0852,-0.21728 0,0 z m 0.92477,0.63895 c 0.18426,2.05785 0.25853,-2.05669 0,0 z m -112.85832,0.0104 c -0.07,0.38222 -0.26157,-0.31853 0,0 z"><title
     id="title19">Centro Norte Baiano
</title></path><path
   id="85091"
   style="stroke-width:0.00322563"
   d="m 675.90636,408.31066 c -0.65676,0.5037 -0.3551,0.37196 0,0 z m -1.01215,1.18727 c 0.99766,-0.45938 -1.39632,-0.94894 0,0 z m 0.48734,0.81054 c 0.55295,0.30966 -0.92314,-1.16362 0,0 z m -29.55543,0.0244 c 0.0836,0.0442 -0.0401,-0.17679 0,0 z m 28.38949,0.10944 c -0.24771,0.43339 -0.0265,0.0795 -5.9e-4,3e-5 z m 1.57329,0.49878 c -0.21542,0.65235 0.77667,-0.58644 0,0 z m -29.92655,-0.15055 c 1.68976,4.33465 -5.04885,2.46345 -7.38964,2.61629 1.66138,0.84127 -2.55886,4.97338 -2.02628,4.85536 -1.69313,1.42215 -2.36376,2.41324 -1.082,2.62901 0.67144,1.49751 -1.91292,5.40446 -4.07393,6.66646 -1.35839,-0.42026 -4.49254,5.28044 -6.38933,4.28325 -1.43569,-0.61945 -4.15727,1.52836 -5.65232,4.64231 -4.13198,0.49793 -5.6308,-4.00575 -9.56709,-0.6165 -1.77264,0.96937 -0.35694,4.99284 0.1257,2.76897 1.7391,3.53839 0.46651,1.74851 1.66264,4.7247 0.0141,0.51525 2.7623,5.34155 2.39536,5.2455 1.29963,2.62857 3.66754,4.71337 3.92014,7.57113 1.71608,4.62529 0.1222,9.87432 -3.2111,11.2466 -0.12288,0.44493 -2.99728,6.58409 -4.70991,6.58272 -0.79693,4.3895 -2.20169,8.75797 -7.51097,11.58944 -1.78549,-1.51736 -3.07828,3.97183 -4.58883,2.02881 2.01678,1.62111 -5.14036,-1.61219 -3.27508,1.8803 -4.83299,8.04078 6.38717,12.4835 10.11674,11.75982 -1.80448,1.19236 3.27442,-0.43541 0.92488,-0.33373 0.23943,-2.31788 8.82032,-3.4941 6.44458,-0.6612 3.07967,-2.21348 5.92053,1.78124 4.10683,4.60555 -0.6517,-0.26612 0.34516,0.98359 0.6957,1.88082 -1.24824,3.14018 -1.0918,5.96648 -2.52764,6.86453 0.2209,2.52119 2.48069,7.08277 0.54055,9.22919 -0.67571,2.39238 -2.28194,2.76271 -1.84464,6.67154 1.35617,2.61124 -2.23433,7.2744 -4.12421,3.37313 -4.10164,2.60964 -5.05342,4.03472 -8.32047,6.50232 -2.64866,-0.60381 -3.17681,6.78504 -4.18699,9.82354 4.40088,4.005 4.68463,6.47345 5.39362,11.52216 6.13725,7.62912 0.99013,32.55441 11.84559,34.40429 -1.74022,0.41742 3.69563,1.82001 2.62618,3.13045 0.85461,0.9583 0.16014,0.3814 -0.15185,2.77532 0.20109,-0.33346 2.9291,-5.48218 5.97109,-0.87464 -0.14617,1.107 4.09321,-5.623 6.80807,-0.65176 1.97636,2.10115 1.27249,8.9829 0.72947,10.07418 2.18492,0.85963 -4.78578,6.74308 -4.28176,5.71487 -2.53147,-0.99327 -6.91009,-2.50189 -7.89527,-1.18901 3.2263,0.61453 -5.73346,2.54109 -6.34754,3.82451 -2.32927,0.86361 -2.67967,3.78652 -4.45794,4.64746 -1.85835,3.13384 -9.10375,0.24372 -10.28256,1.8064 1.66216,-0.84675 4.63544,2.87852 4.39029,2.30197 6.21952,-0.69379 5.27818,8.46425 -1.1162,7.04197 2.48455,3.14941 6.86724,6.87953 3.03075,11.47088 0.0613,6.19474 -4.30008,2.93984 -2.98849,7.67559 -1.17346,3.80313 -3.1623,4.45953 -5.77357,7.04085 -0.64609,-0.59131 -3.82823,-4.00023 -1.38395,-0.87867 -0.20006,1.438 -2.33025,6.34678 -4.43019,8.92842 0.28616,1.19275 -3.5348,2.70953 -4.7059,1.98809 -0.16575,1.83612 -6.00927,6.27677 -3.13844,5.28758 2.54856,2.10027 -3.11419,6.41888 -3.47047,3.98174 0.34139,0.39373 -5.22949,0.64751 -2.54663,-1.31445 -4.18417,0.65632 -4.94815,4.85324 -5.56594,9.20724 -1.23077,6.97311 -0.99941,5.93673 4.04602,9.81903 1.51476,0.0299 -0.50208,7.65677 -0.58926,3.95681 -0.77994,6.3166 -7.62826,5.64881 -10.06474,3.26315 -2.79092,2.39121 -4.62513,0.26395 -5.17486,0.87444 -5.01778,-3.17862 -3.71655,5.68153 -7.79072,7.86228 -1.53663,4.03876 -1.28188,15.90642 -1.0679,12.62763 3.23607,3.31238 -2.12566,5.85795 0.88708,7.79821 1.42909,4.4915 -6.82759,5.32193 -3.50687,6.72163 -0.6001,0.33622 0.50382,0.69884 -0.34727,3.36881 -1.33875,2.22259 2.2763,-1.87891 3.27376,1.93104 5.39052,2.48725 5.54018,5.88258 7.73227,10.68862 6.70695,-1.69832 1.83376,5.94562 6.0539,3.22914 1.40472,1.25292 5.33314,0.95121 5.41021,4.62952 1.56019,2.25518 3.42612,4.9476 7.69265,5.98285 -0.66193,5.85979 8.58399,10.62705 0.13882,15.22523 -1.02716,10.03857 33.20772,22.69414 42.30363,30.24984 0.55553,-7.08486 8.07339,-13.14056 7.57129,-18.6105 1.19244,1.11613 5.14653,1.07843 1.73132,0.30221 3.06304,-8.87217 13.81354,-16.03793 21.44679,-15.66264 -1.24879,-7.57134 15.45126,-12.22812 6.798,-19.47679 -0.37635,-13.33436 -5.93576,-28.00587 -0.56494,-40.99457 -0.0985,-1.67753 2.98555,-6.22039 1.35569,-4.57571 1.47309,-8.64736 3.47563,-15.12875 2.65947,-24.39429 1.17898,-1.26641 3.38647,-1.64546 1.0722,-1.58591 4.49298,-5.52892 1.29326,-14.14131 5.26923,-21.19307 -0.4203,-5.55376 6.68972,-9.17747 3.17866,-13.74548 2.23237,2.74245 5.21934,-1.53432 -0.15968,-1.16971 1.83812,-6.32427 7.26665,-8.27664 5.83045,-15.29144 2.58211,-5.04666 3.71263,-15.45626 7.4745,-17.39431 -1.20729,-0.4135 0.21815,-4.36383 -0.9389,-2.8481 -7.90627,-12.93723 -5.26437,-28.95171 -9.8904,-43.42259 -1.13909,-10.46617 -0.12127,-22.22678 -2.31703,-31.76589 3.10998,-5.24282 -2.37427,0.7828 -0.41375,-5.0513 2.69476,0.84216 2.14665,-0.65002 -0.52165,-0.58244 1.17692,-2.71112 -4.53761,-3.88179 -2.68462,-9.29808 0.25267,-9.45814 4.72772,-26.01171 6.01799,-31.46536 2.14534,-2.59093 -2.23175,-6.35313 0.26346,-10.66399 1.1859,-8.9865 9.02006,-20.19466 0.31542,-27.60379 -6.08151,-6.69085 4.54728,-17.10564 7.45788,-15.40299 -1.86376,-2.16791 -1.08741,-4.98249 -2.97934,-4.83905 -0.29185,2.16659 -1.61576,-9.53463 2.31258,-5.84478 -3.26986,-1.57769 3.1453,-4.48499 -0.32919,-7.43794 1.94608,2.84202 -0.47495,-3.70459 -0.43182,-0.11033 -8.20244,0.0673 -1.6786,-13.10213 -6.97784,-11.80395 -2.09003,-3.68695 1.31351,2.80455 -2.57644,-0.21882 -3.0899,1.77804 -5.2652,1.3808 -8.34448,-0.66086 -4.6519,1.17692 -2.81239,-0.31618 -3.19188,4.43027 -3.31801,1.72796 -6.22912,-2.25353 -7.26721,-3.10513 3.19538,-1.40935 -2.50148,-0.17969 -2.87353,-3.0862 z m 12.38482,0.31973 c 0.17074,1.33237 1.23025,1.47739 0,0 z m -20.82252,0.038 c 0.0157,0.44608 0.0811,-0.23664 0,0 z m 8.87017,0.033 c 0.0808,0.21329 0.0634,-0.14488 0,0 z m 20.90698,0.87003 c 1.55454,1.95534 -1.57005,-2.98883 0,0 z m -27.37337,0.33164 c -0.0995,1.46161 1.28459,-3.47464 0,0 z m 6.9876,-0.95871 c 0.0625,-0.0755 -0.0857,-0.10944 0,0 z m -0.61656,0.0726 c 0.32472,0.63812 -0.17844,0.46865 0,0 z m 28.33988,0.93469 c -4.69946,3.66757 3.11932,-1.42764 9.7e-4,-0.002 z m -20.2375,-0.54837 c 0.80604,0.83282 1.22361,-0.0783 0,0 z m 0.91035,0.41066 c 1.02433,0.78302 -0.0611,-0.53093 0,0 z m 15.37697,0.82487 c 0.26405,0.0922 0.78864,-0.8689 0,0 z m -34.04867,-0.0364 c 0.73778,0.57715 1.36715,0.40847 0,0 z m 19.60563,0.0201 c 0.0395,-0.006 -0.0744,-0.0831 0,0 z m -17.1518,0.0965 c 0.20153,0.0783 -0.17462,0.008 0,0 z m 31.24037,0.18172 c -0.0592,0.12585 0.61669,-0.41125 0,0 z m -21.70162,0.16872 c -0.98737,0.17401 -0.0621,-0.50778 0,0 z m -11.60158,3.26328 c 0.0377,1.43703 0.49954,-2.89584 0,0 z m -3.79566,1.63133 c -0.32042,0.4641 2.92239,0.71814 0,0 z m 0.72494,5.19118 c 0.15596,-0.0248 -0.11342,-0.26884 0,0 z m 43.66599,0.41556 c 0.0821,-0.0453 -0.17566,-0.0726 0,0 z m 0.52865,0.31665 c 1.26402,0.51652 2.8544,-0.99266 0,0 z m -0.59754,0.54425 c -0.0325,0.0801 -0.0567,-0.10192 0,0 z m 1.16594,2.74735 c -0.60147,1.22745 0.9752,-1.08564 0,0 z m -49.2432,0.5716 c 0.45303,0.0784 -0.18641,-1.50855 0,0 z m 0.13717,0.39673 c 0.8653,0.0806 -0.62427,0.44157 0,0 z m 48.92639,0.56924 c 0.12183,0.78585 0.476,-0.30551 0,0 z m -0.61066,0.79825 c -1.36847,0.72941 -0.7829,2.56422 0,0 z m -0.52581,1.18885 c -0.22995,0.83632 0.45376,-0.65085 0,0 z m -69.64107,5.64363 c 1.66046,0.3683 0.68957,0.15928 0,0 z m 70.91661,4.61139 c -1.05899,2.66436 2.66806,2.04156 0,0 z m 1.74708,2.39238 c 0.0462,0.20953 0.51122,-0.22227 0,0 z m -0.80399,0.0417 c -1.74383,0.30371 2.19337,0.09 0,0 z m -0.7264,0.0987 c 0.63039,0.92529 0.18962,-0.42394 0,0 z m -63.93448,7.5554 c -0.15054,0.64859 0.23314,-0.81752 0,0 z m -0.56711,0.17912 c -2.14534,1.00677 -0.78193,0.35065 0,0 z m 2.75408,3.76985 c 0.46822,-0.49415 -1.69886,-0.80083 0,0 z m 0.42378,8.27621 c 0.27416,1.94728 0.0342,-2.62593 0,0 z m -8.29712,12.64488 c 0.73392,-0.66176 -2.86074,-1.83715 0,0 z m -0.26161,0.52994 c -0.42598,0.71457 0.67634,-0.66176 0,0 z m -2.42009,3.0838 c -1.98123,0.28863 2.29001,-0.0312 0,0 z m -7.39486,3.79704 c 0.38432,2.01057 3.01145,1.64451 0,0 z m -5.18871,5.19822 c -0.12791,0.51977 1.17371,-1.95262 0,0 z m 78.04391,6.90731 c 0.64604,1.02602 4.03978,-2.9448 0,0 z m -0.96925,-0.31523 c 0.0747,0.021 -0.0359,0.06 0,0 z m 0.26901,0.0687 c -0.0907,0.30405 0.45759,0.0321 0,0 z m 0.34741,0.26398 c 0.0391,0.0308 9.8e-4,-0.0257 0,0 z m -0.39431,0.63971 c 1.13916,1.40329 0.47315,-1.02572 0,0 z m -74.66782,3.13246 c 0.18893,0.0327 -0.79985,-0.21661 0,0 z m 15.18803,0.97912 c -1.08728,1.48933 2.30098,4.33113 0,0 z m -9.55011,0.7934 c 0.62799,0.47001 0.11019,-0.36837 0,0 z m 2.27466,0.50373 c 0.34083,0.0473 0.94823,-1.13532 0,0 z m -2.06666,-0.35714 c 0.47739,0.58455 0.28029,-0.14742 0,0 z m 1.98125,0.43059 c 0.0639,0.0256 0.0953,-0.15729 0,0 z m 8.28817,26.61887 c 0.35696,-0.19023 -0.61501,-0.69479 0,0 z m -4.56346,2.6814 c -0.0476,0.90705 0.6427,1.4043 0,0 z m 0.34822,1.10716 c 0.22275,0.35072 0.0919,-0.10857 0,0 z m 59.23328,1.38152 c -0.13195,0.18726 0.17006,-0.15059 0,0 z m -0.0908,0.0953 c -0.59974,0.66876 -0.51507,1.81393 0,0 z m 2.60593,2.0827 c 0.31427,0.0205 1.183,-2.14788 0,0 z m -0.86952,0.40451 c -5.21606,0.3929 1.32022,0.41871 0,0 z m -71.13868,2.48369 c 0.5885,1.24716 2.18047,-0.12194 0,0 z m -3.61886,11.04819 c -2.16826,1.64825 2.79255,-1.4218 0,0 z m 14.93456,45.22159 c 0.57949,0.69289 1.01542,-0.12933 0,0 z m 1.11577,0.96156 c 1.8476,1.18962 -0.85364,-1.37011 0,0 z m 5.2008,1.93756 c -0.0128,-0.0792 -0.3697,-0.11283 0,0 z m 2.61027,3.53363 c 0.47204,1.69337 -0.35477,-2.81093 0,0 z m -2.43179,-0.53196 c -0.53041,1.18215 -0.0565,0.40449 0,0 z m 1.48938,2.10873 c -1.46155,1.7705 2.9933,-2.37007 0,0 z m 2.25736,9.87248 c 0.3992,0.60557 0.0761,-0.13967 0,0 z m -22.42236,9.47976 c 0.24296,0.87211 -0.28725,-1.45164 0,0 z m 5.12374,1.11546 c 0.40439,0.51872 0.35151,0.10649 0,0 z m 0.3339,0.22638 c 0.1507,0.0287 -0.008,-0.10391 0,0 z m -4.85283,0.48901 c -0.0941,0.0239 0.003,-0.0582 0,0 z m 1.65436,7.52451 c 1.30189,2.9254 -0.69661,-3.57765 0,0 z m -1.11771,1.01624 c 0.29687,-0.1099 -1.28816,-0.4235 0,0 z m 0.94473,0.66888 c 0.19227,-0.15468 0.58379,-0.94584 0,0 z m 1.90595,9.34499 c 2.71512,2.10767 -1.53139,-1.77155 0,0 z m -1.56116,2.05672 c 1.1145,0.81107 2.45386,0.0387 0,0 z m 1.73929,0.2413 c -0.10147,0.0992 0.96655,-0.50685 0,0 z m -4.93105,11.66663 c 0.0488,0.0533 0.14132,-0.10914 0,0 z m -0.62662,0.19699 c -0.50732,0.61563 1.93594,-0.51451 0,0 z m 73.29048,2.65864 c 0.69091,0.47856 0.44688,0.21536 0,0 z m -80.96159,7.69524 c -0.0848,1.2056 0.18297,-1.22224 0,0 z m -6.10486,0.10907 c -0.32647,1.90476 2.02381,2.53413 0,0 z m 2.65524,0.17483 c -0.19779,0.47703 0.26186,-0.56773 0,0 z m 80.15165,0.99133 c -0.003,-0.0553 0.0374,-0.11741 0,0 z m 0.27009,1.20544 c 2.49812,1.05326 0.99913,0.43134 0,0 z m -86.51947,3.7334 c 0.6479,0.24005 -0.99685,-0.44004 0,0 z m 0.31708,1.39038 c 0.0447,0.033 0.0729,-0.0738 0,0 z m -1.0894,0.47705 c 0.58988,0.47158 0.9333,-0.54055 0,0 z m -9.88891,11.14612 c 0.50823,-0.30475 -1.84065,-1.03953 0,0 z m 91.99294,4.05594 c -0.99306,0.30705 0.83391,-0.81734 0,0 z m -94.15361,3.16418 c 0.18006,-0.24171 -2.45075,-1.06284 0,0 z m -0.0901,1.78895 c -0.038,0.21247 1.03941,-1.35319 0,0 z m 94.67129,7.25967 c -0.58612,0.5193 -0.18545,0.20204 0,0 z m -98.00268,1.07433 c 0.14026,0.71648 1.22885,-1.52297 0,0 z m 97.31986,-0.0579 c 0.55313,0.58358 0.43486,0.33753 0,0 z m -93.06288,1.46938 c 0.32856,0.24661 -0.1905,-0.21179 0,0 z m -19.10177,11.89051 c 0.15001,-0.34219 -1.37533,-0.58184 0,0 z m -0.0318,15.01867 c -1.8204,1.28596 0.77739,-0.3402 0,0 z m -2.57323,6.10001 c 0.65908,-0.0769 -0.5498,-0.69148 0,0 z m 0.5487,0.0887 c -0.24641,0.11807 0.0662,-0.15024 0,0 z m -1.57889,3.64511 c -0.57958,0.47332 1.32878,-0.88021 0,0 z m 0.86466,1.28238 c 0.3064,-0.0117 0.19155,-0.008 0,0 z M 559.625,759.3143 c 0.42792,-0.0534 -0.65524,-0.24645 0,0 z m 2.70838,0.72344 c -0.56075,0.6971 -0.45489,1.82135 0,0 z m -3.54119,0.25868 c -3.07432,0.53533 2.22657,0.67513 0,0 z m 17.02358,16.18681 c 1.48363,0.26266 -0.1177,0.008 0,0 z m 1.25045,0.92412 c 0.0834,0.32103 -0.0582,-1.53085 0,0 z m 49.02182,19.87211 c 0.0506,-0.0249 0.27158,-0.0759 0,0 z m -1.13552,1.08143 c -0.73672,0.76832 -0.42073,2.57005 0,0 z m 3.48818,2.7255 c -0.99731,1.62652 1.20698,-1.52718 0,0 z m -3.70203,-0.0835 c 0.48816,2.47686 5.41486,0.76822 0,0 z m -6.00298,15.65549 c -0.0254,-0.20666 -1.67471,-0.87972 0,0 z m -1.69252,0.19677 c -0.20121,0.82796 0.11407,1.35244 0,0 z m 2.65416,1.7439 c 0.72545,1.08421 -0.98876,-3.75417 0,0 z"><title
     id="title25">Sul Baiano
</title></path><path
   id="85085"
   style="stroke-width:0.00322563"
   d="m 746.61789,325.62765 c 0.30082,-0.47048 -2.37669,-0.71049 0,0 z m 0.17887,0.0901 c 0.5485,0.48428 -0.12466,-0.39219 0,0 z m 0.76307,0.94176 c -0.0498,-0.1608 -0.33572,-0.62313 0,0 z m -0.22715,-0.0784 c -0.86871,4.37672 2.39752,5.59547 1.2031,1.41577 0.99246,0.33995 -0.99976,-1.04253 -1.2031,-1.41577 z m 0.76573,0.8455 c 0.57193,1.06134 -0.49307,-0.40162 0,0 z m -2.30817,2.08652 c -0.76749,0.0472 0.82904,0.0363 0,0 z m 3.08191,1.7185 c -1.82869,7.02286 -12.40288,-1.43046 -13.74036,1.00563 -4.75853,8.98211 -15.31747,-2.88114 -22.80672,3.39297 -3.83385,-2.61 -1.33434,10.78008 -7.49846,4.2099 -2.80002,-7.01362 -3.42614,8.37336 -8.44663,1.55952 -0.15746,-3.43207 -4.33549,-3.75813 -4.78613,-4.48496 -2.34963,0.45498 2.84492,0.62699 -0.9344,1.45464 0.41072,-2.02237 -2.1904,2.50162 -3.18142,2.57657 -1.57382,1.55669 -1.60223,6.03554 -2.79335,5.94911 2.71863,0.0573 3.16379,11.01052 -3.1573,7.89231 -6.50871,7.9511 -14.79779,3.80772 -18.90972,-1.1258 -6.22867,0.0336 -8.90714,5.94988 -15.21521,3.9714 -4.57975,3.16096 -10.95361,4.6458 -9.40478,9.86872 -1.65429,0.36831 -4.14478,6.3453 -3.52333,2.6698 -1.56068,2.72992 -1.7923,7.51755 -1.1662,6.65359 -1.20974,-1.5928 -4.4553,4.6541 0.0861,1.3327 2.33605,-1.06666 -1.23045,4.27559 1.18396,1.02271 0.57231,1.94481 0.53835,0.77802 1.36306,4.60518 0.81846,4.45893 -1.05615,6.30148 4.49467,7.23097 2.25636,7.64229 10.58,1.53966 12.05795,6.94416 4.03524,-0.975 6.11029,0.21392 9.86585,0.8629 3.52428,7.22893 -11.05276,5.07534 -13.92884,6.7334 0.59785,-0.24819 6.7586,0.84742 2.58498,1.09056 4.0189,0.0621 7.12568,2.47153 10.65029,3.42924 3.35398,1.42322 2.6678,0.54797 7.42846,-0.47504 4.78905,1.78279 3.85187,-3.15043 8.69945,-2.00688 2.85141,-1.25317 9.14212,-8.18081 8.29114,-3.42483 -0.0989,-2.02598 4.90782,-5.92943 7.69076,-8.65831 5.33847,-2.42763 8.18146,-5.82082 7.98032,-10.33626 10.40331,-4.50151 3.0588,8.8963 10.72611,6.4066 4.27237,-1.89516 6.41176,-5.28843 10.36095,-4.78019 12.79465,-13.22116 25.71637,-26.93415 34.68953,-42.05127 -2.58239,-1.63272 0.98136,-0.86651 -3.56988,-1.41189 -4.12672,-7.68892 2.84999,3.22964 -0.80088,-3.05634 4.58617,-3.92059 -2.66041,-8.25698 -4.28994,-9.05081 z m -37.51955,2.3388 c 0.11864,1.27901 0.42637,-3.11711 0,0 z m -0.94573,1.37395 c 0.18799,0.10794 -0.18482,-0.12803 0,0 z m -17.98019,1.09341 c 0.41163,0.0467 -0.33554,-1.23769 0,0 z m 0.4845,0.56435 c 0.0404,0.18079 0.20021,-0.179 0,0 z m -0.50239,0.12331 c -0.16568,0.68385 0.23103,-0.20591 0,0 z m -1.03936,0.14635 c 0.25262,0.0406 -0.20474,-0.1068 0,0 z m -1.46141,1.232 c 0.67291,0.003 -0.3246,-1.44722 0,0 z m 5.2134,-0.24021 c -0.16364,0.37208 0.20819,-0.0751 0,0 z m -0.24186,0.26258 c 0.20923,0.94445 0.36492,0.21219 0,0 z m -9.33406,3.48103 c 0.59199,0.56681 -0.91528,-1.02368 0,0 z m -0.0897,0.75188 c -0.39133,0.4392 0.52914,-0.5413 0,0 z m 73.6632,1.97751 c -2.13033,-0.15604 -0.22607,1.58502 1.13017,-0.37557 l -1.13079,0.37556 z m -1.20781,0.0234 c -0.0652,0.49291 0.054,-0.23958 0,0 z m -124.08464,27.41892 c -1.73268,0.35468 0.58393,0.33887 0,0 z m 2.17762,16.4832 c 0.0671,-0.0752 -0.23174,-0.25231 0,0 z m 0.13176,0.92792 c 0.0376,-0.005 -0.0158,-0.0664 0,0 z m 65.49481,0.153 c -0.56381,0.0684 -0.21335,0.27216 0,0 z m -1.06027,0.64299 c -0.25059,0.74794 -0.11326,0.88107 0,0 z m -55.50447,5.4854 c -0.17147,0.18178 -0.2276,-0.40471 0,0 z m -0.2895,0.12549 c -0.19591,0.11597 0.31664,0.0375 0,0 z m 0.47034,0.0621 c 0.16293,0.0524 -0.14878,-0.18237 0,0 z m 0.0468,0.12203 c 0.65955,2.92183 0.83681,0.30186 0,0 z m -0.7885,0.003 c -0.65327,0.67146 -0.59836,0.96655 0,0 z m 47.18266,1.94696 c -0.23328,0.0968 0.21607,-0.0296 0,0 z m -39.28312,0.36059 c 0.0831,0.0228 0.0176,-0.1446 0,0 z m 4.96969,0.66985 c 0.5067,0.91052 -0.81504,-2.15981 0,0 z m 2.43692,-0.31035 c 0.27167,0.0936 -0.4509,-0.50221 0,0 z m 0.0417,0.0718 c 0.57096,1.39561 0.42173,0.14742 0,0 z m -0.89637,-0.0234 c -0.37657,0.32019 0.22019,0.0758 0,0 z m -3.11315,0.49939 c -0.69041,2.12236 0.39013,2.02564 0,0 z m 7.49297,1.52983 c -0.13818,0.70905 -0.11089,-0.45441 0,0 z m -12.91618,5.92425 c -1.32768,2.61671 1.07887,0.66208 -0.20969,-0.27982 l 0.20951,0.27879 z m 27.28142,1.20995 c -0.43554,0.48421 0.28424,-0.21838 0,0 z m -25.00044,0.4083 c -0.95495,3.00252 1.37909,-1.47174 0,0 z m 20.655,1.27851 c -0.65362,0.27161 0.69039,-0.0345 0,0 z m -1.80358,1.03125 c -1.04093,0.006 -1.6045,4.35946 0,0 z m 0.11872,0.18328 c 0.039,0.0699 0.0877,-0.0881 0,0 z m -5.90522,0.51555 c 0.89486,0.24924 -2.55631,-1.48637 0,0 z m 6.50581,-0.24124 c 0.34394,1.27251 0.0843,-1.46383 0,0 z m 0.60692,0.21218 c 0.1638,-0.12605 -0.25504,-0.52707 0,0 z m -0.095,0.76024 c 1.63754,1.57966 0.0889,-1.50533 0,0 z m -9.07189,0.16959 c -0.15509,2.0287 1.67982,2.24914 0,0 z"><title
     id="title23">Metropolitana de Salvador
</title></path><path
   id="85102"
   style="stroke-width:0.00322563"
   d="m 141.65402,164.21614 c -8.18153,1.2761 -0.7892,9.87162 -6.06365,14.58698 -3.21631,5.77364 -9.44592,2.17429 -8.78365,10.03397 -7.0693,1.74287 -13.36566,7.94722 -18.08957,12.14541 -2.93313,4.80947 -14.113486,-0.0274 -10.047971,7.1871 1.868001,5.41854 -7.053803,2.92222 -3.10404,5.82774 -2.611854,5.67939 -4.119082,9.33248 -7.70694,14.0211 -12.070201,5.41433 -6.640777,25.1501 -22.0215,25.63881 -0.246318,-2.78323 -1.687389,5.39464 -2.46224,5.20387 2.708684,-1.10313 1.149301,-3.45758 2.81702,1.47386 7.133655,1.16227 3.039556,12.85543 11.12992,11.8509 5.777201,3.14356 15.451021,0.88429 19.9771,6.89983 4.334111,-1.09476 13.377361,2.29287 7.921981,6.48327 -9.648053,3.36317 -14.72575,-3.62176 -15.696091,-0.80648 3.485478,5.33493 -6.447612,7.18764 -1.78965,10.37505 0.677993,3.9254 -7.333409,6.26061 -1.23302,7.40002 4.310852,1.06413 12.292625,-3.84571 13.41942,2.64553 -3.402989,6.87848 -19.222245,3.1197 -16.86068,13.08165 -0.554392,1.37512 2.179248,1.2427 1.07105,5.12872 -2.333631,4.82669 -0.609121,2.46754 0.74036,7.54869 -4.223381,3.70937 5.596202,3.35292 1.95947,8.0301 4.583324,0.91825 1.864953,5.62031 6.19175,6.50921 -1.335998,8.8317 7.336411,-0.88105 7.971481,6.47142 2.82575,6.10426 -11.19006,3.62559 -9.230431,8.63899 -2.634352,2.25034 4.532388,3.8544 -0.64025,7.02199 2.528649,4.76213 -1.474968,7.65605 1.34477,12.26879 -4.228009,4.07241 -1.41171,8.37498 4.48513,4.69524 8.812721,-5.7237 10.043651,7.47443 1.76638,8.04898 -2.171907,2.58117 -6.654999,0.44252 -6.2323,1.75887 -1.387764,0.43578 -2.972176,4.89688 -3.93079,6.04891 3.1741,2.5835 0.835962,4.99485 0.43402,5.6741 1.411435,1.51322 -2.071462,5.94164 0.84449,8.47029 -1.563322,6.85887 9.223565,-0.65133 12.889191,-1.31444 6.61759,-6.44405 11.70585,6.28458 2.74255,7.19545 -2.68166,2.94197 -7.887923,7.28974 -11.400881,4.89429 2.445614,0.39072 4.030539,8.46622 0.88523,4.33224 3.492248,2.87605 -4.463054,8.60366 3.47938,6.7188 7.246271,5.45803 -8.205163,7.85399 -3.84124,13.80219 -4.236855,-0.55249 4.665967,2.61198 -0.35247,5.67041 -4.717717,-0.40357 -0.283499,2.17331 0.74454,4.44893 -7.413815,6.77951 4.630754,7.96714 1.44748,14.71219 -4.357563,6.33288 3.589541,7.3155 7.809021,9.5244 -0.36611,4.61144 4.46555,-0.96327 5.23999,4.55669 -0.0861,2.15127 5.30832,3.07786 4.92339,3.93258 2.3891,1.74106 3.97685,5.85871 6.78699,7.68603 -0.0221,5.57953 -6.01651,6.70345 -8.30711,8.7834 3.16666,0.99924 -0.81899,5.90943 1.41465,3.55684 2.42666,3.12615 0.13984,3.80046 -0.0986,2.54239 0.68106,1.7238 0.21096,7.04318 0.27847,7.85668 -0.98246,4.4348 -3.51131,2.20393 -0.91859,5.90758 -1.65924,3.40943 1.09907,5.75128 -3.05042,9.92014 1.02894,3.1406 2.26303,5.22409 3.7856,6.84646 4.38447,3.43918 0.21623,6.58608 0.87741,10.38004 -3.2239,1.85291 -8.18775,11.09236 -3.42417,9.80904 -1.35599,2.1629 2.30469,-1.67772 1.44025,-3.13707 2.25073,-3.66486 10.61372,-1.37034 8.49043,0.87015 3.13077,-3.90107 4.45626,-5.35333 9.44829,-3.50626 0.87186,0.1664 -3.67402,-1.11444 1.01159,-0.4691 1.37373,-0.49325 4.29976,-2.24924 4.65068,-2.66966 1.6551,0.0964 0.15215,-3.48457 2.11548,-4.38703 2.55393,0.52968 3.51979,2.18628 2.60708,-0.39069 -0.28829,-0.50785 0.70396,-1.6128 1.91344,-3.00586 -1.01638,1.29104 3.22891,-1.85105 0.67645,-1.09959 1.46329,-4.70156 9.4396,-2.18782 10.06444,-1.4032 -1.24373,0.0488 3.37057,-0.56693 0.83537,-0.73442 0.97101,-4.08262 5.53921,0.15428 4.03086,-2.28514 1.92854,-0.99307 2.49223,-3.94741 3.49536,-2.11001 0.41047,-2.42679 3.64162,-3.39882 4.55858,-3.71486 0.54415,0.90187 0.1376,-2.25826 1.57002,-2.65447 1.72828,-0.47101 3.62428,-3.72783 4.25741,-3.10601 -0.83654,-0.36736 4.06789,-3.95759 2.26789,-1.42249 2.44397,-2.81136 4.05517,0.55157 5.34607,0.19446 -0.91593,-3.7985 6.61015,1.04848 6.59509,-4.83852 4.41732,1.44463 2.2358,-0.78393 0.76416,-0.93641 3.71101,-1.88462 4.23981,-0.22497 4.96357,-2.84654 0.85525,-1.21198 3.55196,-1.50103 4.62697,-1.95345 3.38997,-5.39234 5.48971,1.18355 8.16794,-1.64212 -4.51602,0.74578 -1.97548,-2.79486 -3.09956,-2.34358 0.1117,-3.37673 3.89772,2.54151 1.82201,-1.29925 -0.29823,-2.01877 -3.02366,2.47306 -0.70932,-1.19824 1.21866,-0.49869 3.63512,-5.75406 3.42401,-3.38581 2.33093,-3.12329 4.60922,-0.95978 5.64731,-3.08737 0.13967,0.0787 5.44844,-4.4581 4.68623,-3.08578 0.9839,-2.04497 3.42741,2.00878 2.02492,-0.5395 -1.68494,-0.98958 3.69473,-4.83263 4.92186,-4.35936 -1.30346,-0.775 3.40321,-1.73756 3.4712,-2.26911 2.28471,-0.85009 6.26601,-1.5822 4.56395,0.54395 1.70082,-1.37163 0.87335,-2.3867 2.46805,-2.42771 0.0819,-0.37001 -6.2061,1.12851 -4.19715,-4.12483 -0.35656,-2.20626 4.38008,-8.22089 5.39654,-4.84173 -0.70283,-2.94224 5.07284,-3.69158 5.15044,-7.99467 3.32256,-4.47304 3.0235,-12.20508 10.05171,-13.43557 2.45335,-3.50699 2.92647,-3.47506 3.75001,-5.15014 3.1213,-4.08998 4.78764,-7.37332 9.45861,-10.98686 0.45528,-2.1447 9.22924,-5.54384 7.38386,-5.36847 -3.19165,-4.68755 2.77072,-10.28865 3.44323,-10.78502 -1.42968,-2.26789 -0.0645,-7.87039 3.47751,-10.32628 0.53167,-3.3177 1.02788,-6.51657 2.73733,-2.9875 -0.61702,-2.23626 -0.56075,-10.66288 7.5676,-11.30872 3.30806,-0.75764 5.73913,-4.21862 8.47409,-4.35838 -0.56982,-1.1595 -5.1577,-3.89709 -2.61798,-3.5328 -2.21086,-4.58763 -1.75021,-0.0979 -2.19651,-0.47664 -4.99231,-10.27915 18.39578,-13.17946 12.79892,-27.29625 -5.03279,-16.87503 31.85792,-16.65375 3.96622,-23.53371 -4.84605,0.20968 -13.11661,-8.40369 -14.02411,-5.53461 -4.78419,0.62124 -1.07726,-6.15143 -3.06227,-3.50849 2.22698,-4.37965 -0.32799,-0.0833 -0.85082,-3.47474 -3.44593,-5.17854 -19.34897,0.46959 -14.58277,-7.1136 1.26823,-0.41394 2.31872,2.74585 0.5892,-1.27011 6.93324,-4.66755 3.75806,-6.00926 7.80415,-11.65221 4.07132,0.81897 -0.17729,-2.5858 4.06984,-4.64253 1.19913,-4.33398 9.94474,-7.962 7.30778,-12.19305 -8.01133,-15.76777 -10.4,-33.55551 -16.94548,-49.63413 -0.15578,-9.36172 -10.28196,-13.96891 -11.19378,-22.57178 3.21864,-2.93662 10.46534,-2.76002 8.00804,-8.73476 2.1921,-6.42093 -5.47655,-13.70575 -10.84729,-16.75938 -2.0733,-0.007 -6.27923,6.84034 -10.40415,2.06568 -6.65718,4.27406 -9.31646,-12.82453 -14.18163,-1.89768 -5.45098,0.0124 -9.5024,7.13165 -15.2295,2.23263 -2.14407,4.48804 -7.47452,3.03588 -5.5095,8.89835 -4.27485,3.03673 -11.32769,2.84896 -12.01448,9.7451 -4.20642,3.64027 -7.42559,2.60763 -11.98469,5.07313 -6.38463,-5.27458 -13.02746,-7.49589 -21.5564,-7.49589 -5.57265,-3.07754 -12.75279,-5.97507 -14.14825,-13.43035 -6.62325,-2.11434 -7.62427,-11.83716 -4.29613,-16.93999 2.13302,-4.08717 -2.51217,-11.57179 -7.71544,-14.79843 -3.43268,-2.39873 -2.80386,-13.85254 -7.08681,-11.28078 z m -3.94344,1.78547 c 0.92832,-1.30146 -4.35289,-3.38503 0,0 z m -2.45092,0.79511 c 0.72846,0.15259 1.00659,-0.0129 0,0 z m 130.58427,34.41735 c -0.85083,0.49258 1.71879,-0.76898 0,0 z m -167.405381,2.55539 c 0.156259,0.0503 0.185559,-0.56275 0,0 z m 74.417741,15.23548 c 0.2225,0.88216 0.4923,0.77792 0,0 z m 29.3667,5.75906 c 0.35206,0.74725 0.24108,0.40768 0,0 z M 88.823609,284.39119 c -1.470667,0.16052 1.513708,-0.0182 0,0 z m -4.59565,6.65898 c -0.408808,0.90299 2.68244,0.55832 0.06323,-10e-4 h -0.0632 z m -0.18464,9.84636 c -0.0222,0.76845 0.06767,-0.80687 0,0 z m -1.0636,0.39207 c -0.757424,0.28337 1.988299,-0.12062 0,0 z m 215.306471,2.7127 c -0.005,-0.0176 -0.0642,-0.14363 0,0 z m -10.17874,11.30706 c -0.20474,0.12099 0.19985,-0.11284 0,0 z m -3.01306,7.08303 c -0.648,0.60842 -0.45157,0.84474 0,0 z m -202.476121,2.8575 c 1.2411,1.18384 -1.172259,-1.37607 0,0 z m 1.70084,9.70855 c -0.237486,0.9321 0.327704,-1.01665 0,0 z m 1.16586,2.95585 c 0.121825,-0.42371 -1.769062,-0.28724 0,0 z m 0.23123,0.0949 c 0.779934,0.48357 -0.232294,-0.41576 0,0 z m -0.16596,1.00084 c -0.720517,1.52909 0.556301,-0.0373 0,0 z m 3.80109,4.56724 c -2.202017,0.35472 1.329106,0.14535 0,0 z m 0.8233,0.54308 c 0.480452,-0.19002 -0.0031,-0.5231 0,0 z m -0.55828,1.17829 c -0.132652,0.68799 1.240857,-2.43304 0,0 z m 2.35209,18.0369 c 0.01924,0.032 -0.06318,-0.17758 0,0 z m -1.58754,3.84819 c 1.514737,1.05908 -0.100361,-0.34374 0,0 z m 0.28832,0.69529 c 0.177499,1.3797 0.348023,-0.42029 0,0 z m -0.41516,18.35777 c 0.225713,1.10944 -0.0072,-2.86865 0,0 z m -0.84526,-0.66966 c -0.881001,0.33249 -1.371773,1.48832 0,0 z m 1.80075,9.098 c 0.218771,-0.0899 -0.300792,-0.58213 0,0 z m 204.854231,5.86166 c -0.72058,0.42544 0.26416,0.92184 0,0 z m -2.06703,0.35113 c 0.48187,0.008 0.2826,1.08868 0,0 z m 1.49314,0.93682 c 0.95506,1.50252 -0.0545,-1.47231 0,0 z m 0.91998,0.0324 c -0.0308,0.21817 0.13857,-0.19084 0,0 z m -0.095,0.91723 c -0.0113,-0.0103 -0.004,0.003 0,0 z m 0.84321,0.2361 c 2.12753,0.51054 0.447,-0.66372 0,0 z m -1.01572,0.19409 c 0.67083,0.12212 0.58336,0.6272 0,0 z m 1.84736,0.82551 c -0.73183,0.33318 3.43428,1.50385 0,0 z m 1.22862,0.12422 c 0.30878,0.60673 1.60699,-0.96331 0,0 z m 1.35302,0.26423 c -1.01275,0.0142 -0.93674,1.04515 0,0 z m -1.05817,0.54458 c 0.4257,0.42845 0.0947,-0.16467 0,0 z m -0.0231,0.0255 c -0.33553,0.21502 0.66833,0.11168 0,0 z m 0.27981,0.11526 c 0.0304,0.0812 0.1531,-0.0781 0,0 z m -211.508841,0.38436 c 0.405673,-0.38476 -1.01844,-0.35097 0,0 z m 210.614451,0.24582 c 0.39763,1.2463 -0.11666,-0.51865 0,0 z m -7.33299,2.75277 c 0.0839,1.02315 1.50365,1.94175 0,0 z m -203.903671,4.11782 c -0.09371,0.19558 0.638295,-0.89911 0,0 z m 195.196741,1.98233 c -3.21969,0.57602 1.93888,0.18028 0,0 z m -1.49867,1.0986 c 0.18537,0.48071 -0.58713,0.64799 0,0 z m -0.29233,1.1272 c -1.21912,2.27932 0.14631,-0.42667 0,0 z m -0.3435,1.05746 c -0.47964,-0.51978 1.07251,-0.82733 0,0 z M 90.280129,418.2377 c -1.066247,0.11614 1.314081,0.0727 7.5e-4,9e-4 z m 0.57119,0.12091 c 0.395535,0.11781 -0.12209,-0.14385 0,0 z m 4.87311,13.40675 c 0.07687,0.0356 0.0226,-0.0941 0,0 z m -1.39599,4.27886 c 0.03653,0.029 0.0102,-0.0198 0,0 z m 179.865781,8.575 c 0.89259,0.27738 -2.67051,-2.23894 0,0 z m -181.403651,3.58245 c 0.100521,0.0901 1.120428,-1.43176 0,0 z m 165.053981,8.49341 c -0.0348,0.0918 0.11807,-0.0809 0,0 z m -6.29366,8.65663 c 0.91223,0.32104 0.0942,-0.20472 0,0 z M 93.340509,475.0624 c 0.08452,1.33407 3.091672,0.54108 0,0 z m 1.18373,2.33631 c 0.226965,-0.0656 1.02009,-0.98429 0,0 z m -0.7603,1.86343 c 0.933364,0.32494 -0.957495,-0.40239 0,0 z m -0.53805,1.9568 c -0.446904,0.56319 2.326447,-1.54707 0,0 z m -2.20866,-0.27731 c 2.009344,0.94497 0.906803,0.4331 0,0 z m 145.815311,12.85512 c -0.70655,0.35186 -0.22128,0.25771 0,0 z m 1.85514,1.20656 c -0.38384,1.35555 1.10643,-0.77792 0,0 z m -1.86908,0.49018 c -2.73609,0.29313 1.72028,1.27679 1.2931,0.36108 0.43281,-0.48336 -0.92352,-0.38306 -1.2931,-0.36108 z m -1.80265,0.64331 c -0.57719,0.18693 1.11997,-0.28207 0,0 z m -1.83357,0.14385 c 0.50819,0.12709 -0.8726,0.57683 0,0 z m -0.88763,0.58118 c -0.19835,0.32552 0.44802,0.33654 0,0 z m -5.62626,2.20366 c 0.0369,0.0133 -0.007,-0.006 0,0 z m -1.68579,0.21824 c -0.20693,0.71099 0.73397,-0.36168 0,0 z m -4.13973,2.43958 c 1.45161,0.43631 1.16118,0.34924 0,0 z m -1.42701,0.47409 c -0.62517,2.54089 -3.68369,1.76524 -0.002,1.9e-4 z m 0.56135,0.23592 c 1.07674,0.97707 0.81088,0.0164 0,0 z m -0.0567,0.007 c 0.0327,0.079 0.0816,-0.0678 0,0 z m 0.77393,0.42624 c 1.12704,1.47044 0.63137,-0.77729 0,0 z m -0.0194,0.004 c 0.0616,0.0471 0.008,-0.0101 0,0 z m -108.42853,2.01136 c 1.59488,1.50204 -1.45644,-1.80629 0,0 z m 105.04503,-0.10325 c 0.0442,0.006 0.0118,-0.0866 0,0 z m -0.0406,0.58355 c 0.11228,0.5343 0.23803,-0.0584 0,0 z m -103.65092,1.51314 c 0.64938,0.28179 -1.73098,-3.25917 0,0 z m 101.98228,-0.64818 c 0.43195,0.38496 0.22457,0.21375 0,0 z m -0.49837,0.50205 c 0.77765,0.34634 0.25321,-0.37301 0,0 z m -104.46973,0.60434 c 0.64978,1.1803 2.30073,1.08383 0,0 z m 101.41367,0.60459 c 0.0433,-0.0317 0.24071,-0.1232 0,0 z m -1.56337,1.08896 0.004,-0.004 z m -0.0816,0.0305 c 0.0556,0.0536 0.0726,-0.0915 0,0 z m -2.60115,1.08341 c -0.22039,0.19974 -0.0726,-0.12153 0,0 z m -2.96685,0.9758 c 0.55574,1.70911 -3.61829,1.91522 0,0 z m 1.8858,0.0146 c -0.0529,0.16012 0.24089,-0.17534 0,0 z m -0.96558,0.36961 c -0.77851,0.6289 0.24672,-0.92438 0,0 z m -0.78581,0.64319 c 0.43846,0.47443 -1.26932,0.28427 0,0 z m -91.31216,0.64237 c 0.53247,0.51337 -0.18227,-1.35985 0,0 z m 91.06234,0.9369 c -8.6438,-4.75545 -4.27548,-2.3448 0,0 z m -0.15724,2.00332 c -0.0376,0.88214 -0.62931,-0.73421 0,0 z m -1.86207,0.49659 c -0.52761,0.42996 0.44709,-0.87937 0,0 z m 1.15986,0.474 c -1.72562,0.1793 1.97714,0.16741 0,0 z m -89.33085,0.18498 c -0.0394,0.0524 -0.0159,-0.0434 0,0 z m -0.37792,0.20241 c -0.98454,1.47762 1.10149,-0.71502 0,0 z m 87.81819,0.80071 c -0.57921,-0.44442 0.77993,-0.70098 0,0 z m -0.36799,-0.29281 c 0.15592,0.52632 -0.80357,0.68555 0,0 z m -87.60727,0.6789 c -1.18388,1.81652 1.53836,-1.77594 0,0 z m 87.12866,0.0177 c 0.0224,-0.20304 0.59168,-0.0928 0,0 z m 1.98058,0.79606 c -0.0496,0.0421 -0.0627,-0.0829 0,0 z m 0.0554,0.0301 c -0.0333,0.0288 -0.0429,-0.0535 0,0 z m -6.17658,1.77325 c -0.51952,1.18514 1.04878,-0.30441 0,0 z m -2.42447,1.35823 c -0.12803,1.6926 2.35685,-1.31862 0,0 z m -82.69275,3.50531 c 0.31557,0.1944 -0.19786,-1.11885 0,0 z m -2.0346,-0.0712 c 0.40786,1.44292 1.59436,1.07946 0,0 z m 2.08499,0.88367 c 0.16414,0.10283 0.67017,-0.57558 0,0 z m -0.87172,0.35404 c 0.13031,0.0713 0.10491,-0.0443 0,0 z m 0.38761,0.4422 c -0.0821,0.15235 0.25727,-0.43311 0,0 z m 0.9994,4.67146 c -0.70012,0.89947 1.86708,-1.77019 0,0 z m 59.74112,1.12498 c 0.22258,0.48596 1.46523,0.0429 0,0 z m -3.89087,3.49851 c 0.95531,0.16888 0.89588,0.15837 0,0 z m -0.89595,0.20266 c 0.0261,0.47867 -0.73476,0.19269 0,0 z m -0.89415,0.76483 c -0.52564,0.0775 0.74016,-0.47776 0,0 z m -56.87411,0.51647 c 1.00295,0.48795 -2.14585,-1.55888 0,0 z m 55.43835,1.22631 c 0.0469,0.40011 0.37673,-0.41833 0,0 z m 0.0626,0.13804 c 0.0707,0.35551 0.60716,-0.60227 0,0 z m -2.67405,2.06506 c -0.57092,1.06543 0.0381,-1.26139 0,0 z m -3.58993,3.09219 c -0.20512,0.22657 -0.59501,-0.4528 0,0 z m -4.51572,3.22145 c 0.1362,0.61096 0.48704,-1.25276 0,0 z m -0.44367,0.19591 c 0.0525,-0.0296 -0.0369,-0.0571 0,0 z m -10.73618,2.11756 c -0.75337,0.38796 0.665,-0.0741 0,0 z m -1.74524,2.06308 c 0.63055,0.21675 -0.0169,-0.46039 0,0 z m -0.21399,0.0865 c -0.15718,0.1185 -0.38615,-0.13723 0,0 z m -0.12196,0.12745 0.009,-0.008 z m 0.36666,0.96745 c -0.0769,0.0508 -0.14421,-0.24363 0,0 z m 0.23557,0.32164 c -0.15431,0.006 -0.13024,-0.48807 0,0 z m -5.83174,4.03365 0.0249,-0.004 z m -0.72647,0.14333 c -0.22425,0.15696 -0.35375,-0.0875 0,0 z m 0.48153,0.58919 c 0.47937,0.067 0.12584,-0.44795 0,0 z m -2.07537,0.70502 c -0.0717,0.0428 0.0242,-0.0751 0,0 z m 0.14006,0.18558 c -0.92038,0.23672 0.6344,0.0235 0,0 z m 0.20778,0.56406 c 2.32422,1.63371 0.36852,-0.7994 0,0 z m -1.31356,-0.0626 c -0.4663,0.67438 -0.78703,-0.26604 0,0 z m 0.35768,0.13399 c -0.0767,0.38669 0.20506,0.0253 0,0 z m -1.61433,0.30115 c -0.10924,0.0144 0.0915,-0.0673 0,0 z m 0.89644,0.11523 c 0.031,-0.0105 -0.005,-0.0118 0,0 z m 0.0142,0.0288 c 0.12303,-0.0212 -0.0261,-0.0705 0,0 z m 0.2277,0.27805 c -0.0801,0.49349 0.46849,-0.17419 0,0 z m 0.707,0.19522 c 0.42172,0.94433 0.23509,-0.62641 0,0 z m -2.71742,0.12108 c -0.3448,0.5497 0.38411,-0.0671 0,0 z m -6.42576,0.43735 c 0.0816,0.54794 -0.71818,0.45235 0,0 z m 0.25776,0.51311 c 0.0459,0.0233 0.0221,-0.0688 0,0 z m -0.14998,0.1725 c -0.13444,0.57783 0.46464,-0.0724 0,0 z m -11.93755,3.95216 c -0.0581,0.0581 -0.0293,-0.0511 0,0 z m 0.72684,0.2262 c 0.0918,0.064 0.0201,-0.0355 0,0 z m -3.69575,0.27013 c -0.81318,0.3881 -0.6734,0.64743 0,0 z m -0.20351,0.29272 c -0.25698,0.27996 0.793,-0.72798 0,0 z m -2.36441,0.86479 c -1.90071,1.61635 -2.56751,0.7708 -0.7592,1.68992 -1.51844,1.02768 0.88919,0.86116 0.45895,1.9132 0.95903,-1.25936 2.64728,-4.42799 0.83132,-3.98071 0.13848,-0.29653 0.27214,-0.80702 -0.53107,0.37759 z m -1.28245,0.59073 c 0.30509,-0.0541 -0.53725,-0.55553 0,0 z m 2.59475,1.35475 c -0.75126,0.087 -0.44729,1.18067 0,0 z m -1.18097,1.03802 c -0.15328,-0.0487 0.22773,-0.24726 0,0 z m 0.11267,0.26368 c 0.33904,0.66914 0.22244,-0.15722 0,0 z m -0.95572,0.88647 c -0.21786,1.07699 0.50727,1.54046 0,0 z"><title
     id="title15">Extremo Oeste Baiano
</title></path>



</svg>
